<?xml version="1.0" standalone="no"?>
<!DOCTYPE svg PUBLIC "-//W3C//DTD SVG 1.1//EN" "http://www.w3.org/Graphics/SVG/1.1/DTD/svg11.dtd" >
<svg>
<metadata>
Created by FontForge 20120731 at Sat Jun 29 23:35:00 2019
 By www
Copyright (c) 2013 by Nico Inosanto. All rights reserved.
</metadata>
<defs>
<font id="RadikalW03-Light" horiz-adv-x="585" >
  <font-face 
    font-family="RadikalW03-Light"
    font-weight="300"
    font-stretch="normal"
    units-per-em="1000"
    panose-1="1 0 0 0 0 0 0 0 0 0"
    ascent="800"
    descent="-200"
    x-height="500"
    cap-height="735"
    bbox="-153 -280 1217 1063"
    underline-thickness="50"
    underline-position="-75"
    unicode-range="U+0020-FB01"
  />
<missing-glyph horiz-adv-x="594" 
d="M528 699v-699h-463v699h463zM123 658l173 -275l172 275h-345zM318 346l169 -268v535zM126 42h337l-167 266zM106 83l166 263l-166 262v-525z" />
    <glyph glyph-name="uniFB01" unicode="fi" horiz-adv-x="580" 
d="M268 760q52 0 86 -23l-24 -60q-11 8 -25 13t-34 5q-42 0 -65 -29.5t-23 -74.5v-91h140v-64h-140v-436h-73v436h-91v64h91v89q0 37 11 68t31.5 54t50 36t65.5 13zM496 0h-73v500h73v-500zM460 715q23 0 38 -15t15 -38t-15 -37.5t-38 -14.5t-37.5 14.5t-14.5 37.5t14.5 38
t37.5 15z" />
    <glyph glyph-name="f_j.liga" unicode="fj" horiz-adv-x="580" 
d="M268 760q52 0 86 -23l-24 -60q-11 8 -25 13t-34 5q-42 0 -65 -29.5t-23 -74.5v-91h140v-64h-140v-436h-73v436h-91v64h91v89q0 37 11 68t31.5 54t50 36t65.5 13zM496 -72q0 -36 -12.5 -67t-35 -53.5t-53.5 -35t-68 -12.5q-45 0 -79 15.5t-60 41.5l48 49q16 -17 38 -29
t51 -12q44 0 71 27.5t27 70.5v577h73v-572zM460 715q23 0 38 -15t15 -38t-15 -37.5t-38 -14.5t-37.5 14.5t-14.5 37.5t14.5 38t37.5 15z" />
    <glyph glyph-name=".notdef" horiz-adv-x="594" 
d="M528 699v-699h-463v699h463zM123 658l173 -275l172 275h-345zM318 346l169 -268v535zM126 42h337l-167 266zM106 83l166 263l-166 262v-525z" />
    <glyph glyph-name="glyph1" horiz-adv-x="0" 
 />
    <glyph glyph-name="glyph2" horiz-adv-x="250" 
 />
    <glyph glyph-name="space" unicode=" " horiz-adv-x="241" 
 />
    <glyph glyph-name="exclam" unicode="!" horiz-adv-x="246" 
d="M159 194h-72v541h72v-541zM123 92q23 0 38 -15.5t15 -37.5q0 -23 -15 -37.5t-38 -14.5q-22 0 -37 14.5t-15 37.5q0 22 15 37.5t37 15.5z" />
    <glyph glyph-name="quotedbl" unicode="&#x22;" horiz-adv-x="287" 
d="M120 734l-33 -256h-31l-6 270zM262 734l-33 -256h-31l-6 270z" />
    <glyph glyph-name="numbersign" unicode="#" horiz-adv-x="707" 
d="M542 523h147v-60h-157l-35 -199h145v-61h-155l-36 -203h-72l35 203h-193l-36 -203h-73l36 203h-147v61h158l35 199h-146v60h156l38 212h71l-37 -212h194l38 212h72zM266 463l-35 -199h194l35 199h-194z" />
    <glyph glyph-name="dollar" unicode="$" horiz-adv-x="573" 
d="M325 745q57 -6 103 -26.5t81 -48.5l-40 -62q-37 30 -85 49.5t-105 19.5q-33 0 -61.5 -8t-49 -24t-32.5 -41.5t-12 -59.5q0 -29 9.5 -49.5t31 -35.5t56 -26t83.5 -22q65 -14 111 -32.5t75 -43.5t42.5 -57.5t13.5 -74.5q0 -45 -15.5 -82.5t-44 -65t-69.5 -45t-92 -21.5
v-118h-63v117q-71 5 -128 28t-102 63l44 63q40 -39 98.5 -61.5t120.5 -22.5q37 0 69.5 9t56 26.5t37 43.5t13.5 61q0 56 -45 87.5t-143 52.5q-65 14 -110 32t-72.5 42.5t-40 56t-12.5 73.5q0 46 15.5 83t43.5 63t67.5 41.5t87.5 17.5v122h63v-124z" />
    <glyph glyph-name="percent" unicode="%" horiz-adv-x="858" 
d="M225 0h-75l482 735h75zM206 748q37 0 69.5 -14t55.5 -38.5t36.5 -58t13.5 -73.5t-13.5 -73.5t-36.5 -57.5t-55.5 -37.5t-69.5 -13.5q-38 0 -70.5 13.5t-55.5 37.5t-36 57.5t-13 73.5t13 73.5t36 58t55.5 38.5t70.5 14zM206 692q-26 0 -47 -9.5t-37 -26.5t-24.5 -40.5
t-8.5 -51.5q0 -27 8.5 -50.5t24.5 -40.5t37 -26.5t47 -9.5q25 0 46.5 9.5t37.5 26.5t24.5 40.5t8.5 50.5q0 28 -8.5 51.5t-24.5 40.5t-37.5 26.5t-46.5 9.5zM652 354q38 0 70 -14t55.5 -38.5t36.5 -58t13 -73.5t-13 -73.5t-36.5 -57.5t-55.5 -37.5t-70 -13.5t-70.5 13.5
t-55.5 37.5t-36 57.5t-13 73.5t13 73.5t36 58t55.5 38.5t70.5 14zM652 298q-26 0 -47 -9.5t-37 -26.5t-24.5 -40.5t-8.5 -51.5q0 -27 8.5 -50.5t24.5 -40t37 -26t47 -9.5q25 0 46.5 9.5t37 26t24.5 40t9 50.5q0 56 -33 92t-84 36z" />
    <glyph glyph-name="ampersand" unicode="&#x26;" horiz-adv-x="674" 
d="M285 748q73 0 117 -41.5t44 -109.5q0 -32 -11 -57t-30.5 -46.5t-46 -40.5t-57.5 -39l39 -41l142 -158l102 119h89l-144 -171l147 -163h-96l-98 109q-23 -24 -47.5 -46t-53 -38.5t-61 -25.5t-70.5 -9q-45 0 -84.5 13.5t-69.5 39.5t-47.5 63t-17.5 85q0 39 11 70t32.5 58
t53.5 51.5t75 51.5q-33 40 -55 82t-22 90q0 70 43 112t116 42zM243 376q-33 -21 -58.5 -40.5t-43 -40.5t-26.5 -45t-9 -55q0 -33 11.5 -58.5t31.5 -43.5t47 -27.5t58 -9.5q29 0 54.5 9t48 23.5t42 33.5t37.5 39l-147 165zM196 592q0 -38 18 -70t47 -64q61 37 88 66t27 70
q0 44 -24.5 67.5t-65.5 23.5q-42 0 -66 -24t-24 -69z" />
    <glyph glyph-name="quotesingle" unicode="'" horiz-adv-x="144" 
d="M120 734l-33 -256h-31l-6 270z" />
    <glyph glyph-name="parenleft" unicode="(" horiz-adv-x="275" 
d="M253 649q-24 -29 -48 -64t-43 -78.5t-31 -97.5t-12 -120t12 -120t31 -97.5t43 -79t48 -63.5l-54 -41q-26 30 -52.5 69.5t-48 89t-35 109.5t-13.5 133t13.5 133t35 109.5t48 88.5t52.5 70z" />
    <glyph glyph-name="parenright" unicode=")" horiz-adv-x="275" 
d="M76 690q26 -31 52.5 -70t48 -88.5t35 -109.5t13.5 -133t-13.5 -133t-35 -109.5t-48 -89t-52.5 -69.5l-54 41q24 28 48 63.5t43 79t31 97.5t12 120t-12 120t-31 97.5t-43 78.5t-48 64l54 41v0z" />
    <glyph glyph-name="asterisk" unicode="*" horiz-adv-x="402" 
d="M226 595l131 46l17 -52l-132 -41l83 -110l-45 -32l-78 110l-79 -110l-45 32l84 110l-134 41l17 52l131 -46l-2 139h55z" />
    <glyph glyph-name="plus" unicode="+" horiz-adv-x="472" 
d="M269 384h161v-67h-161v-162h-67v162h-161v67h161v160h67v-160z" />
    <glyph glyph-name="comma" unicode="," horiz-adv-x="171" 
d="M71 105q25 0 41.5 -16.5t16.5 -42.5q0 -9 -2.5 -16.5t-6.5 -14.5l-64 -151h-4v237q8 4 19 4z" />
    <glyph glyph-name="hyphen" unicode="-" horiz-adv-x="440" 
d="M398 225h-356v67h356v-67z" />
    <glyph glyph-name="period" unicode="." horiz-adv-x="193" 
d="M96 106q26 0 42 -16t16 -42t-16 -42t-42 -16q-25 0 -41 16t-16 42q0 25 16 41.5t41 16.5z" />
    <glyph glyph-name="slash" unicode="/" horiz-adv-x="449" 
d="M80 0h-75l365 734h74z" />
    <glyph glyph-name="zero" unicode="0" horiz-adv-x="586" 
d="M293 748q61 0 108 -27t79.5 -76.5t49 -119.5t16.5 -157t-16.5 -157.5t-49 -120t-79.5 -76.5t-108 -27t-108 27t-79.5 76.5t-49 120t-16.5 157.5t16.5 157t49 119.5t79.5 76.5t108 27zM293 681q-45 0 -78 -22t-55.5 -63t-33.5 -99t-11 -129q0 -72 11 -130t33.5 -99
t55.5 -63t78 -22t78 22t55.5 63t33.5 99t11 130q0 71 -11 129t-33.5 99t-55.5 63t-78 22z" />
    <glyph glyph-name="one" unicode="1" horiz-adv-x="362" 
d="M278 0h-74v609l-145 -100l-34 64l249 175h4v-748z" />
    <glyph glyph-name="two" unicode="2" horiz-adv-x="528" 
d="M268 748q47 0 86 -15.5t67.5 -43.5t44.5 -67t16 -86q0 -36 -6 -66.5t-17.5 -58.5t-29.5 -55.5t-42 -56.5l-186 -231h292v-68h-434v6l268 334q22 27 37.5 50.5t25 46.5t14 47t4.5 53q0 34 -11 60.5t-29.5 45t-44 28t-55.5 9.5q-62 0 -97.5 -32t-49.5 -98l-67 15
q18 89 71.5 136t142.5 47z" />
    <glyph glyph-name="three" unicode="3" horiz-adv-x="524" 
d="M266 748q45 0 83 -14.5t65.5 -41.5t43 -64t15.5 -82q0 -65 -30 -102.5t-77 -56.5q62 -21 98 -67.5t36 -113.5q0 -49 -16 -89.5t-45.5 -69t-70.5 -44.5t-92 -16q-48 0 -85.5 12t-65.5 34t-48.5 53t-34.5 70l67 20q10 -27 24.5 -49.5t34.5 -38t46.5 -24.5t61.5 -9
q67 0 108.5 41t41.5 110q0 31 -12 58t-33.5 47t-52 31t-66.5 11h-81v66h83q26 0 50.5 7.5t43 23.5t30 40t11.5 57q0 62 -37.5 97.5t-95.5 35.5q-57 0 -93 -30t-55 -83l-65 28q12 33 30.5 61t44.5 48.5t60 32t78 11.5z" />
    <glyph glyph-name="four" unicode="4" horiz-adv-x="545" 
d="M418 222h108v-68h-108v-154h-74v154h-329v4l398 581h5v-517zM141 221h204v304z" />
    <glyph glyph-name="five" unicode="5" horiz-adv-x="533" 
d="M455 667h-297v-247q21 11 50 19.5t65 8.5q51 0 93 -16.5t72 -47t46.5 -73t16.5 -94.5q0 -48 -15.5 -90t-45 -73t-71.5 -49t-94 -18q-93 0 -147 42t-82 113l64 30q20 -53 56.5 -85t104.5 -32q35 0 63.5 12.5t49 34.5t32 52t11.5 65q0 72 -42.5 116.5t-114.5 44.5
q-47 0 -82 -14.5t-61 -34.5l-43 20v384h371v-68z" />
    <glyph glyph-name="six" unicode="6" horiz-adv-x="539" 
d="M268 465q49 0 92 -18t75 -50t50.5 -76t18.5 -96t-18.5 -96t-50.5 -75.5t-75 -49t-92 -17.5q-48 0 -91 17.5t-74.5 49t-50 75.5t-18.5 96q0 45 13.5 83.5t37.5 69.5l239 357h84l-182 -274q17 4 42 4zM268 398q-33 0 -62 -13t-50.5 -36t-34 -54.5t-12.5 -69.5t12.5 -69
t34 -54t50.5 -35.5t62 -12.5t62.5 12.5t51.5 35.5t34.5 54t12.5 69t-12.5 69.5t-34.5 54.5t-51.5 36t-62.5 13z" />
    <glyph glyph-name="seven" unicode="7" horiz-adv-x="533" 
d="M513 729l-379 -729h-81l350 666h-375v69h485v-6z" />
    <glyph glyph-name="eight" unicode="8" horiz-adv-x="539" 
d="M265 748q42 0 78.5 -14.5t63.5 -40t43 -60.5t16 -77q0 -57 -27 -99.5t-70 -65.5q58 -24 95 -73.5t37 -114.5q0 -47 -18.5 -86.5t-51 -68.5t-75.5 -45t-91 -16t-91 16t-75 45t-50.5 68.5t-18.5 86.5q0 65 36.5 114.5t94.5 72.5q-44 23 -70.5 66t-26.5 100q0 42 16 77
t43.5 60.5t64 40t77.5 14.5zM265 352q-33 0 -62 -11.5t-51 -31.5t-34.5 -47.5t-12.5 -59.5t12.5 -59t34.5 -47t51 -31t62 -11t62.5 11t51.5 31t34.5 47t12.5 59t-12.5 59.5t-34.5 47.5t-51.5 31.5t-62.5 11.5zM265 681q-27 0 -51 -9.5t-41.5 -26.5t-28 -40.5t-10.5 -51.5
q0 -29 10.5 -53.5t28 -42.5t41.5 -28t51 -10t51 10t42 28t28 42.5t10 53.5q0 28 -10 51.5t-28 40.5t-42 26.5t-51 9.5z" />
    <glyph glyph-name="nine" unicode="9" horiz-adv-x="539" 
d="M270 748q48 0 91 -17.5t74.5 -49t50 -75.5t18.5 -96q0 -45 -14 -84t-38 -69l-238 -357h-85l183 273q-21 -3 -42 -3q-49 0 -92 18t-75 50t-50.5 76t-18.5 96t18.5 96t50.5 75.5t75 49t92 17.5zM270 681q-33 0 -62.5 -12.5t-51.5 -35.5t-34.5 -54.5t-12.5 -68.5
q0 -38 12.5 -69.5t34.5 -54.5t51.5 -36t62.5 -13t62 13t50.5 36t34 54.5t12.5 69.5q0 37 -12.5 68.5t-34 54.5t-50.5 35.5t-62 12.5z" />
    <glyph glyph-name="colon" unicode=":" horiz-adv-x="188" 
d="M95 102q24 0 39.5 -15.5t15.5 -40.5q0 -24 -15.5 -40t-39.5 -16q-25 0 -40.5 16t-15.5 40t15.5 40t40.5 16zM95 510q24 0 39.5 -16t15.5 -40t-15.5 -40t-39.5 -16q-25 0 -40.5 16t-15.5 40t15.5 40t40.5 16z" />
    <glyph glyph-name="semicolon" unicode=";" horiz-adv-x="188" 
d="M76 102q25 0 41 -16t16 -42q0 -17 -8 -33l-65 -150h-4v238q10 3 20 3zM95 510q24 0 39.5 -16t15.5 -40t-15.5 -40t-39.5 -16q-25 0 -40.5 16t-15.5 40t15.5 40t40.5 16z" />
    <glyph glyph-name="less" unicode="&#x3c;" horiz-adv-x="338" 
d="M113 346l203 -192h-94l-200 190v4l200 190h94z" />
    <glyph glyph-name="equal" unicode="=" horiz-adv-x="472" 
d="M430 204h-389v67h389v-67zM430 428h-389v68h389v-68z" />
    <glyph glyph-name="greater" unicode="&#x3e;" horiz-adv-x="338" 
d="M316 348v-4l-201 -190h-93l202 192l-202 192h93z" />
    <glyph glyph-name="question" unicode="?" horiz-adv-x="473" 
d="M229 748q45 0 82.5 -14.5t64.5 -40.5t42 -62t15 -79t-12.5 -73t-30.5 -53.5t-40 -42t-40 -37.5t-30.5 -40.5t-12.5 -50.5v-61h-73v69q0 35 12 61t30 46.5t39.5 38.5t39.5 38.5t30 45t12 58.5q0 63 -37.5 96t-91.5 33q-57 0 -90 -28.5t-45 -85.5l-72 13q17 79 67.5 124
t140.5 45zM231 92q23 0 37.5 -15.5t14.5 -37.5q0 -23 -14.5 -37.5t-37.5 -14.5t-37.5 14.5t-14.5 37.5q0 22 14.5 37.5t37.5 15.5z" />
    <glyph glyph-name="at" unicode="@" horiz-adv-x="841" 
d="M420 628q85 0 156.5 -28.5t123 -79t80 -120.5t28.5 -154q0 -50 -10.5 -91t-31 -70.5t-50.5 -45.5t-69 -16q-38 0 -61 17t-30 46l-1 5q-20 -26 -56 -47t-93 -21q-42 0 -77.5 16.5t-61 45.5t-39.5 68.5t-14 86.5t14 87t39.5 69t61 45.5t77.5 16.5q57 0 91 -19t54 -44l1 54
h58v-326q0 -44 43 -44q23 0 41 12.5t30 34.5t18 53t6 67q0 70 -24 129.5t-67.5 102.5t-103.5 67.5t-133 24.5q-72 0 -132 -24.5t-103.5 -68.5t-67.5 -104t-24 -131t24 -131t67 -103.5t102.5 -68t130.5 -24.5q69 0 131 24l19 -53q-70 -28 -150 -28q-84 0 -154.5 28.5
t-121.5 79.5t-79.5 121.5t-28.5 154.5t28.5 154.5t80 122t122.5 80.5t156 29zM419 402q-31 0 -57 -12t-45 -33t-29.5 -51t-10.5 -66t10.5 -65.5t29.5 -51t45 -33t57 -11.5q48 0 77.5 20.5t51.5 50.5v180q-11 14 -23.5 27t-28 23t-34.5 16t-43 6z" />
    <glyph glyph-name="A" unicode="A" horiz-adv-x="684" 
d="M195 240h294l-147 339zM673 0h-81l-74 172h-352l-74 -172h-81l329 748h4z" />
    <glyph glyph-name="B" unicode="B" horiz-adv-x="656" 
d="M334 735q114 0 170.5 -52t56.5 -139q0 -32 -8.5 -58t-22 -45.5t-30.5 -33t-34 -20.5q33 -8 61.5 -22t49.5 -36.5t33.5 -53.5t12.5 -73q0 -48 -17.5 -85.5t-49 -63.5t-75.5 -39.5t-98 -13.5h-296v735h247zM161 341v-271h215q80 0 125.5 34t45.5 101q0 66 -45.5 101
t-139.5 35h-201zM161 665v-256h177q72 0 110 36t38 92q0 60 -39.5 94t-120.5 34h-165z" />
    <glyph glyph-name="C" unicode="C" horiz-adv-x="679" 
d="M401 748q81 0 143.5 -27t113.5 -78l-49 -55q-38 40 -90.5 64.5t-117.5 24.5q-64 0 -117.5 -23.5t-91.5 -64.5t-59.5 -98t-21.5 -124t21.5 -123.5t59.5 -98t91.5 -64.5t117.5 -23q67 0 121.5 26t92.5 69l48 -57q-101 -109 -262 -109q-80 0 -147.5 28.5t-116 79.5
t-75.5 120.5t-27 151.5t27 152t75.5 121t116 79.5t147.5 28.5z" />
    <glyph glyph-name="D" unicode="D" horiz-adv-x="729" 
d="M303 735q92 0 164.5 -24.5t123 -72t77 -115.5t26.5 -155t-26.5 -155.5t-76.5 -115.5t-122.5 -72t-165.5 -25h-216v735h216zM162 664v-593h139q153 0 235 77.5t82 219.5q0 141 -82.5 218.5t-234.5 77.5h-139z" />
    <glyph glyph-name="E" unicode="E" horiz-adv-x="569" 
d="M531 664h-369v-257h326v-69h-326v-267h377v-71h-452v735h444v-71z" />
    <glyph glyph-name="F" unicode="F" horiz-adv-x="531" 
d="M516 664h-354v-267h302v-69h-302v-328h-75v735h429v-71z" />
    <glyph glyph-name="G" unicode="G" horiz-adv-x="735" 
d="M401 748q81 0 143.5 -27t113.5 -78l-49 -55q-38 40 -90.5 64.5t-117.5 24.5q-64 0 -117.5 -23.5t-91.5 -64.5t-59.5 -98t-21.5 -124t22 -123.5t61.5 -98t95 -64.5t121.5 -23q57 0 104.5 15.5t84.5 44.5v188h-202v67h278v-293q-51 -45 -117.5 -69t-147.5 -24
q-83 0 -152 28.5t-118.5 79.5t-77.5 120.5t-28 151.5t27 152t75.5 121t116 79.5t147.5 28.5z" />
    <glyph glyph-name="H" unicode="H" horiz-adv-x="724" 
d="M638 0h-76v341h-400v-341h-75v735h75v-324h400v324h76v-735z" />
    <glyph glyph-name="I" unicode="I" horiz-adv-x="249" 
d="M162 0h-75v735h75v-735z" />
    <glyph glyph-name="J" unicode="J" horiz-adv-x="526" 
d="M450 205q0 -51 -15.5 -91t-43.5 -68.5t-67 -43.5t-87 -15q-44 0 -83 15t-68.5 44t-46.5 71.5t-17 97.5h74q0 -75 38 -116t101 -41q65 0 102 39t37 111v527h76v-530z" />
    <glyph glyph-name="K" unicode="K" horiz-adv-x="646" 
d="M374 381l262 -381h-91l-214 311l-184 -311h-60v735h75v-582l331 582h89z" />
    <glyph glyph-name="L" unicode="L" horiz-adv-x="543" 
d="M162 69h369v-69h-444v735h75v-666z" />
    <glyph glyph-name="M" unicode="M" horiz-adv-x="865" 
d="M778 0h-76v486l-266 -490h-7l-267 490v-486h-75v748h4l341 -613l342 613h4v-748z" />
    <glyph glyph-name="N" unicode="N" horiz-adv-x="725" 
d="M639 -13h-4l-473 569v-556h-75v748h4l472 -568v555h76v-748z" />
    <glyph glyph-name="O" unicode="O" horiz-adv-x="802" 
d="M401 748q79 0 146.5 -28.5t116.5 -79.5t76.5 -121t27.5 -152q0 -83 -27.5 -152.5t-76.5 -120t-116.5 -79t-146.5 -28.5q-80 0 -147 28.5t-116 79t-76 120t-27 152.5q0 82 27 152t76 121t116 79.5t147 28.5zM401 677q-63 0 -116.5 -23.5t-92 -64.5t-60 -98t-21.5 -124
t21.5 -123.5t60 -98t92 -64.5t116.5 -23t116.5 23t92 64.5t60 98t21.5 123.5t-21.5 124t-60 98t-92 64.5t-116.5 23.5z" />
    <glyph glyph-name="P" unicode="P" horiz-adv-x="601" 
d="M322 735q55 0 101.5 -15t80.5 -43.5t53 -71t19 -97.5t-19 -97.5t-52.5 -71t-80.5 -43.5t-102 -15h-160v-281h-75v735h235zM162 667v-318h154q84 0 133.5 40.5t49.5 118.5t-50 118.5t-133 40.5h-154z" />
    <glyph glyph-name="Q" unicode="Q" horiz-adv-x="802" 
d="M401 748q79 0 146.5 -28.5t116.5 -79.5t76.5 -121t27.5 -152q0 -93 -34.5 -168.5t-94.5 -126.5l149 -173h-94l-114 132q-39 -21 -84 -32.5t-95 -11.5q-80 0 -147 28.5t-116 79t-76 120t-27 152.5q0 82 27 152t76 121t116 79.5t147 28.5zM401 677q-63 0 -116.5 -23.5
t-92 -64.5t-60 -98t-21.5 -124t21.5 -123.5t60 -98t92 -64.5t116.5 -23q72 0 131 30l-120 141l53 46l126 -148q48 42 74 103.5t26 136.5q0 67 -21.5 124t-60 98t-92 64.5t-116.5 23.5z" />
    <glyph glyph-name="R" unicode="R" horiz-adv-x="615" 
d="M304 735q56 0 103.5 -14.5t82 -43t54 -70t19.5 -95.5q0 -82 -42.5 -135t-114.5 -74l191 -303h-90l-182 289h-165v-289h-76v735h220zM160 667v-310h139q86 0 136.5 39t50.5 116t-51 116t-136 39h-139z" />
    <glyph glyph-name="S" unicode="S" horiz-adv-x="576" 
d="M279 748q72 0 129.5 -22t99.5 -56l-40 -62q-37 30 -85 49.5t-105 19.5q-33 0 -61.5 -8t-49 -24t-32.5 -41.5t-12 -59.5q0 -29 9.5 -49.5t31 -35.5t56 -26t83.5 -22q65 -14 111 -32.5t75 -43.5t42.5 -57.5t13.5 -74.5q0 -48 -17.5 -88t-50.5 -68.5t-80 -44t-105 -15.5
q-81 0 -145.5 24t-115.5 68l44 63q40 -39 98.5 -61.5t120.5 -22.5q37 0 69.5 9t56 26.5t37 43.5t13.5 61q0 56 -45 87.5t-143 52.5q-65 14 -110 32t-72.5 42.5t-40 56t-12.5 73.5q0 48 16.5 86t47 65t73.5 41t95 14z" />
    <glyph glyph-name="T" unicode="T" horiz-adv-x="642" 
d="M626 666h-267v-666h-76v666h-267v69h610v-69z" />
    <glyph glyph-name="U" unicode="U" horiz-adv-x="687" 
d="M609 256q0 -62 -17 -111.5t-50.5 -84.5t-83 -54t-114.5 -19q-66 0 -116 19t-83 54t-50 84.5t-17 111.5v479h75v-475q0 -93 47.5 -147.5t143.5 -54.5q94 0 141.5 54.5t47.5 147.5v475h76v-479z" />
    <glyph glyph-name="V" unicode="V" horiz-adv-x="713" 
d="M359 -12h-4l-343 747h82l263 -580l262 580h82z" />
    <glyph glyph-name="W" unicode="W" horiz-adv-x="986" 
d="M693 -12h-4l-196 542l-195 -542h-4l-282 747h84l199 -545l196 545h4l196 -545l200 545h84z" />
    <glyph glyph-name="X" unicode="X" horiz-adv-x="656" 
d="M380 374l261 -374h-89l-224 317l-224 -317h-89l261 374l-250 361h89l213 -303l213 303h89z" />
    <glyph glyph-name="Y" unicode="Y" horiz-adv-x="641" 
d="M358 316v-316h-76v315l-274 419h89l223 -342l223 342h89z" />
    <glyph glyph-name="Z" unicode="Z" horiz-adv-x="573" 
d="M533 731l-384 -661h396v-70h-517v4l386 661h-369v70h488v-4z" />
    <glyph glyph-name="bracketleft" unicode="[" horiz-adv-x="295" 
d="M270 638h-144v-698h144v-61h-215v820h215v-61z" />
    <glyph glyph-name="backslash" unicode="\" horiz-adv-x="449" 
d="M444 0h-75l-364 734h74z" />
    <glyph glyph-name="bracketright" unicode="]" horiz-adv-x="302" 
d="M247 -121h-222v61h151v698h-151v61h222v-820z" />
    <glyph glyph-name="asciicircum" unicode="^" horiz-adv-x="536" 
d="M514 462h-69l-177 214l-176 -214h-70l246 298z" />
    <glyph glyph-name="underscore" unicode="_" horiz-adv-x="803" 
d="M761 -67h-719v67h719v-67z" />
    <glyph glyph-name="grave" unicode="`" horiz-adv-x="275" 
d="M260 578h-78l-153 123h91z" />
    <glyph glyph-name="a" unicode="a" 
d="M264 510q65 0 106 -23.5t64 -52.5l2 66h67v-500h-67l-2 67q-11 -15 -27 -28.5t-37 -24.5t-47.5 -17.5t-58.5 -6.5q-51 0 -94 19.5t-73.5 54t-47.5 82t-17 104.5q0 56 17 104t47.5 82.5t73.5 54t94 19.5zM275 444q-37 0 -68.5 -14.5t-54 -40t-35 -61t-12.5 -78.5t12.5 -79
t35 -61.5t54 -40t68.5 -14.5q57 0 93.5 25.5t62.5 65.5v208q-26 39 -62.5 64.5t-93.5 25.5z" />
    <glyph glyph-name="b" unicode="b" 
d="M155 438q23 28 63 50t104 22q51 0 93.5 -19.5t73.5 -54t48 -82.5t17 -104q0 -57 -17 -104.5t-48 -82t-73.5 -54t-93.5 -19.5q-65 0 -107 24t-64 53l-2 -67h-67v760h73v-322zM310 444q-57 0 -93 -25.5t-62 -64.5v-208q26 -40 62 -65.5t93 -25.5q37 0 68.5 14.5t54 40
t35 61.5t12.5 79t-12.5 78.5t-35 61t-54 40t-68.5 14.5z" />
    <glyph glyph-name="c" unicode="c" horiz-adv-x="500" 
d="M280 510q66 0 114.5 -28t81.5 -78l-54 -42q-20 32 -54.5 57.5t-87.5 25.5q-43 0 -76 -14.5t-55 -41t-33 -62t-11 -77.5t11.5 -77.5t34 -62t55.5 -41t76 -14.5q52 0 88 25.5t56 57.5l54 -42q-33 -50 -82.5 -78t-115.5 -28q-59 0 -105 19.5t-78.5 54t-49.5 82.5t-17 104
t17 104t48.5 82.5t77.5 54t105 19.5z" />
    <glyph glyph-name="d" unicode="d" 
d="M503 0h-67l-2 67q-11 -15 -27 -28.5t-37 -24.5t-47.5 -17.5t-58.5 -6.5q-51 0 -94 19.5t-73.5 54t-47.5 82t-17 104.5q0 56 17 104t47.5 82.5t73.5 54t94 19.5q63 0 103.5 -22t63.5 -50v322h72v-760zM275 444q-37 0 -68.5 -14.5t-54 -40t-35 -61t-12.5 -78.5t12.5 -79
t35 -61.5t54 -40t68.5 -14.5q57 0 93.5 25.5t62.5 65.5v208q-26 39 -62.5 64.5t-93.5 25.5z" />
    <glyph glyph-name="e" unicode="e" horiz-adv-x="526" 
d="M268 510q55 0 97 -20t70.5 -54.5t43 -81.5t14.5 -100v-30h-388q2 -80 47 -125.5t128 -45.5q56 0 93.5 21.5t57.5 49.5l51 -43q-35 -44 -85 -67.5t-117 -23.5q-59 0 -105 19.5t-77.5 54t-48.5 82t-17 103.5t17 104t48.5 83t74.5 54.5t96 19.5zM268 446q-71 0 -115 -44.5
t-48 -117.5h316q-2 72 -42 117t-111 45z" />
    <glyph glyph-name="f" unicode="f" horiz-adv-x="343" 
d="M268 760q33 0 59.5 -10t46.5 -27l-31 -57q-14 14 -31 21.5t-41 7.5q-42 0 -65 -29.5t-23 -74.5v-91h140v-64h-140v-436h-73v436h-91v64h91v88q0 37 11 68.5t31.5 54.5t49.5 36t66 13z" />
    <glyph glyph-name="g" unicode="g" horiz-adv-x="586" 
d="M264 510q65 0 106 -23.5t64 -52.5l2 66h67v-491q0 -58 -17.5 -104t-50 -78.5t-78.5 -49.5t-102 -17q-74 0 -128.5 28t-92.5 75l48 47q32 -38 74 -61.5t98 -23.5q40 0 73 13t56 36.5t35.5 57t12.5 75.5v55q-23 -28 -63.5 -50t-103.5 -22q-51 0 -94 19.5t-73.5 54t-47.5 82
t-17 104.5q0 56 17 104t47.5 82.5t73.5 54t94 19.5zM275 444q-37 0 -68.5 -14.5t-54 -40t-35 -61t-12.5 -78.5t12.5 -79t35 -61.5t54 -40t68.5 -14.5q57 0 93.5 25.5t62.5 65.5v208q-26 39 -62.5 64.5t-93.5 25.5z" />
    <glyph glyph-name="h" unicode="h" horiz-adv-x="576" 
d="M155 436q26 29 64.5 51.5t98.5 22.5q45 0 80.5 -15.5t59.5 -43t37 -66.5t13 -86v-299h-73v295q0 65 -36 105t-96 40q-51 0 -85 -24.5t-63 -62.5v-353h-73v760h73v-324z" />
    <glyph glyph-name="i" unicode="i" horiz-adv-x="238" 
d="M155 0h-73v500h73v-500zM119 715q23 0 38 -15t15 -38t-15 -37.5t-38 -14.5t-37.5 14.5t-14.5 37.5t14.5 38t37.5 15z" />
    <glyph glyph-name="j" unicode="j" horiz-adv-x="238" 
d="M155 -72q0 -36 -12.5 -67t-35 -53.5t-53.5 -35t-68 -12.5q-45 0 -79 15.5t-60 41.5l48 49q16 -17 38 -29t51 -12q44 0 71 27.5t27 70.5v577h73v-572zM119 715q23 0 38 -15t15 -38t-15 -37.5t-38 -14.5t-37.5 14.5t-14.5 37.5t14.5 38t37.5 15z" />
    <glyph glyph-name="k" unicode="k" horiz-adv-x="522" 
d="M155 134l241 366h86l-153 -225l184 -275h-86l-143 214l-142 -214h-60v760h73v-626z" />
    <glyph glyph-name="l" unicode="l" horiz-adv-x="238" 
d="M155 0h-73v760h73v-760z" />
    <glyph glyph-name="m" unicode="m" horiz-adv-x="909" 
d="M315 510q57 0 96.5 -26.5t61.5 -71.5q29 42 75 70t110 28q43 0 76.5 -15.5t57 -43t36 -66.5t12.5 -86v-299h-73v295q0 65 -34.5 105t-91.5 40q-48 0 -83.5 -25t-64.5 -66q4 -20 4 -45v-304h-72v295q0 65 -34.5 105t-91.5 40q-48 0 -81.5 -24t-62.5 -62v-354h-73v500h67
l2 -66q23 28 64 52t100 24z" />
    <glyph glyph-name="n" unicode="n" horiz-adv-x="576" 
d="M318 510q45 0 80.5 -15.5t59.5 -43t37 -66.5t13 -86v-299h-73v295q0 65 -36 105t-96 40q-51 0 -85 -24.5t-63 -62.5v-353h-73v500h67l2 -67q12 14 28 27.5t37 24.5t46.5 18t55.5 7z" />
    <glyph glyph-name="o" unicode="o" horiz-adv-x="568" 
d="M284 510q55 0 101 -19.5t80 -54.5t53 -83t19 -104t-19 -103.5t-53 -82t-80 -54t-101 -19.5t-101.5 19.5t-80 54t-52 82t-18.5 103.5t18.5 104t52 83t80 54.5t101.5 19.5zM284 444q-39 0 -72 -14.5t-56.5 -41t-37 -62t-13.5 -77.5t13.5 -77.5t37 -61.5t56.5 -40.5
t72 -14.5t72 14.5t56.5 40.5t37 61.5t13.5 77.5t-13.5 77.5t-37 62t-56.5 41t-72 14.5z" />
    <glyph glyph-name="p" unicode="p" 
d="M322 510q51 0 93.5 -19.5t73.5 -54t48 -82.5t17 -104q0 -57 -17 -104.5t-48 -82t-73.5 -54t-93.5 -19.5q-64 0 -104 22t-63 49v-291h-73v730h67l2 -67q22 29 64 53t107 24zM310 444q-57 0 -93 -25.5t-62 -64.5v-208q26 -40 62 -65.5t93 -25.5q37 0 68.5 14.5t54 40
t35 61.5t12.5 79t-12.5 79t-35 61.5t-54 39.5t-68.5 14z" />
    <glyph glyph-name="q" unicode="q" 
d="M264 510q32 0 58.5 -6.5t47.5 -17.5t37 -24.5t27 -28.5l2 67h67v-730h-72v291q-23 -27 -63.5 -49t-103.5 -22q-51 0 -94 19.5t-73.5 54t-47.5 82t-17 104.5q0 56 17 104t47.5 82.5t73.5 54t94 19.5zM275 444q-37 0 -68.5 -14t-54 -39.5t-35 -61.5t-12.5 -79t12.5 -79
t35 -61.5t54 -40t68.5 -14.5q57 0 93.5 25.5t62.5 65.5v208q-26 39 -62.5 64.5t-93.5 25.5z" />
    <glyph glyph-name="r" unicode="r" horiz-adv-x="316" 
d="M303 437h-7q-48 0 -81 -24t-60 -65v-348h-73v500h67l3 -71q19 30 56.5 55.5t94.5 25.5v-73z" />
    <glyph glyph-name="s" unicode="s" horiz-adv-x="449" 
d="M229 510q50 0 91 -15.5t70 -39.5l-32 -56q-25 19 -55.5 32t-72.5 13q-48 0 -77 -17.5t-29 -57.5q0 -18 6.5 -30.5t21 -21.5t37 -16t54.5 -14q88 -21 128.5 -55t40.5 -91q0 -69 -51.5 -110t-138.5 -41q-57 0 -104.5 16t-81.5 44l34 59q29 -25 67.5 -39.5t84.5 -14.5
q51 0 84 20t33 62q0 36 -29 54t-93 33q-87 19 -126 51t-39 90q0 69 48 107t129 38z" />
    <glyph glyph-name="t" unicode="t" horiz-adv-x="385" 
d="M187 500h165v-64h-165v-278q0 -50 26.5 -75.5t68.5 -25.5q26 0 45 4.5t30 11.5l23 -57q-17 -11 -42.5 -18.5t-60.5 -7.5q-74 0 -118 42t-44 125v279h-102v64h102v170h72v-170z" />
    <glyph glyph-name="u" unicode="u" horiz-adv-x="566" 
d="M484 0h-67l-2 66q-12 -14 -28 -28t-36.5 -24.5t-46 -17t-57.5 -6.5q-42 0 -75.5 15t-56 42.5t-34.5 65.5t-12 85v302h73v-299q0 -63 32.5 -102.5t88.5 -39.5q53 0 86.5 24.5t62.5 62.5v354h72v-500z" />
    <glyph glyph-name="v" unicode="v" horiz-adv-x="524" 
d="M264 -10h-4l-248 510h81l169 -357l170 357h80z" />
    <glyph glyph-name="w" unicode="w" horiz-adv-x="758" 
d="M533 -10h-4l-150 349l-150 -349h-4l-213 510h81l138 -344l146 344h4l146 -344l139 344h80z" />
    <glyph glyph-name="x" unicode="x" horiz-adv-x="483" 
d="M289 254l176 -254h-86l-139 200l-138 -200h-86l176 254l-169 246h86l131 -193l132 193h86z" />
    <glyph glyph-name="y" unicode="y" horiz-adv-x="538" 
d="M166 -230h-82l146 288l-211 442h80l170 -360l170 360h80z" />
    <glyph glyph-name="z" unicode="z" horiz-adv-x="440" 
d="M415 496l-275 -433h275v-63h-391v4l273 432h-258v64h376v-4z" />
    <glyph glyph-name="braceleft" unicode="{" horiz-adv-x="332" 
d="M307 638q-27 0 -51 -7.5t-41.5 -24.5t-25.5 -45t-2 -69l10 -78q10 -53 -7.5 -82t-51.5 -43q34 -14 52 -43.5t7 -81.5l-10 -78q-6 -41 2 -69t25.5 -45t41.5 -24.5t51 -7.5v-61q-47 0 -87 13t-66.5 40t-37 68.5t1.5 98.5l10 76q5 24 -0.5 42.5t-19 32t-34 22.5t-45.5 15v4
q25 6 45.5 15t34 22.5t19 32t0.5 42.5l-10 76q-12 57 -1.5 98.5t37 68.5t66.5 40t87 13v-61z" />
    <glyph glyph-name="bar" unicode="|" horiz-adv-x="228" 
d="M149 -121h-70v820h70v-820z" />
    <glyph glyph-name="braceright" unicode="}" horiz-adv-x="332" 
d="M25 699q47 0 87 -13t66.5 -40t37 -68.5t-1.5 -98.5l-10 -76q-5 -24 0.5 -42.5t19 -32t34 -22.5t45.5 -15v-4q-25 -6 -45.5 -15t-34 -22.5t-19 -32t-0.5 -42.5l10 -76q12 -57 1.5 -98.5t-37 -68.5t-66.5 -40t-87 -13v61q27 0 51 7.5t41 24.5t25.5 45t2.5 69l-10 78
q-11 52 7 81.5t52 43.5q-17 7 -30 17.5t-21.5 25.5t-10.5 35.5t3 46.5l10 78q6 41 -2.5 69t-25.5 45t-41 24.5t-51 7.5v61v0z" />
    <glyph glyph-name="asciitilde" unicode="~" horiz-adv-x="580" 
d="M184 432q40 0 66 -14t48 -31.5t44 -31.5t54 -14q42 0 68.5 24.5t40.5 59.5l46 -33q-21 -53 -60 -85.5t-95 -32.5q-41 0 -66.5 14t-46.5 31t-43.5 31t-55.5 14q-42 0 -68.5 -24t-40.5 -59l-46 33q21 53 59.5 85.5t95.5 32.5z" />
    <glyph glyph-name="exclamdown" unicode="&#xa1;" horiz-adv-x="246" 
d="M87 301h72v-541h-72v541zM123 403q-23 0 -38 15.5t-15 37.5q0 23 15 37.5t38 14.5q22 0 37 -14.5t15 -37.5q0 -22 -15 -37.5t-37 -15.5z" />
    <glyph glyph-name="cent" unicode="&#xa2;" horiz-adv-x="505" 
d="M312 508q54 -7 94.5 -34t69.5 -70l-54 -42q-20 32 -54.5 57.5t-87.5 25.5q-43 0 -76 -14.5t-55 -41t-33 -62t-11 -77.5t11.5 -77.5t34 -62t55.5 -41t76 -14.5q52 0 88 25.5t56 57.5l54 -42q-29 -44 -71.5 -71t-96.5 -33v-136h-63v136q-51 5 -91.5 26.5t-68 55.5t-42.5 79
t-15 97t14.5 97.5t42.5 79.5t68.5 55t91.5 26v129h63v-129z" />
    <glyph glyph-name="sterling" unicode="&#xa3;" horiz-adv-x="569" 
d="M279 748q40 0 72 -12t57 -31.5t42 -45t26 -51.5l-70 -22q-14 42 -46.5 68.5t-82.5 26.5q-68 0 -100.5 -44t-32.5 -116q0 -30 5 -60.5t12 -61.5h191v-61h-177q10 -40 10 -78q0 -58 -16.5 -104.5t-41.5 -88.5h209q60 0 88.5 28t28.5 94h72q0 -92 -43 -140.5t-134 -48.5
h-332v4q21 36 41.5 72t34 75.5t17.5 83.5t-7 97l-1 6h-79v61h65q-8 29 -12 57.5t-4 58.5q0 112 55.5 172.5t152.5 60.5z" />
    <glyph glyph-name="currency" unicode="&#xa4;" horiz-adv-x="645" 
d="M602 500l-123 -121q17 -24 26 -53.5t9 -62.5t-9 -62.5t-26 -52.5l123 -122l-48 -47l-123 122q-45 -34 -109 -34q-63 0 -109 34l-122 -122l-48 47l123 122q-17 23 -26.5 52.5t-9.5 62.5t9.5 62.5t26.5 53.5l-123 121l48 48l122 -123q47 36 109 36q63 0 110 -36l122 123z
M322 404q-28 0 -51.5 -11t-41 -29.5t-27 -44.5t-9.5 -56t9.5 -55t27 -44t41 -29.5t51.5 -10.5t52 10.5t41 29.5t27 44t10 55t-10 56t-27 44.5t-41 29.5t-52 11z" />
    <glyph glyph-name="yen" unicode="&#xa5;" horiz-adv-x="639" 
d="M387 364h135v-57h-164v-89h164v-57h-164v-161h-76v161h-164v57h164v89h-164v57h134l-244 370h89l223 -342l222 342h90z" />
    <glyph glyph-name="brokenbar" unicode="&#xa6;" horiz-adv-x="228" 
d="M149 391h-70v308h70v-308zM149 -121h-70v308h70v-308z" />
    <glyph glyph-name="section" unicode="&#xa7;" horiz-adv-x="414" 
d="M209 436q-48 0 -78.5 -30t-30.5 -78t30.5 -77.5t78.5 -29.5t79 29.5t31 77.5t-31 78t-79 30zM220 748q43 0 78 -14t60 -39l-41 -46q-18 17 -41.5 27.5t-55.5 10.5q-47 0 -76 -25t-29 -66q0 -35 19 -56.5t57 -34.5q20 -6 39.5 -8.5t40.5 -10.5q51 -17 82 -59.5t31 -98.5
q0 -51 -25.5 -89t-67.5 -55q38 -17 58 -45.5t20 -70.5q0 -33 -13.5 -62.5t-38 -51t-58.5 -34t-75 -12.5q-96 0 -154 64l44 46q20 -22 47 -35.5t64 -13.5q51 0 83 27t32 72q0 32 -17.5 51t-52.5 32q-17 5 -32.5 7t-32.5 6q-59 14 -95 57.5t-36 106.5q0 51 25 89t69 55
q-81 38 -81 123q0 32 12 60t34.5 48.5t54.5 32.5t72 12z" />
    <glyph glyph-name="dieresis" unicode="&#xa8;" horiz-adv-x="296" 
d="M67 683q20 0 33.5 -13t13.5 -33t-13.5 -33t-33.5 -13t-32.5 13t-12.5 33t12.5 33t32.5 13zM227 683q20 0 33.5 -13t13.5 -33t-13.5 -33t-33.5 -13t-32.5 13t-12.5 33t12.5 33t32.5 13z" />
    <glyph glyph-name="copyright" unicode="&#xa9;" horiz-adv-x="651" 
d="M334 642q38 0 66.5 -12.5t51.5 -36.5l-32 -36q-16 17 -37.5 26.5t-48.5 9.5q-53 0 -85 -34.5t-32 -89.5q0 -57 32 -90.5t85 -33.5q28 0 50 10t37 27l33 -36q-47 -50 -120 -50q-37 0 -67.5 13t-53 36t-35 54.5t-12.5 69.5q0 37 12.5 68.5t35 55t53 36.5t67.5 13zM326 772
q63 0 116.5 -23t93 -64t61.5 -97t22 -121q0 -66 -22 -122t-61.5 -96.5t-93 -63t-116.5 -22.5q-64 0 -118 22.5t-93 63t-60.5 96.5t-21.5 122q0 65 21.5 121t60.5 97t93 64t118 23zM326 724q-53 0 -97.5 -19.5t-76.5 -54t-50 -81.5t-18 -102t18 -102t50 -81t76.5 -53.5
t97.5 -19.5q52 0 96 19.5t76.5 53.5t50.5 81t18 102t-18 102t-50.5 81.5t-76.5 54t-96 19.5z" />
    <glyph glyph-name="ordfeminine" unicode="&#xaa;" horiz-adv-x="425" 
d="M187 746q47 0 75 -16.5t44 -35.5l2 45h56v-351h-56l-2 45q-16 -19 -44 -35.5t-75 -16.5q-35 0 -64 13.5t-50 38t-33 58t-12 72.5q0 40 12 73.5t33 58t50 38t64 13.5zM201 692q-50 0 -81 -36t-31 -93t31 -92.5t81 -35.5q37 0 60.5 16.5t40.5 40.5v143q-17 24 -40.5 40.5
t-60.5 16.5z" />
    <glyph glyph-name="guillemotleft" unicode="&#xab;" horiz-adv-x="463" 
d="M87 256l144 -202h-71l-145 200v4l145 200h71zM304 256l144 -202h-71l-145 200v4l145 200h71z" />
    <glyph glyph-name="logicalnot" unicode="&#xac;" horiz-adv-x="564" 
d="M527 161h-53v211h-437v52h490v-263z" />
    <glyph glyph-name="registered" unicode="&#xae;" horiz-adv-x="651" 
d="M326 772q63 0 116.5 -23t93 -64t61.5 -97t22 -121q0 -66 -22 -122t-61.5 -96.5t-93 -63t-116.5 -22.5q-64 0 -118 22.5t-93 63t-60.5 96.5t-21.5 122q0 65 21.5 121t60.5 97t93 64t118 23zM326 724q-53 0 -97.5 -19.5t-76.5 -54t-50 -81.5t-18 -102t18 -102t50 -81
t76.5 -53.5t97.5 -19.5q52 0 96 19.5t76.5 53.5t50.5 81t18 102t-18 102t-50.5 81.5t-76.5 54t-96 19.5zM326 638q25 0 47.5 -7t39 -20.5t26 -33t9.5 -45.5q0 -38 -19 -63t-49 -36l84 -134h-59l-78 125h-62v-125h-51v339h112zM265 591v-120h57q35 0 55 14.5t20 45.5
q0 30 -20 45t-55 15h-57z" />
    <glyph glyph-name="macron" unicode="&#xaf;" horiz-adv-x="296" 
d="M274 599h-252v53h252v-53z" />
    <glyph glyph-name="degree" unicode="&#xb0;" horiz-adv-x="332" 
d="M167 747q29 0 53.5 -10t42 -28t27.5 -42.5t10 -52.5q0 -29 -10 -53t-27.5 -41.5t-42 -27.5t-53.5 -10t-54 10t-43 27.5t-28 41.5t-10 53q0 28 10 52.5t28 42.5t43 28t54 10zM167 697q-36 0 -59 -23.5t-23 -59.5q0 -35 23 -58.5t59 -23.5q35 0 58 23.5t23 58.5
q0 36 -23 59.5t-58 23.5z" />
    <glyph glyph-name="plusminus" unicode="&#xb1;" horiz-adv-x="472" 
d="M269 480h161v-68h-161v-161h-67v161h-161v68h161v160h67v-160zM430 103h-389v67h389v-67z" />
    <glyph glyph-name="uni00B2" unicode="&#xb2;" horiz-adv-x="345" 
d="M176 821q60 0 96.5 -35t36.5 -91q0 -39 -14.5 -68t-41.5 -61l-102 -120h163v-52h-263v4l155 198q24 29 34.5 50.5t10.5 49.5q0 34 -21.5 53.5t-53.5 19.5q-67 0 -80 -69l-52 11q21 110 132 110z" />
    <glyph glyph-name="uni00B3" unicode="&#xb3;" horiz-adv-x="342" 
d="M176 821q57 0 92 -34t35 -86q0 -35 -17 -56.5t-43 -32.5q34 -12 54.5 -37t20.5 -62q0 -57 -37.5 -92t-100.5 -35q-59 0 -92.5 26t-49.5 76l50 14q12 -29 32.5 -46t59.5 -17q36 0 58.5 21t22.5 56q0 31 -24.5 52.5t-63.5 21.5h-48v45h50q28 1 50 17t22 50q0 30 -20.5 48.5
t-52.5 18.5q-58 0 -80 -58l-49 22q14 40 45.5 64t85.5 24z" />
    <glyph glyph-name="acute" unicode="&#xb4;" horiz-adv-x="275" 
d="M93 578h-78l140 123h91z" />
    <glyph glyph-name="uni00B5" unicode="&#xb5;" horiz-adv-x="580" 
d="M497 0h-67l-2 66q-24 -29 -63.5 -52.5t-98.5 -23.5q-40 0 -67 12.5t-44 32.5v-265h-73v730h73v-299q0 -63 32.5 -102.5t88.5 -39.5q53 0 86.5 24.5t62.5 62.5v354h72v-500z" />
    <glyph glyph-name="paragraph" unicode="&#xb6;" horiz-adv-x="672" 
d="M633 675h-92v-785h-64v785h-113v-785h-63v417h-4q-56 0 -105.5 12.5t-86.5 38t-58.5 65t-21.5 93.5q0 55 20.5 96t57 68.5t86.5 41t109 13.5h335v-60z" />
    <glyph glyph-name="periodcentered" unicode="&#xb7;" horiz-adv-x="171" 
d="M85 310q23 0 38.5 -15.5t15.5 -38.5t-15.5 -38t-38.5 -15t-38 15t-15 38t15 38.5t38 15.5z" />
    <glyph glyph-name="cedilla" unicode="&#xb8;" horiz-adv-x="243" 
d="M142 8l-11 -69q42 -3 67.5 -26t25.5 -65q0 -47 -29.5 -72.5t-77.5 -25.5q-29 0 -53.5 9.5t-41.5 29.5l31 36q24 -29 62 -29q23 0 39.5 12t16.5 38q0 40 -45 48q-14 2 -25 1t-22 -4l-3 4l20 116z" />
    <glyph glyph-name="uni00B9" unicode="&#xb9;" horiz-adv-x="251" 
d="M191 394h-57v331l-79 -53l-26 51l160 98h2v-427z" />
    <glyph glyph-name="ordmasculine" unicode="&#xba;" horiz-adv-x="413" 
d="M207 746q38 0 70.5 -14t56.5 -38.5t37.5 -58t13.5 -72.5t-13.5 -72.5t-37.5 -58t-56.5 -38t-70.5 -13.5q-39 0 -72 13.5t-57 38t-37 58t-13 72.5t13 72.5t37 58t57 38.5t72 14zM207 692q-26 0 -47.5 -10t-37.5 -27t-24.5 -40.5t-8.5 -51.5q0 -56 33 -92t85 -36
q51 0 84 36t33 92q0 28 -9 51.5t-24.5 40.5t-37 27t-46.5 10z" />
    <glyph glyph-name="guillemotright" unicode="&#xbb;" horiz-adv-x="463" 
d="M231 258v-4l-145 -200h-71l144 202l-144 202h71zM448 258v-4l-145 -200h-71l143 202l-143 202h71z" />
    <glyph glyph-name="onequarter" unicode="&#xbc;" horiz-adv-x="710" 
d="M195 0h-69l364 734h69zM191 294h-57v331l-79 -53l-26 51l160 98h2v-427zM629 123h61v-47h-61v-76h-56v76h-209v3l263 349h2v-305zM459 122h115v159z" />
    <glyph glyph-name="onehalf" unicode="&#xbd;" horiz-adv-x="770" 
d="M195 0h-69l364 734h69zM191 294h-57v331l-79 -53l-26 51l160 98h2v-427zM601 427q60 0 96.5 -35t36.5 -91q0 -39 -14.5 -68t-41.5 -61l-102 -120h163v-52h-263v4l155 198q24 29 34.5 50.5t10.5 49.5q0 34 -21.5 53.5t-53.5 19.5q-67 0 -80 -69l-52 11q21 110 132 110z
" />
    <glyph glyph-name="threequarters" unicode="&#xbe;" horiz-adv-x="801" 
d="M286 0h-69l364 734h69zM720 123h61v-47h-61v-76h-56v76h-209v3l263 349h2v-305zM550 122h115v159zM176 721q57 0 92 -34t35 -86q0 -35 -17 -56.5t-43 -32.5q34 -12 54.5 -37t20.5 -62q0 -57 -37.5 -92t-100.5 -35q-59 0 -92.5 26t-49.5 76l50 14q12 -29 32.5 -46
t59.5 -17q36 0 58.5 21t22.5 56q0 31 -24.5 52.5t-63.5 21.5h-48v45h50q28 1 50 17t22 50q0 30 -20.5 48.5t-52.5 18.5q-58 0 -80 -58l-49 22q14 40 45.5 64t85.5 24z" />
    <glyph glyph-name="questiondown" unicode="&#xbf;" horiz-adv-x="473" 
d="M244 -253q-45 0 -82.5 14.5t-64.5 40.5t-42 62t-15 79q0 42 12.5 72.5t30.5 54t40 42t40 37.5t30.5 40.5t12.5 50.5v61h73v-69q0 -35 -12 -61t-30 -46.5t-39.5 -38.5t-39.5 -38.5t-30 -45t-12 -58.5q0 -63 37.5 -96t91.5 -33q57 0 90 28.5t45 85.5l72 -13
q-17 -79 -67.5 -124t-140.5 -45zM242 403q-23 0 -37.5 15.5t-14.5 37.5q0 23 14.5 37.5t37.5 14.5t37.5 -14.5t14.5 -37.5q0 -22 -14.5 -37.5t-37.5 -15.5z" />
    <glyph glyph-name="Agrave" unicode="&#xc0;" horiz-adv-x="684" 
d="M195 240h294l-147 339zM673 0h-81l-74 172h-352l-74 -172h-81l329 748h4zM388 772h-84l-147 113h94z" />
    <glyph glyph-name="Aacute" unicode="&#xc1;" horiz-adv-x="684" 
d="M195 240h294l-147 339zM673 0h-81l-74 172h-352l-74 -172h-81l329 748h4zM371 772h-84l137 113h94z" />
    <glyph glyph-name="Acircumflex" unicode="&#xc2;" horiz-adv-x="684" 
d="M195 240h294l-147 339zM673 0h-81l-74 172h-352l-74 -172h-81l329 748h4zM492 771h-72l-79 73l-80 -73h-71l151 140z" />
    <glyph glyph-name="Atilde" unicode="&#xc3;" horiz-adv-x="684" 
d="M195 240h294l-147 339zM673 0h-81l-74 172h-352l-74 -172h-81l329 748h4zM278 907q29 0 46.5 -13t30 -29t24.5 -29t30 -13q22 0 30.5 22t8.5 55h50q0 -67 -26.5 -98.5t-66.5 -31.5q-30 0 -46.5 13t-28.5 29t-23.5 29t-30.5 13q-23 0 -32 -22t-9 -55h-50q0 69 27 99.5
t66 30.5z" />
    <glyph glyph-name="Adieresis" unicode="&#xc4;" horiz-adv-x="684" 
d="M195 240h294l-147 339zM673 0h-81l-74 172h-352l-74 -172h-81l329 748h4zM261 871q20 0 33.5 -13t13.5 -33t-13.5 -32.5t-33.5 -12.5t-32.5 12.5t-12.5 32.5t12.5 33t32.5 13zM421 871q20 0 33.5 -13t13.5 -33t-13.5 -32.5t-33.5 -12.5t-32.5 12.5t-12.5 32.5t12.5 33
t32.5 13z" />
    <glyph glyph-name="Aring" unicode="&#xc5;" horiz-adv-x="684" 
d="M195 240h294l-147 339zM673 0h-81l-74 172h-352l-74 -172h-81l329 748h4zM342 974q44 0 73 -29t29 -73q0 -45 -29 -73t-73 -28q-45 0 -74 28t-29 73q0 44 29 73t74 29zM342 930q-24 0 -40.5 -17t-16.5 -41q0 -25 16.5 -41t40.5 -16t40.5 16t16.5 41q0 24 -16.5 41
t-40.5 17z" />
    <glyph glyph-name="AE" unicode="&#xc6;" horiz-adv-x="860" 
d="M823 664h-428l108 -259h277v-66h-250l112 -268h189v-71h-242l-73 176h-349l-72 -176h-84l315 735h497v-71zM193 237h298l-149 361z" />
    <glyph glyph-name="Ccedilla" unicode="&#xc7;" horiz-adv-x="679" 
d="M401 748q81 0 143.5 -27t113.5 -78l-49 -55q-38 40 -90.5 64.5t-117.5 24.5q-64 0 -117.5 -23.5t-91.5 -64.5t-59.5 -98t-21.5 -124t21.5 -123.5t59.5 -98t91.5 -64.5t117.5 -23q67 0 121.5 26t92.5 69l48 -57q-101 -109 -262 -109h-4l-7 -48q42 -3 67.5 -26t25.5 -65
q0 -47 -29.5 -72.5t-77.5 -25.5q-29 0 -53.5 9.5t-41.5 29.5l31 36q24 -29 62 -29q23 0 39.5 12t16.5 38q0 40 -45 48q-14 2 -25 1t-22 -4l-3 4l16 95q-70 9 -128 40.5t-100 81t-65 114.5t-23 141q0 82 27 152t75.5 121t116 79.5t147.5 28.5z" />
    <glyph glyph-name="Egrave" unicode="&#xc8;" horiz-adv-x="569" 
d="M531 664h-369v-257h326v-69h-326v-267h377v-71h-452v735h444v-71zM362 772h-84l-147 113h94z" />
    <glyph glyph-name="Eacute" unicode="&#xc9;" horiz-adv-x="569" 
d="M531 664h-369v-257h326v-69h-326v-267h377v-71h-452v735h444v-71zM346 772h-84l137 113h94z" />
    <glyph glyph-name="Ecircumflex" unicode="&#xca;" horiz-adv-x="569" 
d="M531 664h-369v-257h326v-69h-326v-267h377v-71h-452v735h444v-71zM466 771h-72l-79 73l-80 -73h-71l151 140z" />
    <glyph glyph-name="Edieresis" unicode="&#xcb;" horiz-adv-x="569" 
d="M531 664h-369v-257h326v-69h-326v-267h377v-71h-452v735h444v-71zM235 871q20 0 33.5 -13t13.5 -33t-13.5 -32.5t-33.5 -12.5t-32.5 12.5t-12.5 32.5t12.5 33t32.5 13zM395 871q20 0 33.5 -13t13.5 -33t-13.5 -32.5t-33.5 -12.5t-32.5 12.5t-12.5 32.5t12.5 33t32.5 13z
" />
    <glyph glyph-name="Igrave" unicode="&#xcc;" horiz-adv-x="249" 
d="M162 0h-75v735h75v-735zM172 772h-84l-147 113h94z" />
    <glyph glyph-name="Iacute" unicode="&#xcd;" horiz-adv-x="249" 
d="M162 0h-75v735h75v-735zM153 772h-84l137 113h94z" />
    <glyph glyph-name="Icircumflex" unicode="&#xce;" horiz-adv-x="249" 
d="M162 0h-75v735h75v-735zM276 771h-72l-79 73l-80 -73h-71l151 140z" />
    <glyph glyph-name="Idieresis" unicode="&#xcf;" horiz-adv-x="249" 
d="M162 0h-75v735h75v-735zM45 871q20 0 33.5 -13t13.5 -33t-13.5 -32.5t-33.5 -12.5t-32.5 12.5t-12.5 32.5t12.5 33t32.5 13zM205 871q20 0 33.5 -13t13.5 -33t-13.5 -32.5t-33.5 -12.5t-32.5 12.5t-12.5 32.5t12.5 33t32.5 13z" />
    <glyph glyph-name="Eth" unicode="&#xd0;" horiz-adv-x="748" 
d="M321 735q92 0 164.5 -24.5t123 -72t77 -115.5t26.5 -155t-26.5 -155.5t-76.5 -115.5t-122.5 -72t-165.5 -25h-216v350h-89v54h89v331h216zM180 664v-260h121v-54h-121v-279h139q153 0 235 77.5t82 219.5q0 141 -82.5 218.5t-234.5 77.5h-139z" />
    <glyph glyph-name="Ntilde" unicode="&#xd1;" horiz-adv-x="725" 
d="M639 -13h-4l-473 569v-556h-75v748h4l472 -568v555h76v-748zM299 907q29 0 46.5 -13t30 -29t24.5 -29t30 -13q22 0 30.5 22t8.5 55h50q0 -67 -26.5 -98.5t-66.5 -31.5q-30 0 -46.5 13t-28.5 29t-23.5 29t-30.5 13q-23 0 -32 -22t-9 -55h-50q0 69 27 99.5t66 30.5z" />
    <glyph glyph-name="Ograve" unicode="&#xd2;" horiz-adv-x="802" 
d="M401 748q79 0 146.5 -28.5t116.5 -79.5t76.5 -121t27.5 -152q0 -83 -27.5 -152.5t-76.5 -120t-116.5 -79t-146.5 -28.5q-80 0 -147 28.5t-116 79t-76 120t-27 152.5q0 82 27 152t76 121t116 79.5t147 28.5zM401 677q-63 0 -116.5 -23.5t-92 -64.5t-60 -98t-21.5 -124
t21.5 -123.5t60 -98t92 -64.5t116.5 -23t116.5 23t92 64.5t60 98t21.5 123.5t-21.5 124t-60 98t-92 64.5t-116.5 23.5zM447 782h-84l-147 113h94z" />
    <glyph glyph-name="Oacute" unicode="&#xd3;" horiz-adv-x="802" 
d="M401 748q79 0 146.5 -28.5t116.5 -79.5t76.5 -121t27.5 -152q0 -83 -27.5 -152.5t-76.5 -120t-116.5 -79t-146.5 -28.5q-80 0 -147 28.5t-116 79t-76 120t-27 152.5q0 82 27 152t76 121t116 79.5t147 28.5zM401 677q-63 0 -116.5 -23.5t-92 -64.5t-60 -98t-21.5 -124
t21.5 -123.5t60 -98t92 -64.5t116.5 -23t116.5 23t92 64.5t60 98t21.5 123.5t-21.5 124t-60 98t-92 64.5t-116.5 23.5zM431 782h-84l137 113h94z" />
    <glyph glyph-name="Ocircumflex" unicode="&#xd4;" horiz-adv-x="802" 
d="M401 748q79 0 146.5 -28.5t116.5 -79.5t76.5 -121t27.5 -152q0 -83 -27.5 -152.5t-76.5 -120t-116.5 -79t-146.5 -28.5q-80 0 -147 28.5t-116 79t-76 120t-27 152.5q0 82 27 152t76 121t116 79.5t147 28.5zM401 677q-63 0 -116.5 -23.5t-92 -64.5t-60 -98t-21.5 -124
t21.5 -123.5t60 -98t92 -64.5t116.5 -23t116.5 23t92 64.5t60 98t21.5 123.5t-21.5 124t-60 98t-92 64.5t-116.5 23.5zM551 781h-72l-79 73l-80 -73h-71l151 140z" />
    <glyph glyph-name="Otilde" unicode="&#xd5;" horiz-adv-x="802" 
d="M401 748q79 0 146.5 -28.5t116.5 -79.5t76.5 -121t27.5 -152q0 -83 -27.5 -152.5t-76.5 -120t-116.5 -79t-146.5 -28.5q-80 0 -147 28.5t-116 79t-76 120t-27 152.5q0 82 27 152t76 121t116 79.5t147 28.5zM401 677q-63 0 -116.5 -23.5t-92 -64.5t-60 -98t-21.5 -124
t21.5 -123.5t60 -98t92 -64.5t116.5 -23t116.5 23t92 64.5t60 98t21.5 123.5t-21.5 124t-60 98t-92 64.5t-116.5 23.5zM337 917q29 0 46.5 -13t30 -29t24.5 -29t30 -13q22 0 30.5 22t8.5 55h50q0 -67 -26.5 -98.5t-66.5 -31.5q-30 0 -46.5 13t-28.5 29t-23.5 29t-30.5 13
q-23 0 -32 -22t-9 -55h-50q0 69 27 99.5t66 30.5z" />
    <glyph glyph-name="Odieresis" unicode="&#xd6;" horiz-adv-x="802" 
d="M401 748q79 0 146.5 -28.5t116.5 -79.5t76.5 -121t27.5 -152q0 -83 -27.5 -152.5t-76.5 -120t-116.5 -79t-146.5 -28.5q-80 0 -147 28.5t-116 79t-76 120t-27 152.5q0 82 27 152t76 121t116 79.5t147 28.5zM401 677q-63 0 -116.5 -23.5t-92 -64.5t-60 -98t-21.5 -124
t21.5 -123.5t60 -98t92 -64.5t116.5 -23t116.5 23t92 64.5t60 98t21.5 123.5t-21.5 124t-60 98t-92 64.5t-116.5 23.5zM320 881q20 0 33.5 -13t13.5 -33t-13.5 -32.5t-33.5 -12.5t-32.5 12.5t-12.5 32.5t12.5 33t32.5 13zM480 881q20 0 33.5 -13t13.5 -33t-13.5 -32.5
t-33.5 -12.5t-32.5 12.5t-12.5 32.5t12.5 33t32.5 13z" />
    <glyph glyph-name="multiply" unicode="&#xd7;" horiz-adv-x="436" 
d="M388 473l-123 -123l123 -122l-48 -48l-121 122l-123 -122l-48 47l123 123l-123 122l48 48l123 -122l121 122z" />
    <glyph glyph-name="Oslash" unicode="&#xd8;" horiz-adv-x="802" 
d="M401 748q42 0 81 -8.5t74 -24.5l55 100h68l-71 -129q74 -51 117 -133.5t43 -185.5q0 -83 -27.5 -152.5t-76.5 -120t-116.5 -79t-146.5 -28.5q-43 0 -82 8.5t-74 23.5l-54 -99h-69l70 128q-73 50 -115 132.5t-42 186.5q0 82 27 152t76 121t116 79.5t147 28.5zM691 367
q0 81 -31.5 147t-86.5 107l-293 -538q56 -25 121 -25q63 0 116.5 23t92 64.5t60 98t21.5 123.5zM401 677q-63 0 -116.5 -23.5t-92 -64.5t-60 -98t-21.5 -124q0 -81 31 -146.5t85 -106.5l294 537q-27 12 -57 19t-63 7z" />
    <glyph glyph-name="Ugrave" unicode="&#xd9;" horiz-adv-x="687" 
d="M609 256q0 -62 -17 -111.5t-50.5 -84.5t-83 -54t-114.5 -19q-66 0 -116 19t-83 54t-50 84.5t-17 111.5v479h75v-475q0 -93 47.5 -147.5t143.5 -54.5q94 0 141.5 54.5t47.5 147.5v475h76v-479zM390 772h-84l-147 113h94z" />
    <glyph glyph-name="Uacute" unicode="&#xda;" horiz-adv-x="687" 
d="M609 256q0 -62 -17 -111.5t-50.5 -84.5t-83 -54t-114.5 -19q-66 0 -116 19t-83 54t-50 84.5t-17 111.5v479h75v-475q0 -93 47.5 -147.5t143.5 -54.5q94 0 141.5 54.5t47.5 147.5v475h76v-479zM373 772h-84l137 113h94z" />
    <glyph glyph-name="Ucircumflex" unicode="&#xdb;" horiz-adv-x="687" 
d="M609 256q0 -62 -17 -111.5t-50.5 -84.5t-83 -54t-114.5 -19q-66 0 -116 19t-83 54t-50 84.5t-17 111.5v479h75v-475q0 -93 47.5 -147.5t143.5 -54.5q94 0 141.5 54.5t47.5 147.5v475h76v-479zM494 771h-72l-79 73l-80 -73h-71l151 140z" />
    <glyph glyph-name="Udieresis" unicode="&#xdc;" horiz-adv-x="687" 
d="M609 256q0 -62 -17 -111.5t-50.5 -84.5t-83 -54t-114.5 -19q-66 0 -116 19t-83 54t-50 84.5t-17 111.5v479h75v-475q0 -93 47.5 -147.5t143.5 -54.5q94 0 141.5 54.5t47.5 147.5v475h76v-479zM262 871q20 0 33.5 -13t13.5 -33t-13.5 -32.5t-33.5 -12.5t-32.5 12.5
t-12.5 32.5t12.5 33t32.5 13zM422 871q20 0 33.5 -13t13.5 -33t-13.5 -32.5t-33.5 -12.5t-32.5 12.5t-12.5 32.5t12.5 33t32.5 13z" />
    <glyph glyph-name="Yacute" unicode="&#xdd;" horiz-adv-x="641" 
d="M358 316v-316h-76v315l-274 419h89l223 -342l223 342h89zM349 772h-84l137 113h94z" />
    <glyph glyph-name="Thorn" unicode="&#xde;" horiz-adv-x="546" 
d="M162 598h131q44 0 84.5 -13.5t71.5 -39t49.5 -62.5t18.5 -85t-18.5 -85.5t-49.5 -63t-71.5 -38.5t-84.5 -13h-131v-198h-75v735h75v-137zM162 530v-264h125q31 0 58.5 8.5t48.5 25.5t33.5 41.5t12.5 56.5t-12.5 56.5t-33.5 41.5t-48.5 25.5t-58.5 8.5h-125z" />
    <glyph glyph-name="germandbls" unicode="&#xdf;" horiz-adv-x="642" 
d="M308 748q46 0 83.5 -15t64.5 -41t42 -62.5t15 -78.5q0 -60 -29 -96.5t-72 -53.5q25 -6 51.5 -20.5t48.5 -38t36 -57.5t14 -80q0 -48 -15.5 -88.5t-44.5 -69t-71 -44.5t-94 -16q-33 0 -59.5 6.5t-49.5 19.5l19 66q19 -11 37.5 -17.5t50.5 -6.5t59.5 10t47.5 29t31.5 47.5
t11.5 64.5q0 55 -28.5 91.5t-80.5 51.5q-27 8 -46.5 11t-45.5 3v56q25 0 41.5 4.5t36.5 12.5q30 14 52.5 40t22.5 70q0 31 -10.5 56.5t-28.5 42.5t-42 26.5t-50 9.5q-63 0 -101 -35.5t-38 -111.5v-534h-74v531q0 52 16.5 92.5t45.5 68.5t68.5 42t84.5 14z" />
    <glyph glyph-name="agrave" unicode="&#xe0;" 
d="M265 510q65 0 106 -23.5t64 -52.5l2 66h67v-500h-67l-2 67q-11 -15 -27 -28.5t-37 -24.5t-47.5 -17.5t-58.5 -6.5q-51 0 -94 19.5t-73.5 54t-47.5 82t-17 104.5q0 56 17 104t47.5 82.5t73.5 54t94 19.5zM276 444q-37 0 -68.5 -14.5t-54 -40t-35 -61t-12.5 -78.5t12.5 -79
t35 -61.5t54 -40t68.5 -14.5q57 0 93.5 25.5t62.5 65.5v208q-26 39 -62.5 64.5t-93.5 25.5zM338 578h-78l-153 123h91z" />
    <glyph glyph-name="aacute" unicode="&#xe1;" 
d="M265 510q65 0 106 -23.5t64 -52.5l2 66h67v-500h-67l-2 67q-11 -15 -27 -28.5t-37 -24.5t-47.5 -17.5t-58.5 -6.5q-51 0 -94 19.5t-73.5 54t-47.5 82t-17 104.5q0 56 17 104t47.5 82.5t73.5 54t94 19.5zM276 444q-37 0 -68.5 -14.5t-54 -40t-35 -61t-12.5 -78.5t12.5 -79
t35 -61.5t54 -40t68.5 -14.5q57 0 93.5 25.5t62.5 65.5v208q-26 39 -62.5 64.5t-93.5 25.5zM320 578h-78l140 123h91z" />
    <glyph glyph-name="acircumflex" unicode="&#xe2;" 
d="M265 510q65 0 106 -23.5t64 -52.5l2 66h67v-500h-67l-2 67q-11 -15 -27 -28.5t-37 -24.5t-47.5 -17.5t-58.5 -6.5q-51 0 -94 19.5t-73.5 54t-47.5 82t-17 104.5q0 56 17 104t47.5 82.5t73.5 54t94 19.5zM276 444q-37 0 -68.5 -14.5t-54 -40t-35 -61t-12.5 -78.5t12.5 -79
t35 -61.5t54 -40t68.5 -14.5q57 0 93.5 25.5t62.5 65.5v208q-26 39 -62.5 64.5t-93.5 25.5zM439 577h-70l-78 76l-78 -76h-70l148 154z" />
    <glyph glyph-name="atilde" unicode="&#xe3;" 
d="M265 510q65 0 106 -23.5t64 -52.5l2 66h67v-500h-67l-2 67q-11 -15 -27 -28.5t-37 -24.5t-47.5 -17.5t-58.5 -6.5q-51 0 -94 19.5t-73.5 54t-47.5 82t-17 104.5q0 56 17 104t47.5 82.5t73.5 54t94 19.5zM276 444q-37 0 -68.5 -14.5t-54 -40t-35 -61t-12.5 -78.5t12.5 -79
t35 -61.5t54 -40t68.5 -14.5q57 0 93.5 25.5t62.5 65.5v208q-26 39 -62.5 64.5t-93.5 25.5zM228 709q29 0 46.5 -13t30 -29t24.5 -29t30 -13q22 0 30.5 22t8.5 55h50q0 -67 -26.5 -98.5t-66.5 -31.5q-30 0 -46.5 13t-28.5 29t-23.5 29t-30.5 13q-23 0 -32 -22t-9 -55h-50
q0 69 27 99.5t66 30.5z" />
    <glyph glyph-name="adieresis" unicode="&#xe4;" 
d="M265 510q65 0 106 -23.5t64 -52.5l2 66h67v-500h-67l-2 67q-11 -15 -27 -28.5t-37 -24.5t-47.5 -17.5t-58.5 -6.5q-51 0 -94 19.5t-73.5 54t-47.5 82t-17 104.5q0 56 17 104t47.5 82.5t73.5 54t94 19.5zM276 444q-37 0 -68.5 -14.5t-54 -40t-35 -61t-12.5 -78.5t12.5 -79
t35 -61.5t54 -40t68.5 -14.5q57 0 93.5 25.5t62.5 65.5v208q-26 39 -62.5 64.5t-93.5 25.5zM211 683q20 0 33.5 -13t13.5 -33t-13.5 -33t-33.5 -13t-32.5 13t-12.5 33t12.5 33t32.5 13zM371 683q20 0 33.5 -13t13.5 -33t-13.5 -33t-33.5 -13t-32.5 13t-12.5 33t12.5 33
t32.5 13z" />
    <glyph glyph-name="aring" unicode="&#xe5;" 
d="M265 510q65 0 106 -23.5t64 -52.5l2 66h67v-500h-67l-2 67q-11 -15 -27 -28.5t-37 -24.5t-47.5 -17.5t-58.5 -6.5q-51 0 -94 19.5t-73.5 54t-47.5 82t-17 104.5q0 56 17 104t47.5 82.5t73.5 54t94 19.5zM276 444q-37 0 -68.5 -14.5t-54 -40t-35 -61t-12.5 -78.5t12.5 -79
t35 -61.5t54 -40t68.5 -14.5q57 0 93.5 25.5t62.5 65.5v208q-26 39 -62.5 64.5t-93.5 25.5zM292 775q44 0 73 -29t29 -73t-29 -72.5t-73 -28.5q-45 0 -74 28.5t-29 72.5t29 73t74 29zM292 731q-24 0 -40.5 -16.5t-16.5 -41.5t16.5 -40.5t40.5 -15.5t40.5 15.5t16.5 40.5
t-16.5 41.5t-40.5 16.5z" />
    <glyph glyph-name="ae" unicode="&#xe6;" horiz-adv-x="942" 
d="M681 510q54 0 96.5 -19.5t72 -54t44.5 -82t15 -102.5v-28h-394q4 -79 46.5 -125t130.5 -46q54 0 93 21t62 50l51 -43q-36 -44 -88 -67.5t-116 -23.5q-71 0 -119.5 25t-72.5 67l-3 -82h-63l-2 67q-11 -15 -27 -28.5t-37 -24.5t-47.5 -17.5t-58.5 -6.5q-51 0 -94 19.5
t-73.5 54t-47.5 82t-17 104.5q0 56 17 104t47.5 82.5t73.5 54t94 19.5q65 0 106 -23.5t64 -52.5l2 66h64l2 -83q27 41 71.5 67t107.5 26zM678 446q-33 0 -62 -10.5t-50.5 -31.5t-35 -51t-16.5 -69h323q-3 72 -44 117t-115 45zM275 444q-37 0 -68.5 -14.5t-54 -40t-35 -61
t-12.5 -78.5t12.5 -79t35 -61.5t54 -40t68.5 -14.5q57 0 93.5 25.5t62.5 65.5v208q-26 39 -62.5 64.5t-93.5 25.5z" />
    <glyph glyph-name="ccedilla" unicode="&#xe7;" horiz-adv-x="500" 
d="M280 510q66 0 114.5 -28t81.5 -78l-54 -42q-20 32 -54.5 57.5t-87.5 25.5q-43 0 -76 -14.5t-55 -41t-33 -62t-11 -77.5t11.5 -77.5t34 -62t55.5 -41t76 -14.5q52 0 88 25.5t56 57.5l54 -42q-33 -50 -82.5 -78t-115.5 -28h-5l-8 -51q42 -3 67.5 -26t25.5 -65
q0 -47 -29.5 -72.5t-77.5 -25.5q-29 0 -53.5 9.5t-41.5 29.5l31 36q24 -29 62 -29q23 0 39.5 12t16.5 38q0 40 -45 48q-14 2 -25 1t-22 -4l-3 4l17 99q-47 8 -84 30t-62.5 56t-39 77t-13.5 93q0 56 17 104t48.5 82.5t77.5 54t105 19.5z" />
    <glyph glyph-name="egrave" unicode="&#xe8;" horiz-adv-x="526" 
d="M268 510q55 0 97 -20t70.5 -54.5t43 -81.5t14.5 -100v-30h-388q2 -80 47 -125.5t128 -45.5q56 0 93.5 21.5t57.5 49.5l51 -43q-35 -44 -85 -67.5t-117 -23.5q-59 0 -105 19.5t-77.5 54t-48.5 82t-17 103.5t17 104t48.5 83t74.5 54.5t96 19.5zM268 446q-71 0 -115 -44.5
t-48 -117.5h316q-2 72 -42 117t-111 45zM312 578h-78l-153 123h91z" />
    <glyph glyph-name="eacute" unicode="&#xe9;" horiz-adv-x="526" 
d="M268 510q55 0 97 -20t70.5 -54.5t43 -81.5t14.5 -100v-30h-388q2 -80 47 -125.5t128 -45.5q56 0 93.5 21.5t57.5 49.5l51 -43q-35 -44 -85 -67.5t-117 -23.5q-59 0 -105 19.5t-77.5 54t-48.5 82t-17 103.5t17 104t48.5 83t74.5 54.5t96 19.5zM268 446q-71 0 -115 -44.5
t-48 -117.5h316q-2 72 -42 117t-111 45zM295 578h-78l140 123h91z" />
    <glyph glyph-name="ecircumflex" unicode="&#xea;" horiz-adv-x="526" 
d="M268 510q55 0 97 -20t70.5 -54.5t43 -81.5t14.5 -100v-30h-388q2 -80 47 -125.5t128 -45.5q56 0 93.5 21.5t57.5 49.5l51 -43q-35 -44 -85 -67.5t-117 -23.5q-59 0 -105 19.5t-77.5 54t-48.5 82t-17 103.5t17 104t48.5 83t74.5 54.5t96 19.5zM268 446q-71 0 -115 -44.5
t-48 -117.5h316q-2 72 -42 117t-111 45zM414 577h-70l-78 76l-78 -76h-70l148 154z" />
    <glyph glyph-name="edieresis" unicode="&#xeb;" horiz-adv-x="526" 
d="M268 510q55 0 97 -20t70.5 -54.5t43 -81.5t14.5 -100v-30h-388q2 -80 47 -125.5t128 -45.5q56 0 93.5 21.5t57.5 49.5l51 -43q-35 -44 -85 -67.5t-117 -23.5q-59 0 -105 19.5t-77.5 54t-48.5 82t-17 103.5t17 104t48.5 83t74.5 54.5t96 19.5zM268 446q-71 0 -115 -44.5
t-48 -117.5h316q-2 72 -42 117t-111 45zM186 683q20 0 33.5 -13t13.5 -33t-13.5 -33t-33.5 -13t-32.5 13t-12.5 33t12.5 33t32.5 13zM346 683q20 0 33.5 -13t13.5 -33t-13.5 -33t-33.5 -13t-32.5 13t-12.5 33t12.5 33t32.5 13z" />
    <glyph glyph-name="igrave" unicode="&#xec;" horiz-adv-x="238" 
d="M165 578h-78l-153 123h91zM155 0h-73v500h73v-500z" />
    <glyph glyph-name="iacute" unicode="&#xed;" horiz-adv-x="238" 
d="M147 578h-78l140 123h91zM155 0h-73v500h73v-500z" />
    <glyph glyph-name="icircumflex" unicode="&#xee;" horiz-adv-x="238" 
d="M155 0h-73v500h73v-500zM267 577h-70l-78 76l-78 -76h-70l148 154z" />
    <glyph glyph-name="idieresis" unicode="&#xef;" horiz-adv-x="238" 
d="M39 683q20 0 33.5 -13t13.5 -33t-13.5 -33t-33.5 -13t-32.5 13t-12.5 33t12.5 33t32.5 13zM199 683q20 0 33.5 -13t13.5 -33t-13.5 -33t-33.5 -13t-32.5 13t-12.5 33t12.5 33t32.5 13zM155 0h-73v500h73v-500z" />
    <glyph glyph-name="eth" unicode="&#xf0;" horiz-adv-x="558" 
d="M280 484q21 0 42 -3l-73 102h-170v57h130l-85 120h89l85 -120h171v-57h-131l128 -181q28 -32 43.5 -74t15.5 -91q0 -54 -18.5 -99t-51 -78t-77.5 -51.5t-98 -18.5t-98 18.5t-77.5 51.5t-51 78t-18.5 99q0 53 18.5 98t51 78t77.5 52t98 19zM280 422q-38 0 -69.5 -14
t-54.5 -39t-36 -58.5t-13 -73.5t13 -74t36 -58.5t54.5 -38.5t69.5 -14q37 0 69 14t55 38.5t36 58.5t13 74t-13 73.5t-36 58.5t-55 39t-69 14z" />
    <glyph glyph-name="ntilde" unicode="&#xf1;" horiz-adv-x="576" 
d="M318 510q45 0 80.5 -15.5t59.5 -43t37 -66.5t13 -86v-299h-73v295q0 65 -36 105t-96 40q-51 0 -85 -24.5t-63 -62.5v-353h-73v500h67l2 -67q12 14 28 27.5t37 24.5t46.5 18t55.5 7zM231 709q29 0 46.5 -13t30 -29t24.5 -29t30 -13q22 0 30.5 22t8.5 55h50
q0 -67 -26.5 -98.5t-66.5 -31.5q-30 0 -46.5 13t-28.5 29t-23.5 29t-30.5 13q-23 0 -32 -22t-9 -55h-50q0 69 27 99.5t66 30.5z" />
    <glyph glyph-name="ograve" unicode="&#xf2;" horiz-adv-x="568" 
d="M284 510q55 0 101 -19.5t80 -54.5t53 -83t19 -104t-19 -103.5t-53 -82t-80 -54t-101 -19.5t-101.5 19.5t-80 54t-52 82t-18.5 103.5t18.5 104t52 83t80 54.5t101.5 19.5zM284 444q-39 0 -72 -14.5t-56.5 -41t-37 -62t-13.5 -77.5t13.5 -77.5t37 -61.5t56.5 -40.5
t72 -14.5t72 14.5t56.5 40.5t37 61.5t13.5 77.5t-13.5 77.5t-37 62t-56.5 41t-72 14.5zM329 578h-78l-153 123h91z" />
    <glyph glyph-name="oacute" unicode="&#xf3;" horiz-adv-x="568" 
d="M284 510q55 0 101 -19.5t80 -54.5t53 -83t19 -104t-19 -103.5t-53 -82t-80 -54t-101 -19.5t-101.5 19.5t-80 54t-52 82t-18.5 103.5t18.5 104t52 83t80 54.5t101.5 19.5zM284 444q-39 0 -72 -14.5t-56.5 -41t-37 -62t-13.5 -77.5t13.5 -77.5t37 -61.5t56.5 -40.5
t72 -14.5t72 14.5t56.5 40.5t37 61.5t13.5 77.5t-13.5 77.5t-37 62t-56.5 41t-72 14.5zM312 578h-78l140 123h91z" />
    <glyph glyph-name="ocircumflex" unicode="&#xf4;" horiz-adv-x="568" 
d="M284 510q55 0 101 -19.5t80 -54.5t53 -83t19 -104t-19 -103.5t-53 -82t-80 -54t-101 -19.5t-101.5 19.5t-80 54t-52 82t-18.5 103.5t18.5 104t52 83t80 54.5t101.5 19.5zM284 444q-39 0 -72 -14.5t-56.5 -41t-37 -62t-13.5 -77.5t13.5 -77.5t37 -61.5t56.5 -40.5
t72 -14.5t72 14.5t56.5 40.5t37 61.5t13.5 77.5t-13.5 77.5t-37 62t-56.5 41t-72 14.5zM431 577h-70l-78 76l-78 -76h-70l148 154z" />
    <glyph glyph-name="otilde" unicode="&#xf5;" horiz-adv-x="568" 
d="M284 510q55 0 101 -19.5t80 -54.5t53 -83t19 -104t-19 -103.5t-53 -82t-80 -54t-101 -19.5t-101.5 19.5t-80 54t-52 82t-18.5 103.5t18.5 104t52 83t80 54.5t101.5 19.5zM284 444q-39 0 -72 -14.5t-56.5 -41t-37 -62t-13.5 -77.5t13.5 -77.5t37 -61.5t56.5 -40.5
t72 -14.5t72 14.5t56.5 40.5t37 61.5t13.5 77.5t-13.5 77.5t-37 62t-56.5 41t-72 14.5zM220 709q29 0 46.5 -13t30 -29t24.5 -29t30 -13q22 0 30.5 22t8.5 55h50q0 -67 -26.5 -98.5t-66.5 -31.5q-30 0 -46.5 13t-28.5 29t-23.5 29t-30.5 13q-23 0 -32 -22t-9 -55h-50
q0 69 27 99.5t66 30.5z" />
    <glyph glyph-name="odieresis" unicode="&#xf6;" horiz-adv-x="568" 
d="M284 510q55 0 101 -19.5t80 -54.5t53 -83t19 -104t-19 -103.5t-53 -82t-80 -54t-101 -19.5t-101.5 19.5t-80 54t-52 82t-18.5 103.5t18.5 104t52 83t80 54.5t101.5 19.5zM284 444q-39 0 -72 -14.5t-56.5 -41t-37 -62t-13.5 -77.5t13.5 -77.5t37 -61.5t56.5 -40.5
t72 -14.5t72 14.5t56.5 40.5t37 61.5t13.5 77.5t-13.5 77.5t-37 62t-56.5 41t-72 14.5zM203 683q20 0 33.5 -13t13.5 -33t-13.5 -33t-33.5 -13t-32.5 13t-12.5 33t12.5 33t32.5 13zM363 683q20 0 33.5 -13t13.5 -33t-13.5 -33t-33.5 -13t-32.5 13t-12.5 33t12.5 33t32.5 13z
" />
    <glyph glyph-name="divide" unicode="&#xf7;" horiz-adv-x="472" 
d="M235 583q23 0 37.5 -14.5t14.5 -37.5q0 -21 -14.5 -36t-37.5 -15q-22 0 -36 15t-14 36q0 23 14 37.5t36 14.5zM235 218q23 0 37.5 -14.5t14.5 -37.5q0 -22 -14.5 -36.5t-37.5 -14.5q-22 0 -36 14.5t-14 36.5q0 23 14 37.5t36 14.5zM430 317h-389v67h389v-67z" />
    <glyph glyph-name="oslash" unicode="&#xf8;" horiz-adv-x="568" 
d="M284 510q28 0 54 -5.5t50 -15.5l44 81h52l-56 -104q51 -35 80 -91t29 -126q0 -56 -19 -103.5t-53 -82t-80 -54t-101 -19.5t-102 19l-43 -79h-54l55 102q-51 34 -79.5 90t-28.5 127q0 56 18.5 104t52 83t80 54.5t101.5 19.5zM284 447q-40 0 -73.5 -15t-57.5 -41.5
t-37.5 -62.5t-13.5 -79q0 -51 18.5 -92t51.5 -67l185 342q-17 7 -35 11t-38 4zM466 249q0 51 -19 91.5t-51 66.5l-184 -341q34 -14 72 -14q39 0 72.5 14.5t58 41t38 62.5t13.5 79z" />
    <glyph glyph-name="ugrave" unicode="&#xf9;" horiz-adv-x="566" 
d="M484 0h-67l-2 66q-12 -14 -28 -28t-36.5 -24.5t-46 -17t-57.5 -6.5q-42 0 -75.5 15t-56 42.5t-34.5 65.5t-12 85v302h73v-299q0 -63 32.5 -102.5t88.5 -39.5q53 0 86.5 24.5t62.5 62.5v354h72v-500zM322 578h-78l-153 123h91z" />
    <glyph glyph-name="uacute" unicode="&#xfa;" horiz-adv-x="566" 
d="M484 0h-67l-2 66q-12 -14 -28 -28t-36.5 -24.5t-46 -17t-57.5 -6.5q-42 0 -75.5 15t-56 42.5t-34.5 65.5t-12 85v302h73v-299q0 -63 32.5 -102.5t88.5 -39.5q53 0 86.5 24.5t62.5 62.5v354h72v-500zM304 578h-78l140 123h91z" />
    <glyph glyph-name="ucircumflex" unicode="&#xfb;" horiz-adv-x="566" 
d="M484 0h-67l-2 66q-12 -14 -28 -28t-36.5 -24.5t-46 -17t-57.5 -6.5q-42 0 -75.5 15t-56 42.5t-34.5 65.5t-12 85v302h73v-299q0 -63 32.5 -102.5t88.5 -39.5q53 0 86.5 24.5t62.5 62.5v354h72v-500zM424 577h-70l-78 76l-78 -76h-70l148 154z" />
    <glyph glyph-name="udieresis" unicode="&#xfc;" horiz-adv-x="566" 
d="M484 0h-67l-2 66q-12 -14 -28 -28t-36.5 -24.5t-46 -17t-57.5 -6.5q-42 0 -75.5 15t-56 42.5t-34.5 65.5t-12 85v302h73v-299q0 -63 32.5 -102.5t88.5 -39.5q53 0 86.5 24.5t62.5 62.5v354h72v-500zM195 683q20 0 33.5 -13t13.5 -33t-13.5 -33t-33.5 -13t-32.5 13
t-12.5 33t12.5 33t32.5 13zM355 683q20 0 33.5 -13t13.5 -33t-13.5 -33t-33.5 -13t-32.5 13t-12.5 33t12.5 33t32.5 13z" />
    <glyph glyph-name="yacute" unicode="&#xfd;" horiz-adv-x="538" 
d="M166 -230h-82l146 288l-211 442h80l170 -360l170 360h80zM292 578h-78l140 123h91z" />
    <glyph glyph-name="thorn" unicode="&#xfe;" 
d="M155 437q23 28 63 50.5t104 22.5q51 0 93.5 -19.5t73.5 -54t48 -82.5t17 -104q0 -57 -17 -104.5t-48 -82t-73.5 -54t-93.5 -19.5q-64 0 -104 22t-63 49v-291h-73v990h73v-323zM310 444q-57 0 -93 -25.5t-62 -64.5v-208q26 -40 62 -65.5t93 -25.5q37 0 68.5 14.5t54 40
t35 61.5t12.5 79t-12.5 79t-35 61.5t-54 39.5t-68.5 14z" />
    <glyph glyph-name="ydieresis" unicode="&#xff;" horiz-adv-x="538" 
d="M166 -230h-82l146 288l-211 442h80l170 -360l170 360h80zM183 683q20 0 33.5 -13t13.5 -33t-13.5 -33t-33.5 -13t-32.5 13t-12.5 33t12.5 33t32.5 13zM343 683q20 0 33.5 -13t13.5 -33t-13.5 -33t-33.5 -13t-32.5 13t-12.5 33t12.5 33t32.5 13z" />
    <glyph glyph-name="Amacron" unicode="&#x100;" horiz-adv-x="684" 
d="M195 240h294l-147 339zM673 0h-81l-74 172h-352l-74 -172h-81l329 748h4zM467 790h-252v53h252v-53z" />
    <glyph glyph-name="amacron" unicode="&#x101;" 
d="M265 510q65 0 106 -23.5t64 -52.5l2 66h67v-500h-67l-2 67q-11 -15 -27 -28.5t-37 -24.5t-47.5 -17.5t-58.5 -6.5q-51 0 -94 19.5t-73.5 54t-47.5 82t-17 104.5q0 56 17 104t47.5 82.5t73.5 54t94 19.5zM276 444q-37 0 -68.5 -14.5t-54 -40t-35 -61t-12.5 -78.5t12.5 -79
t35 -61.5t54 -40t68.5 -14.5q57 0 93.5 25.5t62.5 65.5v208q-26 39 -62.5 64.5t-93.5 25.5zM418 599h-252v53h252v-53z" />
    <glyph glyph-name="Abreve" unicode="&#x102;" horiz-adv-x="684" 
d="M195 240h294l-147 339zM673 0h-81l-74 172h-352l-74 -172h-81l329 748h4zM487 910q0 -30 -11 -55t-30.5 -43t-46 -28.5t-57.5 -10.5t-58 10.5t-46.5 28.5t-30.5 43t-11 55h54q0 -35 25.5 -60t66.5 -25q40 0 65.5 25t25.5 60h54z" />
    <glyph glyph-name="abreve" unicode="&#x103;" 
d="M265 510q65 0 106 -23.5t64 -52.5l2 66h67v-500h-67l-2 67q-11 -15 -27 -28.5t-37 -24.5t-47.5 -17.5t-58.5 -6.5q-51 0 -94 19.5t-73.5 54t-47.5 82t-17 104.5q0 56 17 104t47.5 82.5t73.5 54t94 19.5zM276 444q-37 0 -68.5 -14.5t-54 -40t-35 -61t-12.5 -78.5t12.5 -79
t35 -61.5t54 -40t68.5 -14.5q57 0 93.5 25.5t62.5 65.5v208q-26 39 -62.5 64.5t-93.5 25.5zM437 718q0 -30 -11 -56t-30.5 -44.5t-46 -29t-57.5 -10.5t-58 10.5t-46.5 29t-30.5 44.5t-11 56h55q0 -38 25.5 -63t65.5 -25q39 0 64.5 25t25.5 63h55z" />
    <glyph glyph-name="Aogonek" unicode="&#x104;" horiz-adv-x="684" 
d="M673 0h-17q-22 -9 -34.5 -26t-12.5 -42q0 -37 22 -55.5t54 -18.5q19 0 33 7l17 -45q-20 -9 -51 -9q-54 0 -90.5 32t-36.5 89q0 26 8.5 44.5t22.5 32.5l-70 163h-352l-74 -172h-81l329 748h4zM195 240h294l-147 339z" />
    <glyph glyph-name="aogonek" unicode="&#x105;" 
d="M265 510q65 0 106 -23.5t64 -52.5l2 66h67v-500h-9q-22 -9 -34.5 -26t-12.5 -42q0 -37 22 -55.5t54 -18.5q19 0 33 7l17 -45q-20 -9 -51 -9q-54 0 -90.5 32t-36.5 89q0 29 11 50t29 35l-1 50q-11 -15 -27 -28.5t-37 -24.5t-47.5 -17.5t-58.5 -6.5q-51 0 -94 19.5
t-73.5 54t-47.5 82t-17 104.5q0 56 17 104t47.5 82.5t73.5 54t94 19.5zM276 444q-37 0 -68.5 -14.5t-54 -40t-35 -61t-12.5 -78.5t12.5 -79t35 -61.5t54 -40t68.5 -14.5q57 0 93.5 25.5t62.5 65.5v208q-26 39 -62.5 64.5t-93.5 25.5z" />
    <glyph glyph-name="Cacute" unicode="&#x106;" horiz-adv-x="679" 
d="M401 748q81 0 143.5 -27t113.5 -78l-49 -55q-38 40 -90.5 64.5t-117.5 24.5q-64 0 -117.5 -23.5t-91.5 -64.5t-59.5 -98t-21.5 -124t21.5 -123.5t59.5 -98t91.5 -64.5t117.5 -23q67 0 121.5 26t92.5 69l48 -57q-101 -109 -262 -109q-80 0 -147.5 28.5t-116 79.5
t-75.5 120.5t-27 151.5t27 152t75.5 121t116 79.5t147.5 28.5zM424 782h-84l137 113h94z" />
    <glyph glyph-name="cacute" unicode="&#x107;" horiz-adv-x="500" 
d="M280 510q66 0 114.5 -28t81.5 -78l-54 -42q-20 32 -54.5 57.5t-87.5 25.5q-43 0 -76 -14.5t-55 -41t-33 -62t-11 -77.5t11.5 -77.5t34 -62t55.5 -41t76 -14.5q52 0 88 25.5t56 57.5l54 -42q-33 -50 -82.5 -78t-115.5 -28q-59 0 -105 19.5t-78.5 54t-49.5 82.5t-17 104
t17 104t48.5 82.5t77.5 54t105 19.5zM304 578h-78l140 123h91z" />
    <glyph glyph-name="Ccircumflex" unicode="&#x108;" horiz-adv-x="679" 
d="M401 748q81 0 143.5 -27t113.5 -78l-49 -55q-38 40 -90.5 64.5t-117.5 24.5q-64 0 -117.5 -23.5t-91.5 -64.5t-59.5 -98t-21.5 -124t21.5 -123.5t59.5 -98t91.5 -64.5t117.5 -23q67 0 121.5 26t92.5 69l48 -57q-101 -109 -262 -109q-80 0 -147.5 28.5t-116 79.5
t-75.5 120.5t-27 151.5t27 152t75.5 121t116 79.5t147.5 28.5zM545 781h-72l-79 73l-80 -73h-71l151 140z" />
    <glyph glyph-name="ccircumflex" unicode="&#x109;" horiz-adv-x="500" 
d="M280 510q66 0 114.5 -28t81.5 -78l-54 -42q-20 32 -54.5 57.5t-87.5 25.5q-43 0 -76 -14.5t-55 -41t-33 -62t-11 -77.5t11.5 -77.5t34 -62t55.5 -41t76 -14.5q52 0 88 25.5t56 57.5l54 -42q-33 -50 -82.5 -78t-115.5 -28q-59 0 -105 19.5t-78.5 54t-49.5 82.5t-17 104
t17 104t48.5 82.5t77.5 54t105 19.5zM424 577h-70l-78 76l-78 -76h-70l148 154z" />
    <glyph glyph-name="Cdotaccent" unicode="&#x10a;" horiz-adv-x="679" 
d="M401 748q81 0 143.5 -27t113.5 -78l-49 -55q-38 40 -90.5 64.5t-117.5 24.5q-64 0 -117.5 -23.5t-91.5 -64.5t-59.5 -98t-21.5 -124t21.5 -123.5t59.5 -98t91.5 -64.5t117.5 -23q67 0 121.5 26t92.5 69l48 -57q-101 -109 -262 -109q-80 0 -147.5 28.5t-116 79.5
t-75.5 120.5t-27 151.5t27 152t75.5 121t116 79.5t147.5 28.5zM394 881q21 0 35 -14t14 -36q0 -21 -14 -35t-35 -14t-35 14t-14 35q0 22 14 36t35 14z" />
    <glyph glyph-name="cdotaccent" unicode="&#x10b;" horiz-adv-x="500" 
d="M280 510q66 0 114.5 -28t81.5 -78l-54 -42q-20 32 -54.5 57.5t-87.5 25.5q-43 0 -76 -14.5t-55 -41t-33 -62t-11 -77.5t11.5 -77.5t34 -62t55.5 -41t76 -14.5q52 0 88 25.5t56 57.5l54 -42q-33 -50 -82.5 -78t-115.5 -28q-59 0 -105 19.5t-78.5 54t-49.5 82.5t-17 104
t17 104t48.5 82.5t77.5 54t105 19.5zM276 707q23 0 37.5 -14.5t14.5 -37.5t-14.5 -37.5t-37.5 -14.5t-37.5 14.5t-14.5 37.5t14.5 37.5t37.5 14.5z" />
    <glyph glyph-name="Ccaron" unicode="&#x10c;" horiz-adv-x="679" 
d="M401 748q81 0 143.5 -27t113.5 -78l-49 -55q-38 40 -90.5 64.5t-117.5 24.5q-64 0 -117.5 -23.5t-91.5 -64.5t-59.5 -98t-21.5 -124t21.5 -123.5t59.5 -98t91.5 -64.5t117.5 -23q67 0 121.5 26t92.5 69l48 -57q-101 -109 -262 -109q-80 0 -147.5 28.5t-116 79.5
t-75.5 120.5t-27 151.5t27 152t75.5 121t116 79.5t147.5 28.5zM394 774l-151 139h71l80 -72l79 72h72z" />
    <glyph glyph-name="ccaron" unicode="&#x10d;" horiz-adv-x="500" 
d="M280 510q66 0 114.5 -28t81.5 -78l-54 -42q-20 32 -54.5 57.5t-87.5 25.5q-43 0 -76 -14.5t-55 -41t-33 -62t-11 -77.5t11.5 -77.5t34 -62t55.5 -41t76 -14.5q52 0 88 25.5t56 57.5l54 -42q-33 -50 -82.5 -78t-115.5 -28q-59 0 -105 19.5t-78.5 54t-49.5 82.5t-17 104
t17 104t48.5 82.5t77.5 54t105 19.5zM276 573l-148 154h70l78 -76l78 76h70z" />
    <glyph glyph-name="Dcaron" unicode="&#x10e;" horiz-adv-x="729" 
d="M303 735q92 0 164.5 -24.5t123 -72t77 -115.5t26.5 -155t-26.5 -155.5t-76.5 -115.5t-122.5 -72t-165.5 -25h-216v735h216zM162 664v-593h139q153 0 235 77.5t82 219.5q0 141 -82.5 218.5t-234.5 77.5h-139zM337 764l-151 139h71l80 -72l79 72h72z" />
    <glyph glyph-name="dcaron" unicode="&#x10f;" horiz-adv-x="729" 
d="M503 0h-67l-2 67q-11 -15 -27 -28.5t-37 -24.5t-47.5 -17.5t-58.5 -6.5q-51 0 -94 19.5t-73.5 54t-47.5 82t-17 104.5q0 56 17 104t47.5 82.5t73.5 54t94 19.5q63 0 103.5 -22t63.5 -50v322h72v-760zM275 444q-37 0 -68.5 -14.5t-54 -40t-35 -61t-12.5 -78.5t12.5 -79
t35 -61.5t54 -40t68.5 -14.5q57 0 93.5 25.5t62.5 65.5v208q-26 39 -62.5 64.5t-93.5 25.5zM628 748q25 0 41.5 -16t16.5 -41q0 -10 -2.5 -17.5t-6.5 -15.5l-64 -150h-4v238q5 2 9.5 2h9.5z" />
    <glyph glyph-name="Dcroat" unicode="&#x110;" horiz-adv-x="748" 
d="M321 735q92 0 164.5 -24.5t123 -72t77 -115.5t26.5 -155t-26.5 -155.5t-76.5 -115.5t-122.5 -72t-165.5 -25h-216v350h-89v54h89v331h216zM180 664v-260h121v-54h-121v-279h139q153 0 235 77.5t82 219.5q0 141 -82.5 218.5t-234.5 77.5h-139z" />
    <glyph glyph-name="dcroat" unicode="&#x111;" horiz-adv-x="601" 
d="M503 641h96v-54h-96v-587h-67l-2 67q-11 -15 -27 -28.5t-37 -24.5t-47.5 -17.5t-58.5 -6.5q-51 0 -94 19.5t-73.5 54t-47.5 82t-17 104.5q0 56 17 104t47.5 82.5t73.5 54t94 19.5q63 0 103.5 -22t63.5 -50v149h-118v54h118v119h72v-119zM275 444q-37 0 -68.5 -14.5
t-54 -40t-35 -61t-12.5 -78.5t12.5 -79t35 -61.5t54 -40t68.5 -14.5q57 0 93.5 25.5t62.5 65.5v208q-26 39 -62.5 64.5t-93.5 25.5z" />
    <glyph glyph-name="Emacron" unicode="&#x112;" horiz-adv-x="569" 
d="M531 664h-369v-257h326v-69h-326v-267h377v-71h-452v735h444v-71zM442 790h-252v53h252v-53z" />
    <glyph glyph-name="emacron" unicode="&#x113;" horiz-adv-x="526" 
d="M268 510q55 0 97 -20t70.5 -54.5t43 -81.5t14.5 -100v-30h-388q2 -80 47 -125.5t128 -45.5q56 0 93.5 21.5t57.5 49.5l51 -43q-35 -44 -85 -67.5t-117 -23.5q-59 0 -105 19.5t-77.5 54t-48.5 82t-17 103.5t17 104t48.5 83t74.5 54.5t96 19.5zM268 446q-71 0 -115 -44.5
t-48 -117.5h316q-2 72 -42 117t-111 45zM393 599h-252v53h252v-53z" />
    <glyph glyph-name="Ebreve" unicode="&#x114;" horiz-adv-x="569" 
d="M531 664h-369v-257h326v-69h-326v-267h377v-71h-452v735h444v-71zM461 910q0 -30 -11 -55t-30.5 -43t-46 -28.5t-57.5 -10.5t-58 10.5t-46.5 28.5t-30.5 43t-11 55h54q0 -35 25.5 -60t66.5 -25q40 0 65.5 25t25.5 60h54z" />
    <glyph glyph-name="ebreve" unicode="&#x115;" horiz-adv-x="526" 
d="M268 510q55 0 97 -20t70.5 -54.5t43 -81.5t14.5 -100v-30h-388q2 -80 47 -125.5t128 -45.5q56 0 93.5 21.5t57.5 49.5l51 -43q-35 -44 -85 -67.5t-117 -23.5q-59 0 -105 19.5t-77.5 54t-48.5 82t-17 103.5t17 104t48.5 83t74.5 54.5t96 19.5zM268 446q-71 0 -115 -44.5
t-48 -117.5h316q-2 72 -42 117t-111 45zM412 718q0 -30 -11 -56t-30.5 -44.5t-46 -29t-57.5 -10.5t-58 10.5t-46.5 29t-30.5 44.5t-11 56h55q0 -38 25.5 -63t65.5 -25q39 0 64.5 25t25.5 63h55z" />
    <glyph glyph-name="Edotaccent" unicode="&#x116;" horiz-adv-x="569" 
d="M531 664h-369v-257h326v-69h-326v-267h377v-71h-452v735h444v-71zM315 871q21 0 35 -14t14 -36q0 -21 -14 -35t-35 -14t-35 14t-14 35q0 22 14 36t35 14z" />
    <glyph glyph-name="edotaccent" unicode="&#x117;" horiz-adv-x="526" 
d="M268 510q55 0 97 -20t70.5 -54.5t43 -81.5t14.5 -100v-30h-388q2 -80 47 -125.5t128 -45.5q56 0 93.5 21.5t57.5 49.5l51 -43q-35 -44 -85 -67.5t-117 -23.5q-59 0 -105 19.5t-77.5 54t-48.5 82t-17 103.5t17 104t48.5 83t74.5 54.5t96 19.5zM268 446q-71 0 -115 -44.5
t-48 -117.5h316q-2 72 -42 117t-111 45zM267 707q23 0 37.5 -14.5t14.5 -37.5t-14.5 -37.5t-37.5 -14.5t-37.5 14.5t-14.5 37.5t14.5 37.5t37.5 14.5z" />
    <glyph glyph-name="Eogonek" unicode="&#x118;" horiz-adv-x="569" 
d="M531 664h-369v-257h326v-69h-326v-267h377v-71h-57q-22 -9 -34.5 -26t-12.5 -42q0 -37 22 -55.5t54 -18.5q19 0 33 7l17 -45q-20 -9 -51 -9q-54 0 -90.5 32t-36.5 89q0 41 22 68h-318v735h444v-71z" />
    <glyph glyph-name="eogonek" unicode="&#x119;" horiz-adv-x="526" 
d="M268 510q55 0 97 -20t70.5 -54.5t43 -81.5t14.5 -100v-30h-388q2 -80 47 -125.5t128 -45.5q56 0 93.5 21.5t57.5 49.5l51 -43q-40 -49 -98 -73q-31 -19 -31 -59q0 -37 22 -55.5t54 -18.5q19 0 33 7l17 -45q-20 -9 -51 -9q-54 0 -90.5 32t-36.5 89q0 25 7 42
q-7 -1 -13.5 -1h-14.5q-59 0 -105 19.5t-77.5 54t-48.5 82t-17 103.5t17 104t48.5 83t74.5 54.5t96 19.5zM268 446q-71 0 -115 -44.5t-48 -117.5h316q-2 72 -42 117t-111 45z" />
    <glyph glyph-name="Ecaron" unicode="&#x11a;" horiz-adv-x="569" 
d="M531 664h-369v-257h326v-69h-326v-267h377v-71h-452v735h444v-71zM315 764l-151 139h71l80 -72l79 72h72z" />
    <glyph glyph-name="ecaron" unicode="&#x11b;" horiz-adv-x="526" 
d="M268 510q55 0 97 -20t70.5 -54.5t43 -81.5t14.5 -100v-30h-388q2 -80 47 -125.5t128 -45.5q56 0 93.5 21.5t57.5 49.5l51 -43q-35 -44 -85 -67.5t-117 -23.5q-59 0 -105 19.5t-77.5 54t-48.5 82t-17 103.5t17 104t48.5 83t74.5 54.5t96 19.5zM268 446q-71 0 -115 -44.5
t-48 -117.5h316q-2 72 -42 117t-111 45zM266 573l-148 154h70l78 -76l78 76h70z" />
    <glyph glyph-name="Gcircumflex" unicode="&#x11c;" horiz-adv-x="735" 
d="M401 748q81 0 143.5 -27t113.5 -78l-49 -55q-38 40 -90.5 64.5t-117.5 24.5q-64 0 -117.5 -23.5t-91.5 -64.5t-59.5 -98t-21.5 -124t22 -123.5t61.5 -98t95 -64.5t121.5 -23q57 0 104.5 15.5t84.5 44.5v188h-202v67h278v-293q-51 -45 -117.5 -69t-147.5 -24
q-83 0 -152 28.5t-118.5 79.5t-77.5 120.5t-28 151.5t27 152t75.5 121t116 79.5t147.5 28.5zM546 781h-72l-79 73l-80 -73h-71l151 140z" />
    <glyph glyph-name="gcircumflex" unicode="&#x11d;" horiz-adv-x="586" 
d="M264 510q65 0 106 -23.5t64 -52.5l2 66h67v-491q0 -58 -17.5 -104t-50 -78.5t-78.5 -49.5t-102 -17q-74 0 -128.5 28t-92.5 75l48 47q32 -38 74 -61.5t98 -23.5q40 0 73 13t56 36.5t35.5 57t12.5 75.5v55q-23 -28 -63.5 -50t-103.5 -22q-51 0 -94 19.5t-73.5 54t-47.5 82
t-17 104.5q0 56 17 104t47.5 82.5t73.5 54t94 19.5zM275 444q-37 0 -68.5 -14.5t-54 -40t-35 -61t-12.5 -78.5t12.5 -79t35 -61.5t54 -40t68.5 -14.5q57 0 93.5 25.5t62.5 65.5v208q-26 39 -62.5 64.5t-93.5 25.5zM424 577h-70l-78 76l-78 -76h-70l148 154z" />
    <glyph glyph-name="Gbreve" unicode="&#x11e;" horiz-adv-x="735" 
d="M401 748q81 0 143.5 -27t113.5 -78l-49 -55q-38 40 -90.5 64.5t-117.5 24.5q-64 0 -117.5 -23.5t-91.5 -64.5t-59.5 -98t-21.5 -124t22 -123.5t61.5 -98t95 -64.5t121.5 -23q57 0 104.5 15.5t84.5 44.5v188h-202v67h278v-293q-51 -45 -117.5 -69t-147.5 -24
q-83 0 -152 28.5t-118.5 79.5t-77.5 120.5t-28 151.5t27 152t75.5 121t116 79.5t147.5 28.5zM540 920q0 -30 -11 -55t-30.5 -43t-46 -28.5t-57.5 -10.5t-58 10.5t-46.5 28.5t-30.5 43t-11 55h54q0 -35 25.5 -60t66.5 -25q40 0 65.5 25t25.5 60h54z" />
    <glyph glyph-name="gbreve" unicode="&#x11f;" horiz-adv-x="586" 
d="M264 510q65 0 106 -23.5t64 -52.5l2 66h67v-491q0 -58 -17.5 -104t-50 -78.5t-78.5 -49.5t-102 -17q-74 0 -128.5 28t-92.5 75l48 47q32 -38 74 -61.5t98 -23.5q40 0 73 13t56 36.5t35.5 57t12.5 75.5v55q-23 -28 -63.5 -50t-103.5 -22q-51 0 -94 19.5t-73.5 54t-47.5 82
t-17 104.5q0 56 17 104t47.5 82.5t73.5 54t94 19.5zM275 444q-37 0 -68.5 -14.5t-54 -40t-35 -61t-12.5 -78.5t12.5 -79t35 -61.5t54 -40t68.5 -14.5q57 0 93.5 25.5t62.5 65.5v208q-26 39 -62.5 64.5t-93.5 25.5zM421 718q0 -30 -11 -56t-30.5 -44.5t-46 -29t-57.5 -10.5
t-58 10.5t-46.5 29t-30.5 44.5t-11 56h55q0 -38 25.5 -63t65.5 -25q39 0 64.5 25t25.5 63h55z" />
    <glyph glyph-name="Gdotaccent" unicode="&#x120;" horiz-adv-x="735" 
d="M401 748q81 0 143.5 -27t113.5 -78l-49 -55q-38 40 -90.5 64.5t-117.5 24.5q-64 0 -117.5 -23.5t-91.5 -64.5t-59.5 -98t-21.5 -124t22 -123.5t61.5 -98t95 -64.5t121.5 -23q57 0 104.5 15.5t84.5 44.5v188h-202v67h278v-293q-51 -45 -117.5 -69t-147.5 -24
q-83 0 -152 28.5t-118.5 79.5t-77.5 120.5t-28 151.5t27 152t75.5 121t116 79.5t147.5 28.5zM395 881q21 0 35 -14t14 -36q0 -21 -14 -35t-35 -14t-35 14t-14 35q0 22 14 36t35 14z" />
    <glyph glyph-name="gdotaccent" unicode="&#x121;" horiz-adv-x="586" 
d="M264 510q65 0 106 -23.5t64 -52.5l2 66h67v-491q0 -58 -17.5 -104t-50 -78.5t-78.5 -49.5t-102 -17q-74 0 -128.5 28t-92.5 75l48 47q32 -38 74 -61.5t98 -23.5q40 0 73 13t56 36.5t35.5 57t12.5 75.5v55q-23 -28 -63.5 -50t-103.5 -22q-51 0 -94 19.5t-73.5 54t-47.5 82
t-17 104.5q0 56 17 104t47.5 82.5t73.5 54t94 19.5zM275 444q-37 0 -68.5 -14.5t-54 -40t-35 -61t-12.5 -78.5t12.5 -79t35 -61.5t54 -40t68.5 -14.5q57 0 93.5 25.5t62.5 65.5v208q-26 39 -62.5 64.5t-93.5 25.5zM275 707q23 0 37.5 -14.5t14.5 -37.5t-14.5 -37.5
t-37.5 -14.5t-37.5 14.5t-14.5 37.5t14.5 37.5t37.5 14.5z" />
    <glyph glyph-name="Gcommaaccent" unicode="&#x122;" horiz-adv-x="735" 
d="M401 748q81 0 143.5 -27t113.5 -78l-49 -55q-38 40 -90.5 64.5t-117.5 24.5q-64 0 -117.5 -23.5t-91.5 -64.5t-59.5 -98t-21.5 -124t22 -123.5t61.5 -98t95 -64.5t121.5 -23q57 0 104.5 15.5t84.5 44.5v188h-202v67h278v-293q-51 -45 -117.5 -69t-147.5 -24
q-83 0 -152 28.5t-118.5 79.5t-77.5 120.5t-28 151.5t27 152t75.5 121t116 79.5t147.5 28.5zM382 -54q26 0 42 -16t16 -42q0 -19 -9 -32l-64 -136h-4v223q9 3 19 3z" />
    <glyph glyph-name="gcommaaccent" unicode="&#x123;" horiz-adv-x="586" 
d="M264 510q65 0 106 -23.5t64 -52.5l2 66h67v-491q0 -58 -17.5 -104t-50 -78.5t-78.5 -49.5t-102 -17q-74 0 -128.5 28t-92.5 75l48 47q32 -38 74 -61.5t98 -23.5q40 0 73 13t56 36.5t35.5 57t12.5 75.5v55q-23 -28 -63.5 -50t-103.5 -22q-51 0 -94 19.5t-73.5 54t-47.5 82
t-17 104.5q0 56 17 104t47.5 82.5t73.5 54t94 19.5zM275 444q-37 0 -68.5 -14.5t-54 -40t-35 -61t-12.5 -78.5t12.5 -79t35 -61.5t54 -40t68.5 -14.5q57 0 93.5 25.5t62.5 65.5v208q-26 39 -62.5 64.5t-93.5 25.5zM326 565q-9 -3 -19 -3q-25 0 -41.5 16t-16.5 42
q0 10 2.5 17.5t6.5 14.5l64 150h4v-237z" />
    <glyph glyph-name="Hcircumflex" unicode="&#x124;" horiz-adv-x="724" 
d="M638 0h-76v341h-400v-341h-75v735h75v-324h400v324h76v-735zM513 771h-72l-79 73l-80 -73h-71l151 140z" />
    <glyph glyph-name="hcircumflex" unicode="&#x125;" horiz-adv-x="576" 
d="M155 436q26 29 64.5 51.5t98.5 22.5q45 0 80.5 -15.5t59.5 -43t37 -66.5t13 -86v-299h-73v295q0 65 -36 105t-96 40q-51 0 -85 -24.5t-63 -62.5v-353h-73v760h73v-324zM275 776h-72l-79 73l-80 -73h-71l151 140z" />
    <glyph glyph-name="Hbar" unicode="&#x126;" horiz-adv-x="748" 
d="M649 591h87v-54h-87v-537h-75v337h-400v-337h-76v537h-86v54h86v144h76v-144h400v144h75v-144zM574 405v132h-400v-132h400z" />
    <glyph glyph-name="hbar" unicode="&#x127;" horiz-adv-x="595" 
d="M173 641h115v-54h-115v-151q26 29 64.5 51.5t98.5 22.5q45 0 80.5 -15.5t59.5 -43t37 -66.5t13 -86v-299h-73v295q0 65 -36 105t-96 40q-51 0 -85 -24.5t-63 -62.5v-353h-73v587h-98v54h98v119h73v-119z" />
    <glyph glyph-name="Itilde" unicode="&#x128;" horiz-adv-x="249" 
d="M162 0h-75v735h75v-735zM62 907q29 0 46.5 -13t30 -29t24.5 -29t30 -13q22 0 30.5 22t8.5 55h50q0 -67 -26.5 -98.5t-66.5 -31.5q-30 0 -46.5 13t-28.5 29t-23.5 29t-30.5 13q-23 0 -32 -22t-9 -55h-50q0 69 27 99.5t66 30.5z" />
    <glyph glyph-name="itilde" unicode="&#x129;" horiz-adv-x="238" 
d="M56 709q29 0 46.5 -13t30 -29t24.5 -29t30 -13q22 0 30.5 22t8.5 55h50q0 -67 -26.5 -98.5t-66.5 -31.5q-30 0 -46.5 13t-28.5 29t-23.5 29t-30.5 13q-23 0 -32 -22t-9 -55h-50q0 69 27 99.5t66 30.5zM155 0h-73v500h73v-500z" />
    <glyph glyph-name="Imacron" unicode="&#x12a;" horiz-adv-x="249" 
d="M162 0h-75v735h75v-735zM251 790h-252v53h252v-53z" />
    <glyph glyph-name="imacron" unicode="&#x12b;" horiz-adv-x="238" 
d="M246 599h-252v53h252v-53zM155 0h-73v500h73v-500z" />
    <glyph glyph-name="Ibreve" unicode="&#x12c;" horiz-adv-x="249" 
d="M162 0h-75v735h75v-735zM271 910q0 -30 -11 -55t-30.5 -43t-46 -28.5t-57.5 -10.5t-58 10.5t-46.5 28.5t-30.5 43t-11 55h54q0 -35 25.5 -60t66.5 -25q40 0 65.5 25t25.5 60h54z" />
    <glyph glyph-name="ibreve" unicode="&#x12d;" horiz-adv-x="238" 
d="M265 718q0 -30 -11 -56t-30.5 -44.5t-46 -29t-57.5 -10.5t-58 10.5t-46.5 29t-30.5 44.5t-11 56h55q0 -38 25.5 -63t65.5 -25q39 0 64.5 25t25.5 63h55zM155 0h-73v500h73v-500z" />
    <glyph glyph-name="Iogonek" unicode="&#x12e;" horiz-adv-x="249" 
d="M162 0h-41q-22 -9 -34.5 -26t-12.5 -42q0 -37 22 -55.5t54 -18.5q19 0 33 7l17 -45q-20 -9 -51 -9q-54 0 -90.5 32t-36.5 89q0 38 18 62t47 39v702h75v-735z" />
    <glyph glyph-name="iogonek" unicode="&#x12f;" horiz-adv-x="238" 
d="M155 0h-14q-22 -9 -34.5 -26t-12.5 -42q0 -37 22 -55.5t54 -18.5q19 0 33 7l17 -45q-20 -9 -51 -9q-54 0 -90.5 32t-36.5 89q0 29 10.5 50t29.5 35v483h73v-500zM119 715q23 0 38 -15t15 -38t-15 -37.5t-38 -14.5t-37.5 14.5t-14.5 37.5t14.5 38t37.5 15z" />
    <glyph glyph-name="Idotaccent" unicode="&#x130;" horiz-adv-x="249" 
d="M162 0h-75v735h75v-735zM124 871q21 0 35 -14t14 -36q0 -21 -14 -35t-35 -14t-35 14t-14 35q0 22 14 36t35 14z" />
    <glyph glyph-name="dotlessi" unicode="&#x131;" horiz-adv-x="238" 
d="M155 0h-73v500h73v-500z" />
    <glyph glyph-name="Jcircumflex" unicode="&#x134;" horiz-adv-x="526" 
d="M450 205q0 -51 -15.5 -91t-43.5 -68.5t-67 -43.5t-87 -15q-44 0 -83 15t-68.5 44t-46.5 71.5t-17 97.5h74q0 -75 38 -116t101 -41q65 0 102 39t37 111v527h76v-530zM559 771h-72l-79 73l-80 -73h-71l151 140z" />
    <glyph glyph-name="jcircumflex" unicode="&#x135;" horiz-adv-x="238" 
d="M155 -72q0 -36 -12.5 -67t-35 -53.5t-53.5 -35t-68 -12.5q-45 0 -79 15.5t-60 41.5l48 49q16 -17 38 -29t51 -12q44 0 71 27.5t27 70.5v577h73v-572zM268 577h-70l-78 76l-78 -76h-70l148 154z" />
    <glyph glyph-name="Kcommaaccent" unicode="&#x136;" horiz-adv-x="646" 
d="M374 381l262 -381h-91l-214 311l-184 -311h-60v735h75v-582l331 582h89zM317 -54q26 0 42 -16t16 -42q0 -19 -9 -32l-64 -136h-4v223q9 3 19 3z" />
    <glyph glyph-name="kcommaaccent" unicode="&#x137;" horiz-adv-x="522" 
d="M155 134l241 366h86l-153 -225l184 -275h-86l-143 214l-142 -214h-60v760h73v-626zM264 -54q26 0 42 -16t16 -42q0 -19 -9 -32l-64 -136h-4v223q9 3 19 3z" />
    <glyph glyph-name="Lacute" unicode="&#x139;" horiz-adv-x="543" 
d="M162 69h369v-69h-444v735h75v-666zM155 772h-84l137 113h94z" />
    <glyph glyph-name="lacute" unicode="&#x13a;" horiz-adv-x="238" 
d="M155 0h-73v760h73v-760zM155 791h-84l137 113h94z" />
    <glyph glyph-name="Lcommaaccent" unicode="&#x13b;" horiz-adv-x="543" 
d="M162 69h369v-69h-444v735h75v-666zM289 -54q26 0 42 -16t16 -42q0 -19 -9 -32l-64 -136h-4v223q9 3 19 3z" />
    <glyph glyph-name="lcommaaccent" unicode="&#x13c;" horiz-adv-x="238" 
d="M155 0h-73v760h73v-760zM100 -54q26 0 42 -16t16 -42q0 -19 -9 -32l-64 -136h-4v223q9 3 19 3z" />
    <glyph glyph-name="Lcaron" unicode="&#x13d;" horiz-adv-x="543" 
d="M162 69h369v-69h-444v735h75v-666zM453 748q25 0 41.5 -16t16.5 -41q0 -10 -2.5 -17.5t-6.5 -15.5l-64 -150h-4v238q5 2 9.5 2h9.5z" />
    <glyph glyph-name="lcaron" unicode="&#x13e;" horiz-adv-x="382" 
d="M155 0h-73v760h73v-760zM281 748q25 0 41.5 -16t16.5 -41q0 -10 -2.5 -17.5t-6.5 -15.5l-64 -150h-4v238q5 2 9.5 2h9.5z" />
    <glyph glyph-name="Ldot" unicode="&#x13f;" horiz-adv-x="543" 
d="M162 69h369v-69h-444v735h75v-666zM391 376q23 0 38.5 -15.5t15.5 -38.5t-15.5 -38t-38.5 -15t-38 15t-15 38t15 38.5t38 15.5z" />
    <glyph glyph-name="ldot" unicode="&#x140;" horiz-adv-x="404" 
d="M155 0h-73v760h73v-760zM317 310q23 0 38.5 -15.5t15.5 -38.5t-15.5 -38t-38.5 -15t-38 15t-15 38t15 38.5t38 15.5z" />
    <glyph glyph-name="Lslash" unicode="&#x141;" horiz-adv-x="567" 
d="M185 360l112 63l24 -54l-136 -76v-224h369v-69h-444v251l-87 -49l-23 55l110 61v417h75v-375z" />
    <glyph glyph-name="lslash" unicode="&#x142;" horiz-adv-x="256" 
d="M164 394l81 44l22 -48l-103 -56v-334h-73v295l-79 -43l-23 48l102 55v405h73v-366z" />
    <glyph glyph-name="Nacute" unicode="&#x143;" horiz-adv-x="725" 
d="M639 -13h-4l-473 569v-556h-75v748h4l472 -568v555h76v-748zM392 772h-84l137 113h94z" />
    <glyph glyph-name="nacute" unicode="&#x144;" horiz-adv-x="576" 
d="M318 510q45 0 80.5 -15.5t59.5 -43t37 -66.5t13 -86v-299h-73v295q0 65 -36 105t-96 40q-51 0 -85 -24.5t-63 -62.5v-353h-73v500h67l2 -67q12 14 28 27.5t37 24.5t46.5 18t55.5 7zM322 578h-78l140 123h91z" />
    <glyph glyph-name="Ncommaaccent" unicode="&#x145;" horiz-adv-x="725" 
d="M639 -13h-4l-473 569v-556h-75v748h4l472 -568v555h76v-748zM361 -54q26 0 42 -16t16 -42q0 -19 -9 -32l-64 -136h-4v223q9 3 19 3z" />
    <glyph glyph-name="ncommaaccent" unicode="&#x146;" horiz-adv-x="576" 
d="M318 510q45 0 80.5 -15.5t59.5 -43t37 -66.5t13 -86v-299h-73v295q0 65 -36 105t-96 40q-51 0 -85 -24.5t-63 -62.5v-353h-73v500h67l2 -67q12 14 28 27.5t37 24.5t46.5 18t55.5 7zM278 -54q26 0 42 -16t16 -42q0 -19 -9 -32l-64 -136h-4v223q9 3 19 3z" />
    <glyph glyph-name="Ncaron" unicode="&#x147;" horiz-adv-x="725" 
d="M639 -13h-4l-473 569v-556h-75v748h4l472 -568v555h76v-748zM362 764l-151 139h71l80 -72l79 72h72z" />
    <glyph glyph-name="ncaron" unicode="&#x148;" horiz-adv-x="576" 
d="M318 510q45 0 80.5 -15.5t59.5 -43t37 -66.5t13 -86v-299h-73v295q0 65 -36 105t-96 40q-51 0 -85 -24.5t-63 -62.5v-353h-73v500h67l2 -67q12 14 28 27.5t37 24.5t46.5 18t55.5 7zM294 573l-148 154h70l78 -76l78 76h70z" />
    <glyph glyph-name="Eng" unicode="&#x14a;" horiz-adv-x="725" 
d="M639 -22q0 -51 -15.5 -91t-43.5 -68.5t-68 -43.5t-88 -15v75q65 0 102 38t37 110v90l-401 483v-556h-75v748h4l472 -568v555h76v-757z" />
    <glyph glyph-name="eng" unicode="&#x14b;" horiz-adv-x="576" 
d="M318 510q45 0 80.5 -15.5t59.5 -43t37 -66.5t13 -86v-371q0 -36 -13 -67t-36 -53.5t-54 -35t-68 -12.5v68q43 0 70.5 26t27.5 69v372q0 65 -36 105t-96 40q-51 0 -85 -24.5t-63 -62.5v-353h-73v500h67l2 -67q12 14 28 27.5t37 24.5t46.5 18t55.5 7z" />
    <glyph glyph-name="Omacron" unicode="&#x14c;" horiz-adv-x="802" 
d="M401 748q79 0 146.5 -28.5t116.5 -79.5t76.5 -121t27.5 -152q0 -83 -27.5 -152.5t-76.5 -120t-116.5 -79t-146.5 -28.5q-80 0 -147 28.5t-116 79t-76 120t-27 152.5q0 82 27 152t76 121t116 79.5t147 28.5zM401 677q-63 0 -116.5 -23.5t-92 -64.5t-60 -98t-21.5 -124
t21.5 -123.5t60 -98t92 -64.5t116.5 -23t116.5 23t92 64.5t60 98t21.5 123.5t-21.5 124t-60 98t-92 64.5t-116.5 23.5zM527 800h-252v53h252v-53z" />
    <glyph glyph-name="omacron" unicode="&#x14d;" horiz-adv-x="568" 
d="M284 510q55 0 101 -19.5t80 -54.5t53 -83t19 -104t-19 -103.5t-53 -82t-80 -54t-101 -19.5t-101.5 19.5t-80 54t-52 82t-18.5 103.5t18.5 104t52 83t80 54.5t101.5 19.5zM284 444q-39 0 -72 -14.5t-56.5 -41t-37 -62t-13.5 -77.5t13.5 -77.5t37 -61.5t56.5 -40.5
t72 -14.5t72 14.5t56.5 40.5t37 61.5t13.5 77.5t-13.5 77.5t-37 62t-56.5 41t-72 14.5zM409 599h-252v53h252v-53z" />
    <glyph glyph-name="Obreve" unicode="&#x14e;" horiz-adv-x="802" 
d="M401 748q79 0 146.5 -28.5t116.5 -79.5t76.5 -121t27.5 -152q0 -83 -27.5 -152.5t-76.5 -120t-116.5 -79t-146.5 -28.5q-80 0 -147 28.5t-116 79t-76 120t-27 152.5q0 82 27 152t76 121t116 79.5t147 28.5zM401 677q-63 0 -116.5 -23.5t-92 -64.5t-60 -98t-21.5 -124
t21.5 -123.5t60 -98t92 -64.5t116.5 -23t116.5 23t92 64.5t60 98t21.5 123.5t-21.5 124t-60 98t-92 64.5t-116.5 23.5zM546 920q0 -30 -11 -55t-30.5 -43t-46 -28.5t-57.5 -10.5t-58 10.5t-46.5 28.5t-30.5 43t-11 55h54q0 -35 25.5 -60t66.5 -25q40 0 65.5 25t25.5 60h54z
" />
    <glyph glyph-name="obreve" unicode="&#x14f;" horiz-adv-x="568" 
d="M284 510q55 0 101 -19.5t80 -54.5t53 -83t19 -104t-19 -103.5t-53 -82t-80 -54t-101 -19.5t-101.5 19.5t-80 54t-52 82t-18.5 103.5t18.5 104t52 83t80 54.5t101.5 19.5zM284 444q-39 0 -72 -14.5t-56.5 -41t-37 -62t-13.5 -77.5t13.5 -77.5t37 -61.5t56.5 -40.5
t72 -14.5t72 14.5t56.5 40.5t37 61.5t13.5 77.5t-13.5 77.5t-37 62t-56.5 41t-72 14.5zM429 718q0 -30 -11 -56t-30.5 -44.5t-46 -29t-57.5 -10.5t-58 10.5t-46.5 29t-30.5 44.5t-11 56h55q0 -38 25.5 -63t65.5 -25q39 0 64.5 25t25.5 63h55z" />
    <glyph glyph-name="Ohungarumlaut" unicode="&#x150;" horiz-adv-x="802" 
d="M401 748q79 0 146.5 -28.5t116.5 -79.5t76.5 -121t27.5 -152q0 -83 -27.5 -152.5t-76.5 -120t-116.5 -79t-146.5 -28.5q-80 0 -147 28.5t-116 79t-76 120t-27 152.5q0 82 27 152t76 121t116 79.5t147 28.5zM401 677q-63 0 -116.5 -23.5t-92 -64.5t-60 -98t-21.5 -124
t21.5 -123.5t60 -98t92 -64.5t116.5 -23t116.5 23t92 64.5t60 98t21.5 123.5t-21.5 124t-60 98t-92 64.5t-116.5 23.5zM348 785h-63l101 117h69zM501 785h-64l102 117h69z" />
    <glyph glyph-name="ohungarumlaut" unicode="&#x151;" horiz-adv-x="568" 
d="M284 510q55 0 101 -19.5t80 -54.5t53 -83t19 -104t-19 -103.5t-53 -82t-80 -54t-101 -19.5t-101.5 19.5t-80 54t-52 82t-18.5 103.5t18.5 104t52 83t80 54.5t101.5 19.5zM284 444q-39 0 -72 -14.5t-56.5 -41t-37 -62t-13.5 -77.5t13.5 -77.5t37 -61.5t56.5 -40.5
t72 -14.5t72 14.5t56.5 40.5t37 61.5t13.5 77.5t-13.5 77.5t-37 62t-56.5 41t-72 14.5zM226 571h-65l108 141h69zM383 571h-65l108 141h69z" />
    <glyph glyph-name="OE" unicode="&#x152;" horiz-adv-x="1167" 
d="M1136 664h-369v-257h326v-69h-326v-267h377v-71h-452v141q-47 -72 -122 -113t-169 -41q-80 0 -147 28.5t-116 79t-76 120t-27 152.5q0 82 27 152t76 121t116 79.5t147 28.5q94 0 169 -41.5t122 -113.5v142h444v-71zM401 677q-63 0 -116.5 -23.5t-92 -64.5t-60 -98
t-21.5 -124t21.5 -123.5t60 -98t92 -64.5t116.5 -23t116.5 23t92 64.5t60 98t21.5 123.5t-21.5 124t-60 98t-92 64.5t-116.5 23.5z" />
    <glyph glyph-name="oe" unicode="&#x153;" horiz-adv-x="961" 
d="M702 510q55 0 97 -20t70.5 -54.5t43 -81.5t14.5 -100v-30h-388q2 -80 47 -125.5t128 -45.5q56 0 93.5 21.5t57.5 49.5l51 -43q-35 -44 -85 -67.5t-117 -23.5q-76 0 -130.5 31.5t-84.5 86.5q-32 -55 -88 -86.5t-127 -31.5q-55 0 -101.5 19.5t-80 54t-52 82t-18.5 103.5
t18.5 104t52 83t80 54.5t101.5 19.5q71 0 127 -32.5t88 -87.5q30 55 82 87.5t121 32.5zM284 444q-39 0 -72 -14.5t-56.5 -41t-37 -62t-13.5 -77.5t13.5 -77.5t37 -61.5t56.5 -40.5t72 -14.5t72 14.5t56.5 40.5t37 61.5t13.5 77.5t-13.5 77.5t-37 62t-56.5 41t-72 14.5z
M702 446q-71 0 -115 -44.5t-48 -117.5h316q-2 72 -42 117t-111 45z" />
    <glyph glyph-name="Racute" unicode="&#x154;" horiz-adv-x="615" 
d="M304 735q56 0 103.5 -14.5t82 -43t54 -70t19.5 -95.5q0 -82 -42.5 -135t-114.5 -74l191 -303h-90l-182 289h-165v-289h-76v735h220zM160 667v-310h139q86 0 136.5 39t50.5 116t-51 116t-136 39h-139zM328 772h-84l137 113h94z" />
    <glyph glyph-name="racute" unicode="&#x155;" horiz-adv-x="316" 
d="M303 437h-7q-48 0 -81 -24t-60 -65v-348h-73v500h67l3 -71q19 30 56.5 55.5t94.5 25.5v-73zM229 578h-78l140 123h91z" />
    <glyph glyph-name="Rcommaaccent" unicode="&#x156;" horiz-adv-x="615" 
d="M304 735q56 0 103.5 -14.5t82 -43t54 -70t19.5 -95.5q0 -82 -42.5 -135t-114.5 -74l191 -303h-90l-182 289h-165v-289h-76v735h220zM160 667v-310h139q86 0 136.5 39t50.5 116t-51 116t-136 39h-139zM291 -54q26 0 42 -16t16 -42q0 -19 -9 -32l-64 -136h-4v223q9 3 19 3z
" />
    <glyph glyph-name="rcommaaccent" unicode="&#x157;" horiz-adv-x="316" 
d="M303 437h-7q-48 0 -81 -24t-60 -65v-348h-73v500h67l3 -71q19 30 56.5 55.5t94.5 25.5v-73zM114 -54q26 0 42 -16t16 -42q0 -19 -9 -32l-64 -136h-4v223q9 3 19 3z" />
    <glyph glyph-name="Rcaron" unicode="&#x158;" horiz-adv-x="615" 
d="M304 735q56 0 103.5 -14.5t82 -43t54 -70t19.5 -95.5q0 -82 -42.5 -135t-114.5 -74l191 -303h-90l-182 289h-165v-289h-76v735h220zM160 667v-310h139q86 0 136.5 39t50.5 116t-51 116t-136 39h-139zM297 764l-151 139h71l80 -72l79 72h72z" />
    <glyph glyph-name="rcaron" unicode="&#x159;" horiz-adv-x="316" 
d="M303 437h-7q-48 0 -81 -24t-60 -65v-348h-73v500h67l3 -71q19 30 56.5 55.5t94.5 25.5v-73zM200 573l-148 154h70l78 -76l78 76h70z" />
    <glyph glyph-name="Sacute" unicode="&#x15a;" horiz-adv-x="576" 
d="M279 748q72 0 129.5 -22t99.5 -56l-40 -62q-37 30 -85 49.5t-105 19.5q-33 0 -61.5 -8t-49 -24t-32.5 -41.5t-12 -59.5q0 -29 9.5 -49.5t31 -35.5t56 -26t83.5 -22q65 -14 111 -32.5t75 -43.5t42.5 -57.5t13.5 -74.5q0 -48 -17.5 -88t-50.5 -68.5t-80 -44t-105 -15.5
q-81 0 -145.5 24t-115.5 68l44 63q40 -39 98.5 -61.5t120.5 -22.5q37 0 69.5 9t56 26.5t37 43.5t13.5 61q0 56 -45 87.5t-143 52.5q-65 14 -110 32t-72.5 42.5t-40 56t-12.5 73.5q0 48 16.5 86t47 65t73.5 41t95 14zM313 778h-84l137 113h94z" />
    <glyph glyph-name="sacute" unicode="&#x15b;" horiz-adv-x="449" 
d="M229 510q50 0 91 -15.5t70 -39.5l-32 -56q-25 19 -55.5 32t-72.5 13q-48 0 -77 -17.5t-29 -57.5q0 -18 6.5 -30.5t21 -21.5t37 -16t54.5 -14q88 -21 128.5 -55t40.5 -91q0 -69 -51.5 -110t-138.5 -41q-57 0 -104.5 16t-81.5 44l34 59q29 -25 67.5 -39.5t84.5 -14.5
q51 0 84 20t33 62q0 36 -29 54t-93 33q-87 19 -126 51t-39 90q0 69 48 107t129 38zM254 578h-78l140 123h91z" />
    <glyph glyph-name="Scircumflex" unicode="&#x15c;" horiz-adv-x="576" 
d="M279 748q72 0 129.5 -22t99.5 -56l-40 -62q-37 30 -85 49.5t-105 19.5q-33 0 -61.5 -8t-49 -24t-32.5 -41.5t-12 -59.5q0 -29 9.5 -49.5t31 -35.5t56 -26t83.5 -22q65 -14 111 -32.5t75 -43.5t42.5 -57.5t13.5 -74.5q0 -48 -17.5 -88t-50.5 -68.5t-80 -44t-105 -15.5
q-81 0 -145.5 24t-115.5 68l44 63q40 -39 98.5 -61.5t120.5 -22.5q37 0 69.5 9t56 26.5t37 43.5t13.5 61q0 56 -45 87.5t-143 52.5q-65 14 -110 32t-72.5 42.5t-40 56t-12.5 73.5q0 48 16.5 86t47 65t73.5 41t95 14zM434 777h-72l-79 73l-80 -73h-71l151 140z" />
    <glyph glyph-name="scircumflex" unicode="&#x15d;" horiz-adv-x="449" 
d="M229 510q50 0 91 -15.5t70 -39.5l-32 -56q-25 19 -55.5 32t-72.5 13q-48 0 -77 -17.5t-29 -57.5q0 -18 6.5 -30.5t21 -21.5t37 -16t54.5 -14q88 -21 128.5 -55t40.5 -91q0 -69 -51.5 -110t-138.5 -41q-57 0 -104.5 16t-81.5 44l34 59q29 -25 67.5 -39.5t84.5 -14.5
q51 0 84 20t33 62q0 36 -29 54t-93 33q-87 19 -126 51t-39 90q0 69 48 107t129 38zM373 577h-70l-78 76l-78 -76h-70l148 154z" />
    <glyph glyph-name="Scedilla" unicode="&#x15e;" horiz-adv-x="576" 
d="M279 748q72 0 129.5 -22t99.5 -56l-40 -62q-37 30 -85 49.5t-105 19.5q-33 0 -61.5 -8t-49 -24t-32.5 -41.5t-12 -59.5q0 -29 9.5 -49.5t31 -35.5t56 -26t83.5 -22q65 -14 111 -32.5t75 -43.5t42.5 -57.5t13.5 -74.5q0 -46 -16 -84t-46 -66.5t-73 -45t-97 -19.5l-7 -49
q42 -3 67.5 -26t25.5 -65q0 -47 -29.5 -72.5t-77.5 -25.5q-29 0 -53.5 9.5t-41.5 29.5l31 36q24 -29 62 -29q23 0 39.5 12t16.5 38q0 40 -45 48q-14 2 -25 1t-22 -4l-3 4l16 93q-73 4 -131 27t-105 64l44 63q40 -39 98.5 -61.5t120.5 -22.5q37 0 69.5 9t56 26.5t37 43.5
t13.5 61q0 56 -45 87.5t-143 52.5q-65 14 -110 32t-72.5 42.5t-40 56t-12.5 73.5q0 48 16.5 86t47 65t73.5 41t95 14z" />
    <glyph glyph-name="scedilla" unicode="&#x15f;" horiz-adv-x="449" 
d="M229 510q50 0 91 -15.5t70 -39.5l-32 -56q-25 19 -55.5 32t-72.5 13q-48 0 -77 -17.5t-29 -57.5q0 -18 6.5 -30.5t21 -21.5t37 -16t54.5 -14q88 -21 128.5 -55t40.5 -91q0 -65 -46.5 -105t-124.5 -45l-8 -52q42 -3 67.5 -26t25.5 -65q0 -47 -29.5 -72.5t-77.5 -25.5
q-29 0 -53.5 9.5t-41.5 29.5l31 36q24 -29 62 -29q23 0 39.5 12t16.5 38q0 40 -45 48q-14 2 -25 1t-22 -4l-3 4l16 96q-48 4 -88.5 19t-69.5 40l34 59q29 -25 67.5 -39.5t84.5 -14.5q51 0 84 20t33 62q0 36 -29 54t-93 33q-87 19 -126 51t-39 90q0 69 48 107t129 38z" />
    <glyph glyph-name="Scaron" unicode="&#x160;" horiz-adv-x="576" 
d="M279 748q72 0 129.5 -22t99.5 -56l-40 -62q-37 30 -85 49.5t-105 19.5q-33 0 -61.5 -8t-49 -24t-32.5 -41.5t-12 -59.5q0 -29 9.5 -49.5t31 -35.5t56 -26t83.5 -22q65 -14 111 -32.5t75 -43.5t42.5 -57.5t13.5 -74.5q0 -48 -17.5 -88t-50.5 -68.5t-80 -44t-105 -15.5
q-81 0 -145.5 24t-115.5 68l44 63q40 -39 98.5 -61.5t120.5 -22.5q37 0 69.5 9t56 26.5t37 43.5t13.5 61q0 56 -45 87.5t-143 52.5q-65 14 -110 32t-72.5 42.5t-40 56t-12.5 73.5q0 48 16.5 86t47 65t73.5 41t95 14zM283 770l-151 139h71l80 -72l79 72h72z" />
    <glyph glyph-name="scaron" unicode="&#x161;" horiz-adv-x="449" 
d="M229 510q50 0 91 -15.5t70 -39.5l-32 -56q-25 19 -55.5 32t-72.5 13q-48 0 -77 -17.5t-29 -57.5q0 -18 6.5 -30.5t21 -21.5t37 -16t54.5 -14q88 -21 128.5 -55t40.5 -91q0 -69 -51.5 -110t-138.5 -41q-57 0 -104.5 16t-81.5 44l34 59q29 -25 67.5 -39.5t84.5 -14.5
q51 0 84 20t33 62q0 36 -29 54t-93 33q-87 19 -126 51t-39 90q0 69 48 107t129 38zM225 573l-148 154h70l78 -76l78 76h70z" />
    <glyph glyph-name="Tcommaaccent" unicode="&#x162;" horiz-adv-x="642" 
d="M626 666h-267v-666h-76v666h-267v69h610v-69zM303 -54q26 0 42 -16t16 -42q0 -19 -9 -32l-64 -136h-4v223q9 3 19 3z" />
    <glyph glyph-name="tcommaaccent" unicode="&#x163;" horiz-adv-x="385" 
d="M187 500h165v-64h-165v-278q0 -50 26.5 -75.5t68.5 -25.5q26 0 45 4.5t30 11.5l23 -57q-17 -11 -42.5 -18.5t-60.5 -7.5q-74 0 -118 42t-44 125v279h-102v64h102v170h72v-170zM175 -54q26 0 42 -16t16 -42q0 -19 -9 -32l-64 -136h-4v223q9 3 19 3z" />
    <glyph glyph-name="Tcaron" unicode="&#x164;" horiz-adv-x="642" 
d="M626 666h-267v-666h-76v666h-267v69h610v-69zM320 764l-151 139h71l80 -72l79 72h72z" />
    <glyph glyph-name="tcaron" unicode="&#x165;" horiz-adv-x="527" 
d="M187 500h165v-64h-165v-278q0 -50 26.5 -75.5t68.5 -25.5q26 0 45 4.5t30 11.5l23 -57q-17 -11 -42.5 -18.5t-60.5 -7.5q-74 0 -118 42t-44 125v279h-102v64h102v170h72v-170zM426 748q25 0 41.5 -16t16.5 -41q0 -10 -2.5 -17.5t-6.5 -15.5l-64 -150h-4v238q5 2 9.5 2
h9.5z" />
    <glyph glyph-name="Tbar" unicode="&#x166;" horiz-adv-x="642" 
d="M626 666h-267v-282h155v-53h-155v-331h-76v331h-154v53h154v282h-267v69h610v-69z" />
    <glyph glyph-name="tbar" unicode="&#x167;" horiz-adv-x="385" 
d="M187 500h165v-54h-165v-122h165v-53h-165v-113q0 -50 27 -75.5t72 -25.5q50 0 73 15l19 -59q-14 -9 -39 -16t-59 -7q-75 0 -120 42t-45 125v114h-102v53h102v122h-102v54h102v170h72v-170z" />
    <glyph glyph-name="Utilde" unicode="&#x168;" horiz-adv-x="687" 
d="M609 256q0 -62 -17 -111.5t-50.5 -84.5t-83 -54t-114.5 -19q-66 0 -116 19t-83 54t-50 84.5t-17 111.5v479h75v-475q0 -93 47.5 -147.5t143.5 -54.5q94 0 141.5 54.5t47.5 147.5v475h76v-479zM279 907q29 0 46.5 -13t30 -29t24.5 -29t30 -13q22 0 30.5 22t8.5 55h50
q0 -67 -26.5 -98.5t-66.5 -31.5q-30 0 -46.5 13t-28.5 29t-23.5 29t-30.5 13q-23 0 -32 -22t-9 -55h-50q0 69 27 99.5t66 30.5z" />
    <glyph glyph-name="utilde" unicode="&#x169;" horiz-adv-x="566" 
d="M484 0h-67l-2 66q-12 -14 -28 -28t-36.5 -24.5t-46 -17t-57.5 -6.5q-42 0 -75.5 15t-56 42.5t-34.5 65.5t-12 85v302h73v-299q0 -63 32.5 -102.5t88.5 -39.5q53 0 86.5 24.5t62.5 62.5v354h72v-500zM212 709q29 0 46.5 -13t30 -29t24.5 -29t30 -13q22 0 30.5 22t8.5 55
h50q0 -67 -26.5 -98.5t-66.5 -31.5q-30 0 -46.5 13t-28.5 29t-23.5 29t-30.5 13q-23 0 -32 -22t-9 -55h-50q0 69 27 99.5t66 30.5z" />
    <glyph glyph-name="Umacron" unicode="&#x16a;" horiz-adv-x="687" 
d="M609 256q0 -62 -17 -111.5t-50.5 -84.5t-83 -54t-114.5 -19q-66 0 -116 19t-83 54t-50 84.5t-17 111.5v479h75v-475q0 -93 47.5 -147.5t143.5 -54.5q94 0 141.5 54.5t47.5 147.5v475h76v-479zM469 790h-252v53h252v-53z" />
    <glyph glyph-name="umacron" unicode="&#x16b;" horiz-adv-x="566" 
d="M484 0h-67l-2 66q-12 -14 -28 -28t-36.5 -24.5t-46 -17t-57.5 -6.5q-42 0 -75.5 15t-56 42.5t-34.5 65.5t-12 85v302h73v-299q0 -63 32.5 -102.5t88.5 -39.5q53 0 86.5 24.5t62.5 62.5v354h72v-500zM401 599h-252v53h252v-53z" />
    <glyph glyph-name="Ubreve" unicode="&#x16c;" horiz-adv-x="687" 
d="M609 256q0 -62 -17 -111.5t-50.5 -84.5t-83 -54t-114.5 -19q-66 0 -116 19t-83 54t-50 84.5t-17 111.5v479h75v-475q0 -93 47.5 -147.5t143.5 -54.5q94 0 141.5 54.5t47.5 147.5v475h76v-479zM488 910q0 -30 -11 -55t-30.5 -43t-46 -28.5t-57.5 -10.5t-58 10.5
t-46.5 28.5t-30.5 43t-11 55h54q0 -35 25.5 -60t66.5 -25q40 0 65.5 25t25.5 60h54z" />
    <glyph glyph-name="ubreve" unicode="&#x16d;" horiz-adv-x="566" 
d="M484 0h-67l-2 66q-12 -14 -28 -28t-36.5 -24.5t-46 -17t-57.5 -6.5q-42 0 -75.5 15t-56 42.5t-34.5 65.5t-12 85v302h73v-299q0 -63 32.5 -102.5t88.5 -39.5q53 0 86.5 24.5t62.5 62.5v354h72v-500zM421 718q0 -30 -11 -56t-30.5 -44.5t-46 -29t-57.5 -10.5t-58 10.5
t-46.5 29t-30.5 44.5t-11 56h55q0 -38 25.5 -63t65.5 -25q39 0 64.5 25t25.5 63h55z" />
    <glyph glyph-name="Uring" unicode="&#x16e;" horiz-adv-x="687" 
d="M609 256q0 -62 -17 -111.5t-50.5 -84.5t-83 -54t-114.5 -19q-66 0 -116 19t-83 54t-50 84.5t-17 111.5v479h75v-475q0 -93 47.5 -147.5t143.5 -54.5q94 0 141.5 54.5t47.5 147.5v475h76v-479zM343 974q44 0 73 -29t29 -73q0 -45 -29 -73t-73 -28q-45 0 -74 28t-29 73
q0 44 29 73t74 29zM343 930q-24 0 -40.5 -17t-16.5 -41q0 -25 16.5 -41t40.5 -16t40.5 16t16.5 41q0 24 -16.5 41t-40.5 17z" />
    <glyph glyph-name="uring" unicode="&#x16f;" horiz-adv-x="566" 
d="M484 0h-67l-2 66q-12 -14 -28 -28t-36.5 -24.5t-46 -17t-57.5 -6.5q-42 0 -75.5 15t-56 42.5t-34.5 65.5t-12 85v302h73v-299q0 -63 32.5 -102.5t88.5 -39.5q53 0 86.5 24.5t62.5 62.5v354h72v-500zM276 775q44 0 73 -29t29 -73t-29 -72.5t-73 -28.5q-45 0 -74 28.5
t-29 72.5t29 73t74 29zM276 731q-24 0 -40.5 -16.5t-16.5 -41.5t16.5 -40.5t40.5 -15.5t40.5 15.5t16.5 40.5t-16.5 41.5t-40.5 16.5z" />
    <glyph glyph-name="Uhungarumlaut" unicode="&#x170;" horiz-adv-x="687" 
d="M609 256q0 -62 -17 -111.5t-50.5 -84.5t-83 -54t-114.5 -19q-66 0 -116 19t-83 54t-50 84.5t-17 111.5v479h75v-475q0 -93 47.5 -147.5t143.5 -54.5q94 0 141.5 54.5t47.5 147.5v475h76v-479zM291 775h-63l101 117h69zM444 775h-64l102 117h69z" />
    <glyph glyph-name="uhungarumlaut" unicode="&#x171;" horiz-adv-x="566" 
d="M484 0h-67l-2 66q-12 -14 -28 -28t-36.5 -24.5t-46 -17t-57.5 -6.5q-42 0 -75.5 15t-56 42.5t-34.5 65.5t-12 85v302h73v-299q0 -63 32.5 -102.5t88.5 -39.5q53 0 86.5 24.5t62.5 62.5v354h72v-500zM219 571h-65l108 141h69zM376 571h-65l108 141h69z" />
    <glyph glyph-name="Uogonek" unicode="&#x172;" horiz-adv-x="687" 
d="M609 256q0 -97 -40.5 -162.5t-121.5 -91.5q-38 -21 -38 -64q0 -37 22 -55.5t54 -18.5q19 0 33 7l17 -45q-20 -9 -51 -9q-54 0 -90.5 32t-36.5 89q0 28 11 50q-6 0 -12 -0.5t-12 -0.5q-66 0 -116 19t-83 54t-50 84.5t-17 111.5v479h75v-475q0 -93 47.5 -147.5t143.5 -54.5
q94 0 141.5 54.5t47.5 147.5v475h76v-479z" />
    <glyph glyph-name="uogonek" unicode="&#x173;" horiz-adv-x="566" 
d="M484 0h-9q-22 -9 -34.5 -26t-12.5 -42q0 -37 22 -55.5t54 -18.5q19 0 33 7l17 -45q-20 -9 -51 -9q-54 0 -90.5 32t-36.5 89q0 29 11 50t29 35l-1 49q-12 -14 -28 -28t-36.5 -24.5t-46 -17t-57.5 -6.5q-42 0 -75.5 15t-56 42.5t-34.5 65.5t-12 85v302h73v-299
q0 -63 32.5 -102.5t88.5 -39.5q53 0 86.5 24.5t62.5 62.5v354h72v-500z" />
    <glyph glyph-name="Wcircumflex" unicode="&#x174;" horiz-adv-x="986" 
d="M693 -12h-4l-196 542l-195 -542h-4l-282 747h84l199 -545l196 545h4l196 -545l200 545h84zM643 771h-72l-79 73l-80 -73h-71l151 140z" />
    <glyph glyph-name="wcircumflex" unicode="&#x175;" horiz-adv-x="758" 
d="M533 -10h-4l-150 349l-150 -349h-4l-213 510h81l138 -344l146 344h4l146 -344l139 344h80zM527 577h-70l-78 76l-78 -76h-70l148 154z" />
    <glyph glyph-name="Ycircumflex" unicode="&#x176;" horiz-adv-x="641" 
d="M358 316v-316h-76v315l-274 419h89l223 -342l223 342h89zM470 771h-72l-79 73l-80 -73h-71l151 140z" />
    <glyph glyph-name="ycircumflex" unicode="&#x177;" horiz-adv-x="538" 
d="M166 -230h-82l146 288l-211 442h80l170 -360l170 360h80zM411 577h-70l-78 76l-78 -76h-70l148 154z" />
    <glyph glyph-name="Ydieresis" unicode="&#x178;" horiz-adv-x="641" 
d="M358 316v-316h-76v315l-274 419h89l223 -342l223 342h89zM239 871q20 0 33.5 -13t13.5 -33t-13.5 -32.5t-33.5 -12.5t-32.5 12.5t-12.5 32.5t12.5 33t32.5 13zM399 871q20 0 33.5 -13t13.5 -33t-13.5 -32.5t-33.5 -12.5t-32.5 12.5t-12.5 32.5t12.5 33t32.5 13z" />
    <glyph glyph-name="Zacute" unicode="&#x179;" horiz-adv-x="573" 
d="M533 731l-384 -661h396v-70h-517v4l386 661h-369v70h488v-4zM316 772h-84l137 113h94z" />
    <glyph glyph-name="zacute" unicode="&#x17a;" horiz-adv-x="440" 
d="M415 496l-275 -433h275v-63h-391v4l273 432h-258v64h376v-4zM248 578h-78l140 123h91z" />
    <glyph glyph-name="Zdotaccent" unicode="&#x17b;" horiz-adv-x="573" 
d="M533 731l-384 -661h396v-70h-517v4l386 661h-369v70h488v-4zM286 871q21 0 35 -14t14 -36q0 -21 -14 -35t-35 -14t-35 14t-14 35q0 22 14 36t35 14z" />
    <glyph glyph-name="zdotaccent" unicode="&#x17c;" horiz-adv-x="440" 
d="M415 496l-275 -433h275v-63h-391v4l273 432h-258v64h376v-4zM218 707q23 0 37.5 -14.5t14.5 -37.5t-14.5 -37.5t-37.5 -14.5t-37.5 14.5t-14.5 37.5t14.5 37.5t37.5 14.5z" />
    <glyph glyph-name="Zcaron" unicode="&#x17d;" horiz-adv-x="573" 
d="M533 731l-384 -661h396v-70h-517v4l386 661h-369v70h488v-4zM286 764l-151 139h71l80 -72l79 72h72z" />
    <glyph glyph-name="zcaron" unicode="&#x17e;" horiz-adv-x="440" 
d="M415 496l-275 -433h275v-63h-391v4l273 432h-258v64h376v-4zM219 573l-148 154h70l78 -76l78 76h70z" />
    <glyph glyph-name="florin" unicode="&#x192;" horiz-adv-x="356" 
d="M300 752q65 0 106 -38l-30 -57q-14 14 -31 22t-41 8q-41 0 -64.5 -29t-28.5 -78l-9 -80h111l-6 -64h-112l-57 -515q-4 -35 -16.5 -64.5t-33.5 -51t-49.5 -33.5t-63.5 -12q-32 0 -58.5 10t-46.5 27l30 57q14 -14 31 -21.5t41 -7.5q41 0 64.5 28.5t28.5 77.5l55 505h-76
l7 64h77l10 91q4 34 16.5 63.5t33.5 51.5t49 34t63 12z" />
    <glyph glyph-name="Aringacute" unicode="&#x1fa;" horiz-adv-x="684" 
d="M673 0h-81l-74 172h-352l-74 -172h-81l329 748h4zM195 240h294l-147 339zM373 966q32 -9 51.5 -35.5t19.5 -61.5q0 -44 -29 -72.5t-73 -28.5q-45 0 -74 28.5t-29 72.5q0 42 27 71h-4l140 123h91zM342 927q-24 0 -40.5 -16.5t-16.5 -41.5t16.5 -40.5t40.5 -15.5t40.5 15.5
t16.5 40.5t-16.5 41.5t-40.5 16.5z" />
    <glyph glyph-name="aringacute" unicode="&#x1fb;" 
d="M265 510q65 0 106 -23.5t64 -52.5l2 66h67v-500h-67l-2 67q-11 -15 -27 -28.5t-37 -24.5t-47.5 -17.5t-58.5 -6.5q-51 0 -94 19.5t-73.5 54t-47.5 82t-17 104.5q0 56 17 104t47.5 82.5t73.5 54t94 19.5zM276 444q-37 0 -68.5 -14.5t-54 -40t-35 -61t-12.5 -78.5t12.5 -79
t35 -61.5t54 -40t68.5 -14.5q57 0 93.5 25.5t62.5 65.5v208q-26 39 -62.5 64.5t-93.5 25.5zM319 756q30 -10 49 -35.5t19 -60.5q0 -44 -29 -72.5t-73 -28.5q-45 0 -74 28.5t-29 72.5t30 74h-6l137 113h94zM285 718q-24 0 -40.5 -16.5t-16.5 -41.5t16.5 -40.5t40.5 -15.5
t40.5 15.5t16.5 40.5t-16.5 41.5t-40.5 16.5z" />
    <glyph glyph-name="AEacute" unicode="&#x1fc;" horiz-adv-x="860" 
d="M823 664h-428l108 -259h277v-66h-250l112 -268h189v-71h-242l-73 176h-349l-72 -176h-84l315 735h497v-71zM193 237h298l-149 361zM526 772h-84l137 113h94z" />
    <glyph glyph-name="aeacute" unicode="&#x1fd;" horiz-adv-x="942" 
d="M681 510q54 0 96.5 -19.5t72 -54t44.5 -82t15 -102.5v-28h-394q4 -79 46.5 -125t130.5 -46q54 0 93 21t62 50l51 -43q-36 -44 -88 -67.5t-116 -23.5q-71 0 -119.5 25t-72.5 67l-3 -82h-63l-2 67q-11 -15 -27 -28.5t-37 -24.5t-47.5 -17.5t-58.5 -6.5q-51 0 -94 19.5
t-73.5 54t-47.5 82t-17 104.5q0 56 17 104t47.5 82.5t73.5 54t94 19.5q65 0 106 -23.5t64 -52.5l2 66h64l2 -83q27 41 71.5 67t107.5 26zM678 446q-33 0 -62 -10.5t-50.5 -31.5t-35 -51t-16.5 -69h323q-3 72 -44 117t-115 45zM275 444q-37 0 -68.5 -14.5t-54 -40t-35 -61
t-12.5 -78.5t12.5 -79t35 -61.5t54 -40t68.5 -14.5q57 0 93.5 25.5t62.5 65.5v208q-26 39 -62.5 64.5t-93.5 25.5zM498 578h-78l140 123h91z" />
    <glyph glyph-name="Oslashacute" unicode="&#x1fe;" horiz-adv-x="802" 
d="M401 748q42 0 81 -8.5t74 -24.5l55 100h68l-71 -129q74 -51 117 -133.5t43 -185.5q0 -83 -27.5 -152.5t-76.5 -120t-116.5 -79t-146.5 -28.5q-43 0 -82 8.5t-74 23.5l-54 -99h-69l70 128q-73 50 -115 132.5t-42 186.5q0 82 27 152t76 121t116 79.5t147 28.5zM691 367
q0 81 -31.5 147t-86.5 107l-293 -538q56 -25 121 -25q63 0 116.5 23t92 64.5t60 98t21.5 123.5zM401 677q-63 0 -116.5 -23.5t-92 -64.5t-60 -98t-21.5 -124q0 -81 31 -146.5t85 -106.5l294 537q-27 12 -57 19t-63 7zM429 782h-84l137 113h94z" />
    <glyph glyph-name="oslashacute" unicode="&#x1ff;" horiz-adv-x="568" 
d="M284 510q28 0 54 -5.5t50 -15.5l44 81h52l-56 -104q51 -35 80 -91t29 -126q0 -56 -19 -103.5t-53 -82t-80 -54t-101 -19.5t-102 19l-43 -79h-54l55 102q-51 34 -79.5 90t-28.5 127q0 56 18.5 104t52 83t80 54.5t101.5 19.5zM284 447q-40 0 -73.5 -15t-57.5 -41.5
t-37.5 -62.5t-13.5 -79q0 -51 18.5 -92t51.5 -67l185 342q-17 7 -35 11t-38 4zM466 249q0 51 -19 91.5t-51 66.5l-184 -341q34 -14 72 -14q39 0 72.5 14.5t58 41t38 62.5t13.5 79zM299 578h-78l140 123h91z" />
    <glyph glyph-name="Scommaaccent" unicode="&#x218;" horiz-adv-x="576" 
d="M279 748q72 0 129.5 -22t99.5 -56l-40 -62q-37 30 -85 49.5t-105 19.5q-33 0 -61.5 -8t-49 -24t-32.5 -41.5t-12 -59.5q0 -29 9.5 -49.5t31 -35.5t56 -26t83.5 -22q65 -14 111 -32.5t75 -43.5t42.5 -57.5t13.5 -74.5q0 -48 -17.5 -88t-50.5 -68.5t-80 -44t-105 -15.5
q-81 0 -145.5 24t-115.5 68l44 63q40 -39 98.5 -61.5t120.5 -22.5q37 0 69.5 9t56 26.5t37 43.5t13.5 61q0 56 -45 87.5t-143 52.5q-65 14 -110 32t-72.5 42.5t-40 56t-12.5 73.5q0 48 16.5 86t47 65t73.5 41t95 14zM283 -54q26 0 42 -16t16 -42q0 -19 -9 -32l-64 -136h-4
v223q9 3 19 3z" />
    <glyph glyph-name="scommaaccent" unicode="&#x219;" horiz-adv-x="449" 
d="M229 510q50 0 91 -15.5t70 -39.5l-32 -56q-25 19 -55.5 32t-72.5 13q-48 0 -77 -17.5t-29 -57.5q0 -18 6.5 -30.5t21 -21.5t37 -16t54.5 -14q88 -21 128.5 -55t40.5 -91q0 -69 -51.5 -110t-138.5 -41q-57 0 -104.5 16t-81.5 44l34 59q29 -25 67.5 -39.5t84.5 -14.5
q51 0 84 20t33 62q0 36 -29 54t-93 33q-87 19 -126 51t-39 90q0 69 48 107t129 38zM204 -54q26 0 42 -16t16 -42q0 -19 -9 -32l-64 -136h-4v223q9 3 19 3z" />
    <glyph glyph-name="circumflex" unicode="&#x2c6;" horiz-adv-x="340" 
d="M318 577h-70l-78 76l-78 -76h-70l148 154z" />
    <glyph glyph-name="caron" unicode="&#x2c7;" horiz-adv-x="340" 
d="M170 573l-148 154h70l78 -76l78 76h70z" />
    <glyph glyph-name="breve" unicode="&#x2d8;" horiz-adv-x="335" 
d="M313 718q0 -30 -11 -56t-30.5 -44.5t-46 -29t-57.5 -10.5t-58 10.5t-46.5 29t-30.5 44.5t-11 56h55q0 -38 25.5 -63t65.5 -25q39 0 64.5 25t25.5 63h55v0z" />
    <glyph glyph-name="dotaccent" unicode="&#x2d9;" horiz-adv-x="148" 
d="M74 707q23 0 37.5 -14.5t14.5 -37.5t-14.5 -37.5t-37.5 -14.5t-37.5 14.5t-14.5 37.5t14.5 37.5t37.5 14.5z" />
    <glyph glyph-name="ring" unicode="&#x2da;" horiz-adv-x="250" 
d="M125 775q44 0 73 -29t29 -73t-29 -72.5t-73 -28.5q-45 0 -74 28.5t-29 72.5t29 73t74 29zM125 731q-24 0 -40.5 -16.5t-16.5 -41.5t16.5 -40.5t40.5 -15.5t40.5 15.5t16.5 40.5t-16.5 41.5t-40.5 16.5z" />
    <glyph glyph-name="ogonek" unicode="&#x2db;" horiz-adv-x="221" 
d="M128 0q-22 -9 -34.5 -26t-12.5 -42q0 -37 22 -55.5t54 -18.5q19 0 33 7l17 -45q-20 -9 -51 -9q-54 0 -90.5 32t-36.5 89q0 43 22.5 68.5t57.5 39.5z" />
    <glyph glyph-name="tilde" unicode="&#x2dc;" horiz-adv-x="358" 
d="M115 709q29 0 46.5 -13t30 -29t24.5 -29t30 -13q22 0 30.5 22t8.5 55h50q0 -67 -26.5 -98.5t-66.5 -31.5q-30 0 -46.5 13t-28.5 29t-23.5 29t-30.5 13q-23 0 -32 -22t-9 -55h-50q0 69 27 99.5t66 30.5z" />
    <glyph glyph-name="hungarumlaut" unicode="&#x2dd;" horiz-adv-x="369" 
d="M122 571h-65l108 141h69zM279 571h-65l108 141h69z" />
    <glyph glyph-name="Omega" unicode="&#x3a9;" horiz-adv-x="858" 
d="M434 749q75 0 136 -26t104.5 -71.5t67 -108.5t23.5 -137q0 -63 -14.5 -113t-37.5 -90.5t-51 -71t-55 -54.5h215v-77h-333v74q42 28 77.5 62t62 75.5t41.5 89t15 102.5q0 58 -17 107t-49 85t-78.5 56t-106.5 20q-59 0 -105.5 -20t-79 -56t-49.5 -85t-17 -107
q0 -55 15 -102.5t41.5 -89t62.5 -75.5t78 -62v-74h-332v77h214q-26 24 -54 54.5t-51 71t-38 90.5t-15 113q0 74 23.5 137t67 108.5t104.5 71.5t135 26z" />
    <glyph glyph-name="pi" unicode="&#x3c0;" horiz-adv-x="690" 
d="M672 543q-11 -26 -23.5 -46t-31 -33.5t-45 -20.5t-65.5 -7h-17l-38 -289q-5 -45 4 -64t40 -19q23 0 41.5 7.5t33.5 20.5l27 -50q-26 -20 -54.5 -32.5t-72.5 -12.5q-30 0 -49 9.5t-28.5 27t-11 42.5t2.5 56l40 304h-133l-35 -263q-5 -34 -10.5 -59.5t-11 -46t-12 -36.5
t-12.5 -31h-73q23 48 35.5 93.5t18.5 91.5l35 251h-33q-50 0 -81.5 -20t-57.5 -46l-34 50q20 19 39 34.5t42 25.5t52 15.5t70 5.5h249q36 0 59.5 4.5t39 13.5t26 23t20.5 34z" />
    <glyph glyph-name="Wgrave" unicode="&#x1e80;" horiz-adv-x="986" 
d="M693 -12h-4l-196 542l-195 -542h-4l-282 747h84l199 -545l196 545h4l196 -545l200 545h84zM539 772h-84l-147 113h94z" />
    <glyph glyph-name="wgrave" unicode="&#x1e81;" horiz-adv-x="758" 
d="M533 -10h-4l-150 349l-150 -349h-4l-213 510h81l138 -344l146 344h4l146 -344l139 344h80zM425 578h-78l-153 123h91z" />
    <glyph glyph-name="Wacute" unicode="&#x1e82;" horiz-adv-x="986" 
d="M693 -12h-4l-196 542l-195 -542h-4l-282 747h84l199 -545l196 545h4l196 -545l200 545h84zM523 772h-84l137 113h94z" />
    <glyph glyph-name="wacute" unicode="&#x1e83;" horiz-adv-x="758" 
d="M533 -10h-4l-150 349l-150 -349h-4l-213 510h81l138 -344l146 344h4l146 -344l139 344h80zM407 578h-78l140 123h91z" />
    <glyph glyph-name="Wdieresis" unicode="&#x1e84;" horiz-adv-x="986" 
d="M693 -12h-4l-196 542l-195 -542h-4l-282 747h84l199 -545l196 545h4l196 -545l200 545h84zM412 871q20 0 33.5 -13t13.5 -33t-13.5 -32.5t-33.5 -12.5t-32.5 12.5t-12.5 32.5t12.5 33t32.5 13zM572 871q20 0 33.5 -13t13.5 -33t-13.5 -32.5t-33.5 -12.5t-32.5 12.5
t-12.5 32.5t12.5 33t32.5 13z" />
    <glyph glyph-name="wdieresis" unicode="&#x1e85;" horiz-adv-x="758" 
d="M533 -10h-4l-150 349l-150 -349h-4l-213 510h81l138 -344l146 344h4l146 -344l139 344h80zM298 683q20 0 33.5 -13t13.5 -33t-13.5 -33t-33.5 -13t-32.5 13t-12.5 33t12.5 33t32.5 13zM458 683q20 0 33.5 -13t13.5 -33t-13.5 -33t-33.5 -13t-32.5 13t-12.5 33t12.5 33
t32.5 13z" />
    <glyph glyph-name="Ygrave" unicode="&#x1ef2;" horiz-adv-x="641" 
d="M358 316v-316h-76v315l-274 419h89l223 -342l223 342h89zM366 772h-84l-147 113h94z" />
    <glyph glyph-name="ygrave" unicode="&#x1ef3;" horiz-adv-x="538" 
d="M166 -230h-82l146 288l-211 442h80l170 -360l170 360h80zM310 578h-78l-153 123h91z" />
    <glyph glyph-name="endash" unicode="&#x2013;" horiz-adv-x="559" 
d="M517 225h-475v67h475v-67z" />
    <glyph glyph-name="emdash" unicode="&#x2014;" horiz-adv-x="803" 
d="M761 225h-719v67h719v-67z" />
    <glyph glyph-name="quoteleft" unicode="&#x2018;" horiz-adv-x="171" 
d="M119 528q-9 -3 -19 -3q-25 0 -41.5 16t-16.5 42q0 10 2.5 17.5t6.5 14.5l64 150h4v-237z" />
    <glyph glyph-name="quoteright" unicode="&#x2019;" horiz-adv-x="171" 
d="M71 748q25 0 41.5 -16t16.5 -41q0 -10 -2.5 -17.5t-6.5 -15.5l-64 -150h-4v238q5 2 9.5 2h9.5z" />
    <glyph glyph-name="quotesinglbase" unicode="&#x201a;" horiz-adv-x="171" 
d="M71 100q25 0 41.5 -16t16.5 -42q0 -10 -2.5 -17t-6.5 -15l-64 -150h-4v237q9 3 19 3z" />
    <glyph glyph-name="quotedblleft" unicode="&#x201c;" horiz-adv-x="338" 
d="M119 528q-9 -3 -19 -3q-25 0 -41.5 16t-16.5 42q0 10 2.5 17.5t6.5 14.5l64 150h4v-237zM285 528q-9 -3 -19 -3q-25 0 -41.5 16t-16.5 42q0 10 2.5 17.5t6.5 14.5l64 150h4v-237z" />
    <glyph glyph-name="quotedblright" unicode="&#x201d;" horiz-adv-x="338" 
d="M71 748q25 0 41.5 -16t16.5 -41q0 -10 -2.5 -17.5t-6.5 -15.5l-64 -150h-4v238q5 2 9.5 2h9.5zM237 748q25 0 41.5 -16t16.5 -41q0 -10 -2.5 -17.5t-6.5 -15.5l-64 -150h-4v238q5 2 9.5 2h9.5z" />
    <glyph glyph-name="quotedblbase" unicode="&#x201e;" horiz-adv-x="346" 
d="M71 100q25 0 41.5 -16t16.5 -42q0 -10 -2.5 -17t-6.5 -15l-64 -150h-4v237q9 3 19 3zM245 100q25 0 41.5 -16t16.5 -42q0 -10 -2.5 -17t-6.5 -15l-64 -150h-4v237q9 3 19 3z" />
    <glyph glyph-name="dagger" unicode="&#x2020;" horiz-adv-x="490" 
d="M281 551h178v-67h-178v-484h-72v484h-178v67h178v184h72v-184z" />
    <glyph glyph-name="daggerdbl" unicode="&#x2021;" horiz-adv-x="490" 
d="M281 551h178v-67h-178v-233h178v-67h-178v-184h-72v184h-178v67h178v233h-178v67h178v184h72v-184z" />
    <glyph glyph-name="bullet" unicode="&#x2022;" horiz-adv-x="295" 
d="M147 367q48 0 78.5 -30.5t30.5 -78.5q0 -47 -30.5 -77.5t-78.5 -30.5q-47 0 -77.5 30.5t-30.5 77.5q0 48 30.5 78.5t77.5 30.5z" />
    <glyph glyph-name="ellipsis" unicode="&#x2026;" horiz-adv-x="621" 
d="M96 106q26 0 42 -16t16 -42t-16 -42t-42 -16q-25 0 -41 16t-16 42q0 25 16 41.5t41 16.5zM310 106q26 0 42 -16t16 -42t-16 -42t-42 -16q-25 0 -41 16t-16 42q0 25 16 41.5t41 16.5zM524 106q26 0 42 -16t16 -42t-16 -42t-42 -16q-25 0 -41.5 16t-16.5 42q0 25 16.5 41.5
t41.5 16.5z" />
    <glyph glyph-name="perthousand" unicode="&#x2030;" horiz-adv-x="1263" 
d="M217 0h-75l482 735h75zM198 748q38 0 70 -14t55.5 -38.5t36.5 -58t13 -73.5t-13 -73.5t-36.5 -57.5t-55.5 -37.5t-70 -13.5t-70 13.5t-55.5 37.5t-36.5 57.5t-13 73.5t13 73.5t36.5 58t55.5 38.5t70 14zM198 692q-26 0 -47 -9.5t-37 -26.5t-24.5 -40.5t-8.5 -51.5
q0 -27 8.5 -50.5t24.5 -40.5t37 -26.5t47 -9.5q25 0 46.5 9.5t37.5 26.5t24.5 40.5t8.5 50.5q0 28 -8.5 51.5t-24.5 40.5t-37.5 26.5t-46.5 9.5zM644 354q38 0 70 -14t55.5 -38.5t36.5 -58t13 -73.5t-13 -73.5t-36.5 -57.5t-55.5 -37.5t-70 -13.5t-70.5 13.5t-55.5 37.5
t-36 57.5t-13 73.5t13 73.5t36 58t55.5 38.5t70.5 14zM644 298q-26 0 -47 -9.5t-37 -26.5t-24.5 -40.5t-8.5 -51.5q0 -27 8.5 -50.5t24.5 -40t37 -26t47 -9.5q25 0 46.5 9.5t37.5 26t24.5 40t8.5 50.5q0 28 -8.5 51.5t-24.5 40.5t-37.5 26.5t-46.5 9.5zM1043 354
q37 0 69 -14t55.5 -38.5t36.5 -58t13 -73.5t-13 -73.5t-36.5 -57.5t-55.5 -37.5t-69 -13.5q-38 0 -70.5 13.5t-55.5 37.5t-36 57.5t-13 73.5t13 73.5t36 58t55.5 38.5t70.5 14zM1043 298q-26 0 -47 -9.5t-37 -26.5t-24.5 -40.5t-8.5 -51.5q0 -27 8.5 -50.5t24.5 -40t37 -26
t47 -9.5q25 0 46.5 9.5t37 26t24 40t8.5 50.5q0 56 -32.5 92t-83.5 36z" />
    <glyph glyph-name="guilsinglleft" unicode="&#x2039;" horiz-adv-x="324" 
d="M103 256l206 -202h-90l-204 200v4l204 200h90z" />
    <glyph glyph-name="guilsinglright" unicode="&#x203a;" horiz-adv-x="324" 
d="M309 258v-4l-204 -200h-90l206 202l-206 202h90z" />
    <glyph glyph-name="fraction" unicode="&#x2044;" horiz-adv-x="191" 
d="M-52 0h-69l364 734h69z" />
    <glyph glyph-name="uni2070" unicode="&#x2070;" horiz-adv-x="380" 
d="M194 821q73 0 113 -59t40 -158q0 -50 -10 -90t-29.5 -68.5t-48 -44t-65.5 -15.5q-74 0 -114.5 59.5t-40.5 158.5t40.5 158t114.5 59zM194 769q-50 0 -73.5 -44.5t-23.5 -120.5t23.5 -121t73.5 -45q48 0 71.5 45t23.5 121t-23.5 120.5t-71.5 44.5z" />
    <glyph glyph-name="uni2074" unicode="&#x2074;" horiz-adv-x="360" 
d="M280 517h61v-47h-61v-76h-56v76h-209v3l263 349h2v-305zM110 516h115v159z" />
    <glyph glyph-name="uni2075" unicode="&#x2075;" horiz-adv-x="350" 
d="M294 761h-173v-123q11 6 26 10t34 4q62 0 101.5 -35t39.5 -98q0 -28 -10 -52.5t-28 -42.5t-43.5 -28t-57.5 -10q-57 0 -90.5 23.5t-51.5 67.5l49 24q11 -29 32 -45.5t57 -16.5q38 0 61.5 23.5t23.5 59.5q0 35 -23.5 58t-64.5 23q-24 0 -43 -7.5t-33 -17.5l-36 16v219h230
v-52z" />
    <glyph glyph-name="uni2076" unicode="&#x2076;" horiz-adv-x="354" 
d="M179 662q30 0 56 -10.5t46 -28.5t31.5 -43.5t11.5 -55.5t-11.5 -55.5t-31.5 -44t-46 -28.5t-56 -10q-29 0 -55 10t-45.5 28.5t-31 44t-11.5 55.5q0 26 8.5 48.5t23.5 39.5l138 201h66l-105 -152q4 1 12 1zM179 613q-36 0 -61.5 -25t-25.5 -64t25.5 -64t61.5 -25
q38 0 63.5 25t25.5 64t-25.5 64t-63.5 25z" />
    <glyph glyph-name="uni2077" unicode="&#x2077;" horiz-adv-x="350" 
d="M330 809l-223 -415h-63l201 366h-212v53h297v-4z" />
    <glyph glyph-name="uni2078" unicode="&#x2078;" horiz-adv-x="354" 
d="M177 821q26 0 49 -8.5t40 -23.5t27 -36t10 -46q0 -30 -15.5 -53.5t-39.5 -37.5q33 -15 53.5 -42t20.5 -62q0 -27 -11.5 -50.5t-31 -40t-46 -26t-56.5 -9.5q-29 0 -55 9.5t-45.5 26t-31 40t-11.5 50.5q0 35 20.5 62t52.5 41q-24 14 -39 38t-15 54q0 25 10 46t26.5 36
t39 23.5t48.5 8.5zM177 588q-37 0 -62 -22t-25 -55t25 -54.5t62 -21.5q38 0 63.5 21.5t25.5 54.5t-25.5 55t-63.5 22zM177 773q-30 0 -51.5 -19.5t-21.5 -48.5q0 -31 21.5 -50t51.5 -19q31 0 52.5 19t21.5 50q0 29 -21.5 48.5t-52.5 19.5z" />
    <glyph glyph-name="uni2079" unicode="&#x2079;" horiz-adv-x="354" 
d="M180 820q30 0 56 -10t45.5 -28.5t31 -43.5t11.5 -55q0 -24 -7.5 -45.5t-20.5 -38.5l-142 -205h-66l104 151h-12q-29 0 -55.5 10.5t-46 28.5t-31 43.5t-11.5 55.5t11.5 55t31 43.5t46 28.5t55.5 10zM180 771q-37 0 -62.5 -24.5t-25.5 -63.5q0 -40 25.5 -64.5t62.5 -24.5
t62.5 24.5t25.5 64.5q0 39 -25.5 63.5t-62.5 24.5z" />
    <glyph glyph-name="uni207F" unicode="&#x207f;" horiz-adv-x="419" 
d="M233 746q64 0 98.5 -41t34.5 -109v-208h-61v205q0 42 -23 68.5t-63 26.5q-33 0 -55 -15.5t-41 -40.5v-244h-61v351h55l2 -45q16 18 44 35t70 17z" />
    <glyph glyph-name="Euro" unicode="&#x20ac;" horiz-adv-x="655" 
d="M423 256h-237q21 -96 77 -149t137 -53q64 0 104.5 23t69.5 53l46 -54q-38 -38 -90 -64t-130 -26q-57 0 -105 18.5t-85.5 53t-63.5 85t-38 113.5h-71v53h63q-1 14 -1.5 28.5t-0.5 29.5q0 30 3 60h-64v53h71q25 126 100.5 197t188.5 71q40 0 72.5 -7t59 -19.5t47.5 -28.5
t38 -34l-45 -53q-13 14 -29 27t-36.5 23.5t-47 17t-59.5 6.5q-80 0 -135 -53t-76 -147h237v-53h-245q-3 -29 -3 -60t3 -58h245v-53z" />
    <glyph glyph-name="afii61289" unicode="&#x2113;" horiz-adv-x="584" 
d="M325 750q70 0 108.5 -39.5t38.5 -105.5q0 -49 -19 -95t-50.5 -89.5t-73 -85.5t-86.5 -83v-90q0 -24 4 -44.5t14 -35t28 -22.5t46 -8q31 0 55 15.5t42.5 36t30.5 41t19 30.5l43 -33q-9 -16 -26.5 -41.5t-43 -50t-59.5 -42.5t-75 -18q-43 0 -70.5 12t-43 32.5t-21.5 47.5
t-6 57v63q-23 -21 -51 -45t-46 -38l-35 50q13 11 29.5 24.5t34 28.5t34.5 30t31 29v302q0 81 33.5 124t114.5 43zM325 695q-46 0 -66.5 -26.5t-20.5 -79.5v-265q35 32 66.5 66t55.5 68.5t38 70.5t14 73q0 43 -21 68t-66 25z" />
    <glyph glyph-name="trademark" unicode="&#x2122;" horiz-adv-x="823" 
d="M345 680h-134v-321h-57v321h-133v55h324v-55zM784 359h-56v211l-133 -213h-4l-133 213v-211h-56v383h2l189 -289l189 289h2v-383z" />
    <glyph glyph-name="uni2126" unicode="&#x2126;" horiz-adv-x="858" 
d="M434 749q75 0 136 -26t104.5 -71.5t67 -108.5t23.5 -137q0 -63 -14.5 -113t-37.5 -90.5t-51 -71t-55 -54.5h215v-77h-333v74q42 28 77.5 62t62 75.5t41.5 89t15 102.5q0 58 -17 107t-49 85t-78.5 56t-106.5 20q-59 0 -105.5 -20t-79 -56t-49.5 -85t-17 -107
q0 -55 15 -102.5t41.5 -89t62.5 -75.5t78 -62v-74h-332v77h214q-26 24 -54 54.5t-51 71t-38 90.5t-15 113q0 74 23.5 137t67 108.5t104.5 71.5t135 26z" />
    <glyph glyph-name="estimated" unicode="&#x212e;" horiz-adv-x="591" 
d="M308 511q-42 0 -79.5 -13t-60.5 -33q-17 -11 -24 -26t-7 -29v-105h321v109q0 23 -5 36.5t-21 23.5q-25 18 -54.5 27.5t-69.5 9.5zM308 537q52 0 97.5 -17t79 -50t52.5 -81t19 -109h-419v-162q0 -18 6.5 -32t22.5 -24q26 -20 59.5 -34t82.5 -14q139 0 224 129l22 -13
q-41 -65 -103 -103t-143 -38q-57 0 -107 19.5t-86.5 55.5t-58 86.5t-21.5 112.5q0 61 21.5 111.5t58 86.5t86.5 56t107 20z" />
    <glyph glyph-name="partialdiff" unicode="&#x2202;" horiz-adv-x="531" 
d="M247 748q77 0 125.5 -39t76 -101.5t37.5 -140t10 -154.5q0 -55 -4.5 -106t-29.5 -96q-30 -58 -81 -88t-115 -30q-50 0 -92 17.5t-73.5 48.5t-49 74t-17.5 94q0 52 17.5 95t48 74.5t72.5 49t91 17.5q34 0 60.5 -9t46 -22.5t32 -28.5t20.5 -27q-2 67 -12.5 123t-32 96
t-55 62t-79.5 22q-51 0 -85.5 -22.5t-56.5 -54.5l-50 46q29 41 77.5 70.5t118.5 29.5zM267 394q-34 0 -63.5 -12.5t-51 -34.5t-33.5 -53t-12 -67t12 -66.5t33.5 -52t50.5 -34t64 -12.5q34 0 63 12.5t50 34t32.5 52t11.5 66.5t-11.5 67t-32.5 53t-50 34.5t-63 12.5z" />
    <glyph glyph-name="uni2206" unicode="&#x2206;" horiz-adv-x="721" 
d="M686 0h-651l326 646zM130 57h461l-230 459z" />
    <glyph glyph-name="product" unicode="&#x220f;" horiz-adv-x="706" 
d="M671 672h-138v-773h-67v773h-226v-773h-68v773h-137v68h636v-68z" />
    <glyph glyph-name="summation" unicode="&#x2211;" horiz-adv-x="610" 
d="M563 668h-426l201 -285l-207 -311h444v-72h-540v50l219 331l-216 309v50h525v-72z" />
    <glyph glyph-name="minus" unicode="&#x2212;" horiz-adv-x="472" 
d="M430 317h-389v67h389v-67z" />
    <glyph glyph-name="radical" unicode="&#x221a;" horiz-adv-x="697" 
d="M662 668l-291 -740l-174 341l-126 -73l-33 52l195 115l136 -276l233 607z" />
    <glyph glyph-name="infinity" unicode="&#x221e;" horiz-adv-x="739" 
d="M543 455q37 0 67.5 -13.5t52 -37t33.5 -55t12 -67.5t-12 -67.5t-33.5 -55t-52 -37t-67.5 -13.5q-29 0 -53 9.5t-44.5 24t-38 31.5t-31.5 32l-21 23l-20 -24q-30 -32 -66.5 -56.5t-80.5 -24.5q-35 0 -62 12.5t-46.5 33.5t-29.5 49.5t-10 61.5t10 61.5t29.5 50t46.5 34
t62 12.5q46 0 80 -24.5t66 -59.5l21 -24l15 19q18 21 37 40t39.5 33.5t44 23t52.5 8.5zM544 392q-21 0 -39 -7.5t-34 -20.5t-30.5 -29t-29.5 -34l-17 -21l21 -23q12 -13 25.5 -28t29.5 -28t34.5 -21.5t39.5 -8.5q46 0 74 32.5t28 78.5t-28 78t-74 32zM187 379
q-42 0 -65.5 -28.5t-23.5 -69.5t23.5 -68.5t65.5 -27.5q32 0 60 20.5t52 50.5l19 24l-20 24q-26 31 -52.5 53t-58.5 22z" />
    <glyph glyph-name="integral" unicode="&#x222b;" horiz-adv-x="434" 
d="M305 750q38 0 65 -8t43 -16l-15 -56q-13 7 -32 13.5t-45 6.5q-35 0 -53.5 -24.5t-18.5 -78.5v-609q0 -91 -32 -129.5t-95 -38.5q-39 0 -67 8.5t-43 16.5l15 55q12 -8 32.5 -14t46.5 -6q37 0 57.5 25.5t20.5 82.5v609q0 88 30.5 125.5t90.5 37.5z" />
    <glyph glyph-name="approxequal" unicode="&#x2248;" horiz-adv-x="580" 
d="M184 325q40 0 66 -14t48 -31t44 -31t54 -14q42 0 68.5 24t40.5 59l46 -32q-21 -53 -60 -85.5t-95 -32.5q-41 0 -66.5 14t-46.5 31t-43.5 31t-55.5 14q-42 0 -68.5 -24t-40.5 -59l-46 33q21 53 59.5 85t95.5 32zM184 533q40 0 66 -14t48 -31.5t44 -31.5t54 -14
q42 0 68.5 24.5t40.5 59.5l46 -33q-21 -53 -60 -85.5t-95 -32.5q-41 0 -66.5 14t-46.5 31t-43.5 31t-55.5 14q-42 0 -68.5 -24t-40.5 -59l-46 33q21 53 59.5 85.5t95.5 32.5z" />
    <glyph glyph-name="notequal" unicode="&#x2260;" horiz-adv-x="472" 
d="M430 204h-216l-37 -100h-66l37 100h-107v67h132l59 157h-191v68h216l43 114h66l-43 -114h107v-68h-132l-59 -157h191v-67z" />
    <glyph glyph-name="lessequal" unicode="&#x2264;" horiz-adv-x="338" 
d="M117 418l199 -169h-98l-196 167v4l196 167h98zM316 125h-294v67h294v-67z" />
    <glyph glyph-name="greaterequal" unicode="&#x2265;" horiz-adv-x="338" 
d="M316 420v-4l-197 -167h-97l199 169l-199 169h97zM316 125h-294v67h294v-67z" />
    <glyph glyph-name="lozenge" unicode="&#x25ca;" horiz-adv-x="569" 
d="M543 336l-228 -401h-46l-229 401l229 402h46zM115 336l178 -300l177 300l-177 299z" />
    <glyph glyph-name="uniF6C3" unicode="&#xf6c3;" horiz-adv-x="136" 
d="M50 -54q26 0 42 -16t16 -42q0 -19 -9 -32l-64 -136h-4v223q9 3 19 3z" />
    <glyph glyph-name="germandbls.case" horiz-adv-x="650" 
d="M324 748q82 0 139.5 -30t99.5 -78l-143 -207q34 -7 68.5 -23t61.5 -42.5t44 -64.5t17 -90q0 -49 -17.5 -90.5t-49 -71.5t-75.5 -47t-97 -17q-51 0 -86 10t-58 24l28 65q26 -15 51.5 -21.5t64.5 -6.5q31 0 60 10.5t50.5 31t34.5 49.5t13 65q0 43 -17 74.5t-47 51.5
t-70.5 30t-86.5 10l-2 5l163 240q-24 24 -61 38t-85 14q-38 0 -70.5 -12t-56 -34.5t-37 -56.5t-13.5 -77v-497h-74v497q0 58 19 105t53 79t80 49.5t99 17.5z" />
    <glyph glyph-name="endash_greater.calt" horiz-adv-x="659" 
d="M615 278l-283 -257l-36 44l203 182h-456v61h457l-204 183l36 44z" />
    <glyph glyph-name="emdash_greater.calt" horiz-adv-x="987" 
d="M943 278l-283 -257l-36 44l203 182h-784v61h785l-204 183l36 44z" />
    <glyph glyph-name="less_endash.calt" horiz-adv-x="659" 
d="M363 491l-204 -183h456v-61h-455l203 -182l-36 -44l-284 257l284 257z" />
    <glyph glyph-name="less_emdash.calt" horiz-adv-x="987" 
d="M363 491l-204 -183h784v-61h-783l203 -182l-36 -44l-284 257l284 257z" />
    <glyph glyph-name="at.case" horiz-adv-x="841" 
d="M420 752q85 0 156.5 -28.5t123 -79t80 -120.5t28.5 -154q0 -50 -10.5 -91t-31 -70.5t-50.5 -45.5t-69 -16q-38 0 -61 17t-30 46l-1 5q-20 -26 -56 -47t-93 -21q-42 0 -77.5 16.5t-61 45.5t-39.5 68.5t-14 86.5t14 87t39.5 69t61 45.5t77.5 16.5q57 0 91 -19t54 -44l1 54
h58v-326q0 -44 43 -44q23 0 41 12.5t30 34.5t18 53t6 67q0 70 -24 129.5t-67.5 102.5t-103.5 67.5t-133 24.5q-72 0 -132 -24.5t-103.5 -68.5t-67.5 -104t-24 -131t24 -131t67 -103.5t102.5 -68t130.5 -24.5q69 0 131 24l19 -53q-70 -28 -150 -28q-84 0 -154.5 28.5
t-121.5 79.5t-79.5 121.5t-28.5 154.5t28.5 154.5t80 122t122.5 80.5t156 29zM419 526q-31 0 -57 -12t-45 -33t-29.5 -51t-10.5 -66t10.5 -65.5t29.5 -51t45 -33t57 -11.5q48 0 77.5 20.5t51.5 50.5v180q-11 14 -23.5 27t-28 23t-34.5 16t-43 6z" />
    <glyph glyph-name="glyph179" horiz-adv-x="275" 
d="M260 772h-84l-147 113h94z" />
    <glyph glyph-name="glyph180" horiz-adv-x="275" 
d="M99 772h-84l137 113h94z" />
    <glyph glyph-name="glyph181" horiz-adv-x="346" 
d="M324 771h-72l-79 73l-80 -73h-71l151 140z" />
    <glyph glyph-name="glyph182" horiz-adv-x="346" 
d="M173 764l-151 139h71l80 -72l79 72h72z" />
    <glyph glyph-name="glyph183" horiz-adv-x="358" 
d="M115 907q29 0 46.5 -13t30 -29t24.5 -29t30 -13q22 0 30.5 22t8.5 55h50q0 -67 -26.5 -98.5t-66.5 -31.5q-30 0 -46.5 13t-28.5 29t-23.5 29t-30.5 13q-23 0 -32 -22t-9 -55h-50q0 69 27 99.5t66 30.5z" />
    <glyph glyph-name="glyph184" horiz-adv-x="296" 
d="M67 871q20 0 33.5 -13t13.5 -33t-13.5 -32.5t-33.5 -12.5t-32.5 12.5t-12.5 32.5t12.5 33t32.5 13zM227 871q20 0 33.5 -13t13.5 -33t-13.5 -32.5t-33.5 -12.5t-32.5 12.5t-12.5 32.5t12.5 33t32.5 13z" />
    <glyph glyph-name="glyph185" horiz-adv-x="296" 
d="M274 790h-252v53h252v-53z" />
    <glyph glyph-name="glyph186" horiz-adv-x="335" 
d="M313 910q0 -30 -11 -55t-30.5 -43t-46 -28.5t-57.5 -10.5t-58 10.5t-46.5 28.5t-30.5 43t-11 55h54q0 -35 25.5 -60t66.5 -25q40 0 65.5 25t25.5 60h54v0z" />
    <glyph glyph-name="glyph187" horiz-adv-x="250" 
d="M125 974q44 0 73 -29t29 -73q0 -45 -29 -73t-73 -28q-45 0 -74 28t-29 73q0 44 29 73t74 29zM125 930q-24 0 -40.5 -17t-16.5 -41q0 -25 16.5 -41t40.5 -16t40.5 16t16.5 41q0 24 -16.5 41t-40.5 17z" />
    <glyph glyph-name="glyph188" horiz-adv-x="369" 
d="M128 775h-63l101 117h69zM281 775h-64l102 117h69z" />
    <glyph glyph-name="glyph189" horiz-adv-x="143" 
d="M71 871q21 0 35 -14t14 -36q0 -21 -14 -35t-35 -14t-35 14t-14 35q0 22 14 36t35 14z" />
    <glyph glyph-name="parenleft.case" horiz-adv-x="275" 
d="M253 727q-24 -29 -48 -64t-43 -78.5t-31 -97.5t-12 -120t12 -120t31 -97.5t43 -79t48 -63.5l-54 -41q-26 30 -52.5 69.5t-48 89t-35 109.5t-13.5 133t13.5 133t35 109.5t48 88.5t52.5 70z" />
    <glyph glyph-name="parenright.case" horiz-adv-x="275" 
d="M76 768q26 -31 52.5 -70t48 -88.5t35 -109.5t13.5 -133t-13.5 -133t-35 -109.5t-48 -89t-52.5 -69.5l-54 41q24 28 48 63.5t43 79t31 97.5t12 120t-12 120t-31 97.5t-43 78.5t-48 64l54 41v0z" />
    <glyph glyph-name="bracketleft.case" horiz-adv-x="295" 
d="M270 716h-144v-698h144v-61h-215v820h215v-61z" />
    <glyph glyph-name="bracketright.case" horiz-adv-x="302" 
d="M247 -43h-222v61h151v698h-151v61h222v-820z" />
    <glyph glyph-name="braceleft.case" horiz-adv-x="332" 
d="M307 716q-27 0 -51 -7.5t-41.5 -24.5t-25.5 -45t-2 -69l10 -78q10 -53 -7.5 -82t-51.5 -43q34 -14 52 -43.5t7 -81.5l-10 -78q-6 -41 2 -69t25.5 -45t41.5 -24.5t51 -7.5v-61q-47 0 -87 13t-66.5 40t-37 68.5t1.5 98.5l10 76q5 24 -0.5 42.5t-19 32t-34 22.5t-45.5 15v4
q25 6 45.5 15t34 22.5t19 32t0.5 42.5l-10 76q-12 57 -1.5 98.5t37 68.5t66.5 40t87 13v-61z" />
    <glyph glyph-name="braceright.case" horiz-adv-x="332" 
d="M25 777q47 0 87 -13t66.5 -40t37 -68.5t-1.5 -98.5l-10 -76q-5 -24 0.5 -42.5t19 -32t34 -22.5t45.5 -15v-4q-25 -6 -45.5 -15t-34 -22.5t-19 -32t-0.5 -42.5l10 -76q12 -57 1.5 -98.5t-37 -68.5t-66.5 -40t-87 -13v61q27 0 51 7.5t41 24.5t25.5 45t2.5 69l-10 78
q-11 52 7 81.5t52 43.5q-17 7 -30 17.5t-21.5 25.5t-10.5 35.5t3 46.5l10 78q6 41 -2.5 69t-25.5 45t-41 24.5t-51 7.5v61v0z" />
    <glyph glyph-name="guilsinglleft.case" horiz-adv-x="324" 
d="M103 354l206 -222h-90l-204 220v4l204 220h90z" />
    <glyph glyph-name="guilsinglright.case" horiz-adv-x="324" 
d="M309 356v-4l-204 -220h-90l206 222l-206 222h90z" />
    <glyph glyph-name="guillemotleft.case" horiz-adv-x="469" 
d="M87 354l150 -222h-71l-151 220v4l151 220h71zM304 354l150 -222h-71l-151 220v4l151 220h71z" />
    <glyph glyph-name="guillemotright.case" horiz-adv-x="469" 
d="M237 356v-4l-151 -220h-71l150 222l-150 222h71zM454 356v-4l-151 -220h-71l149 222l-149 222h71z" />
    <glyph glyph-name="exclamdown.case" horiz-adv-x="246" 
d="M87 541h72v-541h-72v541zM123 643q-23 0 -38 15.5t-15 37.5q0 23 15 37.5t38 14.5q22 0 37 -14.5t15 -37.5q0 -22 -15 -37.5t-37 -15.5z" />
    <glyph glyph-name="questiondown.case" horiz-adv-x="473" 
d="M244 -13q-45 0 -82.5 14.5t-64.5 40.5t-42 62t-15 79q0 42 12.5 72.5t30.5 54t40 42t40 37.5t30.5 40.5t12.5 50.5v61h73v-69q0 -35 -12 -61t-30 -46.5t-39.5 -38.5t-39.5 -38.5t-30 -45t-12 -58.5q0 -63 37.5 -96t91.5 -33q57 0 90 28.5t45 85.5l72 -13
q-17 -79 -67.5 -124t-140.5 -45zM242 643q-23 0 -37.5 15.5t-14.5 37.5q0 23 14.5 37.5t37.5 14.5t37.5 -14.5t14.5 -37.5q0 -22 -14.5 -37.5t-37.5 -15.5z" />
    <glyph glyph-name="endash.case" horiz-adv-x="559" 
d="M517 323h-475v67h475v-67z" />
    <glyph glyph-name="periodcentered.case" horiz-adv-x="171" 
d="M85 408q23 0 38.5 -15.5t15.5 -38.5t-15.5 -38t-38.5 -15t-38 15t-15 38t15 38.5t38 15.5z" />
    <glyph glyph-name="emdash.case" horiz-adv-x="803" 
d="M761 323h-719v67h719v-67z" />
    <glyph glyph-name="hyphen.case" horiz-adv-x="440" 
d="M398 323h-356v67h356v-67z" />
    <glyph glyph-name="zero.dnom" horiz-adv-x="386" 
d="M194 427q73 0 113 -59t40 -158q0 -50 -10 -90t-29.5 -68.5t-48 -44t-65.5 -15.5q-74 0 -114.5 59.5t-40.5 158.5t40.5 158t114.5 59zM194 375q-50 0 -73.5 -44.5t-23.5 -120.5t23.5 -121t73.5 -45q48 0 71.5 45t23.5 121t-23.5 120.5t-71.5 44.5z" />
    <glyph glyph-name="one.dnom" horiz-adv-x="257" 
d="M191 0h-57v331l-79 -53l-26 51l160 98h2v-427z" />
    <glyph glyph-name="two.dnom" horiz-adv-x="351" 
d="M176 427q60 0 96.5 -35t36.5 -91q0 -39 -14.5 -68t-41.5 -61l-102 -120h163v-52h-263v4l155 198q24 29 34.5 50.5t10.5 49.5q0 34 -21.5 53.5t-53.5 19.5q-67 0 -80 -69l-52 11q21 110 132 110z" />
    <glyph glyph-name="three.dnom" horiz-adv-x="348" 
d="M176 427q57 0 92 -34t35 -86q0 -35 -17 -56.5t-43 -32.5q34 -12 54.5 -37t20.5 -62q0 -57 -37.5 -92t-100.5 -35q-59 0 -92.5 26t-49.5 76l50 14q12 -29 32.5 -46t59.5 -17q36 0 58.5 21t22.5 56q0 31 -24.5 52.5t-63.5 21.5h-48v45h50q28 1 50 17t22 50q0 30 -20.5 48.5
t-52.5 18.5q-58 0 -80 -58l-49 22q14 40 45.5 64t85.5 24z" />
    <glyph glyph-name="four.dnom" horiz-adv-x="366" 
d="M280 123h61v-47h-61v-76h-56v76h-209v3l263 349h2v-305zM110 122h115v159z" />
    <glyph glyph-name="five.dnom" horiz-adv-x="355" 
d="M294 367h-173v-123q11 6 26 10t34 4q62 0 101.5 -35t39.5 -98q0 -28 -10 -52.5t-28 -42.5t-43.5 -28t-57.5 -10q-57 0 -90.5 23.5t-51.5 67.5l49 24q11 -29 32 -45.5t57 -16.5q38 0 61.5 23.5t23.5 59.5q0 35 -23.5 58t-64.5 23q-24 0 -43 -7.5t-33 -17.5l-36 16v219h230
v-52z" />
    <glyph glyph-name="six.dnom" horiz-adv-x="360" 
d="M179 268q30 0 56 -10.5t46 -28.5t31.5 -43.5t11.5 -55.5t-11.5 -55.5t-31.5 -44t-46 -28.5t-56 -10q-29 0 -55 10t-45.5 28.5t-31 44t-11.5 55.5q0 26 8.5 48.5t23.5 39.5l138 201h66l-105 -152q4 1 12 1zM179 219q-36 0 -61.5 -25t-25.5 -64t25.5 -64t61.5 -25
q38 0 63.5 25t25.5 64t-25.5 64t-63.5 25z" />
    <glyph glyph-name="seven.dnom" horiz-adv-x="356" 
d="M330 415l-223 -415h-63l201 366h-212v53h297v-4z" />
    <glyph glyph-name="eight.dnom" horiz-adv-x="360" 
d="M177 427q26 0 49 -8.5t40 -23.5t27 -36t10 -46q0 -30 -15.5 -53.5t-39.5 -37.5q33 -15 53.5 -42t20.5 -62q0 -27 -11.5 -50.5t-31 -40t-46 -26t-56.5 -9.5q-29 0 -55 9.5t-45.5 26t-31 40t-11.5 50.5q0 35 20.5 62t52.5 41q-24 14 -39 38t-15 54q0 25 10 46t26.5 36
t39 23.5t48.5 8.5zM177 194q-37 0 -62 -22t-25 -55t25 -54.5t62 -21.5q38 0 63.5 21.5t25.5 54.5t-25.5 55t-63.5 22zM177 379q-30 0 -51.5 -19.5t-21.5 -48.5q0 -31 21.5 -50t51.5 -19q31 0 52.5 19t21.5 50q0 29 -21.5 48.5t-52.5 19.5z" />
    <glyph glyph-name="nine.dnom" horiz-adv-x="360" 
d="M180 426q30 0 56 -10t45.5 -28.5t31 -43.5t11.5 -55q0 -24 -7.5 -45.5t-20.5 -38.5l-142 -205h-66l104 151h-12q-29 0 -55.5 10.5t-46 28.5t-31 43.5t-11.5 55.5t11.5 55t31 43.5t46 28.5t55.5 10zM180 377q-37 0 -62.5 -24.5t-25.5 -63.5q0 -40 25.5 -64.5t62.5 -24.5
t62.5 24.5t25.5 64.5q0 39 -25.5 63.5t-62.5 24.5z" />
    <glyph glyph-name="zero.numr" horiz-adv-x="380" 
d="M194 741q73 0 113 -59t40 -158q0 -50 -10 -90t-29.5 -68.5t-48 -44t-65.5 -15.5q-74 0 -114.5 59.5t-40.5 158.5t40.5 158t114.5 59zM194 689q-50 0 -73.5 -44.5t-23.5 -120.5t23.5 -121t73.5 -45q48 0 71.5 45t23.5 121t-23.5 120.5t-71.5 44.5z" />
    <glyph glyph-name="one.numr" horiz-adv-x="251" 
d="M191 314h-57v331l-79 -53l-26 51l160 98h2v-427z" />
    <glyph glyph-name="two.numr" horiz-adv-x="345" 
d="M176 741q60 0 96.5 -35t36.5 -91q0 -39 -14.5 -68t-41.5 -61l-102 -120h163v-52h-263v4l155 198q24 29 34.5 50.5t10.5 49.5q0 34 -21.5 53.5t-53.5 19.5q-67 0 -80 -69l-52 11q21 110 132 110z" />
    <glyph glyph-name="three.numr" horiz-adv-x="342" 
d="M176 741q57 0 92 -34t35 -86q0 -35 -17 -56.5t-43 -32.5q34 -12 54.5 -37t20.5 -62q0 -57 -37.5 -92t-100.5 -35q-59 0 -92.5 26t-49.5 76l50 14q12 -29 32.5 -46t59.5 -17q36 0 58.5 21t22.5 56q0 31 -24.5 52.5t-63.5 21.5h-48v45h50q28 1 50 17t22 50q0 30 -20.5 48.5
t-52.5 18.5q-58 0 -80 -58l-49 22q14 40 45.5 64t85.5 24z" />
    <glyph glyph-name="four.numr" horiz-adv-x="360" 
d="M280 437h61v-47h-61v-76h-56v76h-209v3l263 349h2v-305zM110 436h115v159z" />
    <glyph glyph-name="five.numr" horiz-adv-x="350" 
d="M294 681h-173v-123q11 6 26 10t34 4q62 0 101.5 -35t39.5 -98q0 -28 -10 -52.5t-28 -42.5t-43.5 -28t-57.5 -10q-57 0 -90.5 23.5t-51.5 67.5l49 24q11 -29 32 -45.5t57 -16.5q38 0 61.5 23.5t23.5 59.5q0 35 -23.5 58t-64.5 23q-24 0 -43 -7.5t-33 -17.5l-36 16v219h230
v-52z" />
    <glyph glyph-name="six.numr" horiz-adv-x="354" 
d="M179 582q30 0 56 -10.5t46 -28.5t31.5 -43.5t11.5 -55.5t-11.5 -55.5t-31.5 -44t-46 -28.5t-56 -10q-29 0 -55 10t-45.5 28.5t-31 44t-11.5 55.5q0 26 8.5 48.5t23.5 39.5l138 201h66l-105 -152q4 1 12 1zM179 533q-36 0 -61.5 -25t-25.5 -64t25.5 -64t61.5 -25
q38 0 63.5 25t25.5 64t-25.5 64t-63.5 25z" />
    <glyph glyph-name="seven.numr" horiz-adv-x="350" 
d="M330 729l-223 -415h-63l201 366h-212v53h297v-4z" />
    <glyph glyph-name="eight.numr" horiz-adv-x="354" 
d="M177 741q26 0 49 -8.5t40 -23.5t27 -36t10 -46q0 -30 -15.5 -53.5t-39.5 -37.5q33 -15 53.5 -42t20.5 -62q0 -27 -11.5 -50.5t-31 -40t-46 -26t-56.5 -9.5q-29 0 -55 9.5t-45.5 26t-31 40t-11.5 50.5q0 35 20.5 62t52.5 41q-24 14 -39 38t-15 54q0 25 10 46t26.5 36
t39 23.5t48.5 8.5zM177 508q-37 0 -62 -22t-25 -55t25 -54.5t62 -21.5q38 0 63.5 21.5t25.5 54.5t-25.5 55t-63.5 22zM177 693q-30 0 -51.5 -19.5t-21.5 -48.5q0 -31 21.5 -50t51.5 -19q31 0 52.5 19t21.5 50q0 29 -21.5 48.5t-52.5 19.5z" />
    <glyph glyph-name="nine.numr" horiz-adv-x="354" 
d="M180 740q30 0 56 -10t45.5 -28.5t31 -43.5t11.5 -55q0 -24 -7.5 -45.5t-20.5 -38.5l-142 -205h-66l104 151h-12q-29 0 -55.5 10.5t-46 28.5t-31 43.5t-11.5 55.5t11.5 55t31 43.5t46 28.5t55.5 10zM180 691q-37 0 -62.5 -24.5t-25.5 -63.5q0 -40 25.5 -64.5t62.5 -24.5
t62.5 24.5t25.5 64.5q0 39 -25.5 63.5t-62.5 24.5z" />
    <glyph glyph-name="zero.inferior" horiz-adv-x="380" 
d="M194 327q73 0 113 -59t40 -158q0 -50 -10 -90t-29.5 -68.5t-48 -44t-65.5 -15.5q-74 0 -114.5 59.5t-40.5 158.5t40.5 158t114.5 59zM194 275q-50 0 -73.5 -44.5t-23.5 -120.5t23.5 -121t73.5 -45q48 0 71.5 45t23.5 121t-23.5 120.5t-71.5 44.5z" />
    <glyph glyph-name="one.inferior" horiz-adv-x="251" 
d="M191 -100h-57v331l-79 -53l-26 51l160 98h2v-427z" />
    <glyph glyph-name="two.inferior" horiz-adv-x="345" 
d="M176 327q60 0 96.5 -35t36.5 -91q0 -39 -14.5 -68t-41.5 -61l-102 -120h163v-52h-263v4l155 198q24 29 34.5 50.5t10.5 49.5q0 34 -21.5 53.5t-53.5 19.5q-67 0 -80 -69l-52 11q21 110 132 110z" />
    <glyph glyph-name="three.inferior" horiz-adv-x="342" 
d="M176 327q57 0 92 -34t35 -86q0 -35 -17 -56.5t-43 -32.5q34 -12 54.5 -37t20.5 -62q0 -57 -37.5 -92t-100.5 -35q-59 0 -92.5 26t-49.5 76l50 14q12 -29 32.5 -46t59.5 -17q36 0 58.5 21t22.5 56q0 31 -24.5 52.5t-63.5 21.5h-48v45h50q28 1 50 17t22 50q0 30 -20.5 48.5
t-52.5 18.5q-58 0 -80 -58l-49 22q14 40 45.5 64t85.5 24z" />
    <glyph glyph-name="four.inferior" horiz-adv-x="360" 
d="M280 23h61v-47h-61v-76h-56v76h-209v3l263 349h2v-305zM110 22h115v159z" />
    <glyph glyph-name="five.inferior" horiz-adv-x="350" 
d="M294 267h-173v-123q11 6 26 10t34 4q62 0 101.5 -35t39.5 -98q0 -28 -10 -52.5t-28 -42.5t-43.5 -28t-57.5 -10q-57 0 -90.5 23.5t-51.5 67.5l49 24q11 -29 32 -45.5t57 -16.5q38 0 61.5 23.5t23.5 59.5q0 35 -23.5 58t-64.5 23q-24 0 -43 -7.5t-33 -17.5l-36 16v219h230
v-52z" />
    <glyph glyph-name="six.inferior" horiz-adv-x="354" 
d="M179 168q30 0 56 -10.5t46 -28.5t31.5 -43.5t11.5 -55.5t-11.5 -55.5t-31.5 -44t-46 -28.5t-56 -10q-29 0 -55 10t-45.5 28.5t-31 44t-11.5 55.5q0 26 8.5 48.5t23.5 39.5l138 201h66l-105 -152q4 1 12 1zM179 119q-36 0 -61.5 -25t-25.5 -64t25.5 -64t61.5 -25
q38 0 63.5 25t25.5 64t-25.5 64t-63.5 25z" />
    <glyph glyph-name="seven.inferior" horiz-adv-x="350" 
d="M330 315l-223 -415h-63l201 366h-212v53h297v-4z" />
    <glyph glyph-name="eight.inferior" horiz-adv-x="354" 
d="M177 327q26 0 49 -8.5t40 -23.5t27 -36t10 -46q0 -30 -15.5 -53.5t-39.5 -37.5q33 -15 53.5 -42t20.5 -62q0 -27 -11.5 -50.5t-31 -40t-46 -26t-56.5 -9.5q-29 0 -55 9.5t-45.5 26t-31 40t-11.5 50.5q0 35 20.5 62t52.5 41q-24 14 -39 38t-15 54q0 25 10 46t26.5 36
t39 23.5t48.5 8.5zM177 94q-37 0 -62 -22t-25 -55t25 -54.5t62 -21.5q38 0 63.5 21.5t25.5 54.5t-25.5 55t-63.5 22zM177 279q-30 0 -51.5 -19.5t-21.5 -48.5q0 -31 21.5 -50t51.5 -19q31 0 52.5 19t21.5 50q0 29 -21.5 48.5t-52.5 19.5z" />
    <glyph glyph-name="nine.inferior" horiz-adv-x="354" 
d="M180 326q30 0 56 -10t45.5 -28.5t31 -43.5t11.5 -55q0 -24 -7.5 -45.5t-20.5 -38.5l-142 -205h-66l104 151h-12q-29 0 -55.5 10.5t-46 28.5t-31 43.5t-11.5 55.5t11.5 55t31 43.5t46 28.5t55.5 10zM180 277q-37 0 -62.5 -24.5t-25.5 -63.5q0 -40 25.5 -64.5t62.5 -24.5
t62.5 24.5t25.5 64.5q0 39 -25.5 63.5t-62.5 24.5z" />
    <glyph glyph-name="zero.tnum" horiz-adv-x="600" 
d="M300 748q61 0 108 -27t79.5 -76.5t49 -119.5t16.5 -157t-16.5 -157.5t-49 -120t-79.5 -76.5t-108 -27t-108 27t-79.5 76.5t-49 120t-16.5 157.5t16.5 157t49 119.5t79.5 76.5t108 27zM300 681q-45 0 -78 -22t-55.5 -63t-33.5 -99t-11 -129q0 -72 11 -130t33.5 -99
t55.5 -63t78 -22t78 22t55.5 63t33.5 99t11 130q0 71 -11 129t-33.5 99t-55.5 63t-78 22z" />
    <glyph glyph-name="one.tnum" horiz-adv-x="600" 
d="M375 69h146v-69h-370v69h150v543l-182 -120l-36 63l288 193h4v-679z" />
    <glyph glyph-name="two.tnum" horiz-adv-x="600" 
d="M292 748q47 0 86.5 -15.5t68 -43.5t44.5 -67t16 -86q0 -36 -6.5 -66.5t-18.5 -58.5t-30.5 -55.5t-42.5 -56.5l-188 -231h296v-68h-427v6l262 334q21 27 36.5 50.5t25 46.5t14 47t4.5 53q0 68 -40 105.5t-100 37.5q-62 0 -97 -32t-49 -98l-67 15q18 89 71.5 136t141.5 47z
" />
    <glyph glyph-name="three.tnum" horiz-adv-x="600" 
d="M292 748q45 0 83 -14.5t65 -41.5t42 -64t15 -82q0 -65 -29.5 -102.5t-75.5 -56.5q60 -21 96.5 -67.5t36.5 -113.5q0 -49 -16 -89.5t-45.5 -69t-70.5 -44.5t-91 -16q-98 0 -152.5 46t-82.5 123l67 20q21 -54 58.5 -87.5t108.5 -33.5q33 0 60.5 11t47.5 31t31 48t11 63
q0 31 -12 58t-33.5 47t-52 31t-66.5 11h-82v61h84q26 0 50.5 8t43 23.5t30 40t11.5 58.5q0 31 -10 55.5t-28 42t-42.5 27t-52.5 9.5q-57 0 -92.5 -30t-55.5 -83l-65 28q13 33 31.5 61t44.5 48.5t60 32t78 11.5z" />
    <glyph glyph-name="four.tnum" horiz-adv-x="600" 
d="M446 222h108v-68h-108v-154h-74v154h-328v4l397 581h5v-517zM170 221h203v304z" />
    <glyph glyph-name="five.tnum" horiz-adv-x="600" 
d="M487 667h-297v-251q21 12 50 21t65 9q51 0 93 -16t72.5 -46t47 -72.5t16.5 -94.5q0 -48 -16 -90t-45.5 -73t-71.5 -49t-94 -18q-93 0 -147 42t-83 113l65 30q20 -53 57 -85t104 -32q35 0 63.5 12.5t49 34.5t32 52t11.5 65q0 36 -11 65.5t-32 51.5t-51 34t-67 12
q-44 0 -78.5 -14.5t-60.5 -34.5l-43 18v384h371v-68z" />
    <glyph glyph-name="six.tnum" horiz-adv-x="600" 
d="M299 465q48 0 91 -18t75 -50t50.5 -76t18.5 -96t-18.5 -96t-50.5 -75.5t-75 -49t-91 -17.5q-49 0 -91.5 17.5t-74.5 49t-50.5 75.5t-18.5 96q0 47 15 87t41 72l234 351h88l-182 -273q18 3 39 3zM299 398q-33 0 -62.5 -13t-51 -36t-34 -54.5t-12.5 -69.5t12.5 -69t34 -54
t51 -35.5t62.5 -12.5t62.5 12.5t51 35.5t34.5 54t13 69t-13 69.5t-34.5 54.5t-51 36t-62.5 13z" />
    <glyph glyph-name="seven.tnum" horiz-adv-x="600" 
d="M556 729l-378 -729h-82l351 666h-375v69h484v-6z" />
    <glyph glyph-name="eight.tnum" horiz-adv-x="600" 
d="M300 748q41 0 77.5 -14.5t64 -40t43.5 -60.5t16 -77q0 -57 -27 -99.5t-71 -65.5q58 -24 95 -73.5t37 -114.5q0 -47 -18.5 -86.5t-51 -68.5t-75 -45t-90.5 -16t-91 16t-75 45t-50.5 68.5t-18.5 86.5q0 65 36 114.5t94 72.5q-43 23 -69.5 66t-26.5 100q0 42 16 77
t43.5 60.5t64 40t77.5 14.5zM300 352q-33 0 -62.5 -11.5t-51 -31.5t-34 -47.5t-12.5 -59.5t12.5 -59t34 -47t51 -31t62.5 -11t62 11t51 31t34.5 47t12.5 59t-12.5 59.5t-34.5 47.5t-51 31.5t-62 11.5zM300 681q-27 0 -51 -9.5t-42 -26.5t-28 -40.5t-10 -51.5q0 -29 10 -53.5
t28 -42.5t42 -28t51 -10t51 10t41.5 28t28 42.5t10.5 53.5q0 28 -10.5 51.5t-28 40.5t-41.5 26.5t-51 9.5z" />
    <glyph glyph-name="nine.tnum" horiz-adv-x="600" 
d="M300 748q48 0 91 -17.5t75 -49t50.5 -75.5t18.5 -96q0 -46 -14.5 -85.5t-39.5 -70.5l-236 -354h-88l182 273q-20 -3 -39 -3q-48 0 -91 18t-75 50t-50.5 76t-18.5 96t18.5 96t50.5 75.5t75 49t91 17.5zM300 681q-33 0 -62.5 -12.5t-51.5 -35.5t-34.5 -54.5t-12.5 -68.5
q0 -38 12.5 -69.5t34.5 -54.5t51.5 -36t62.5 -13t62.5 13t51 36t34 54.5t12.5 69.5q0 37 -12.5 68.5t-34 54.5t-51 35.5t-62.5 12.5z" />
    <glyph glyph-name="zero.oldstyle" horiz-adv-x="586" 
d="M293 570q55 0 101 -22t80 -61t53 -92t19 -116t-19 -116t-53 -91.5t-80 -60t-101 -21.5t-101.5 21.5t-80 60t-52.5 91.5t-19 116t19 116t52.5 92t80 61t101.5 22zM293 505q-39 0 -72 -17t-57 -47t-37.5 -71.5t-13.5 -90.5t13.5 -90t37.5 -71t57 -46.5t72 -16.5t72 16.5
t57 46.5t37.5 71t13.5 90t-13.5 90.5t-37.5 71.5t-57 47t-72 17z" />
    <glyph glyph-name="one.oldstyle" horiz-adv-x="362" 
d="M278 0h-74v433l-145 -104l-34 66l249 175h4v-570z" />
    <glyph glyph-name="two.oldstyle" horiz-adv-x="528" 
d="M268 570q45 0 82 -14t64 -39.5t42 -61t15 -78.5q0 -38 -9.5 -67t-25.5 -53.5t-37.5 -45.5t-44.5 -41l-122 -102h259v-68h-428v6l224 200q22 20 42 38t35 37.5t23.5 42t8.5 51.5q0 63 -37 95t-94 32q-45 0 -75 -20t-50 -60l-61 31q28 57 74.5 87t114.5 30z" />
    <glyph glyph-name="three.oldstyle" horiz-adv-x="524" 
d="M266 570q45 0 83 -14t65.5 -40t43 -62t15.5 -80q0 -63 -30 -99.5t-77 -55.5q62 -20 98 -65t36 -110q0 -48 -16 -87t-45.5 -67t-70.5 -43.5t-92 -15.5q-48 0 -85.5 11.5t-65.5 33t-48.5 52t-34.5 68.5l67 19q10 -26 24.5 -47.5t34.5 -37t46.5 -24t61.5 -8.5q67 0 108.5 40
t41.5 107q0 31 -12 57t-33.5 45t-52 30t-66.5 11h-81v60h83q26 0 50.5 7.5t43 23t30 39t11.5 55.5q0 60 -37.5 95t-95.5 35q-57 0 -93 -29t-55 -80l-65 27q12 32 30.5 59.5t44.5 47.5t60 31t78 11z" />
    <glyph glyph-name="four.oldstyle" horiz-adv-x="545" 
d="M418 68h108v-66h-108v-149h-74v149h-329v4l398 564h5v-502zM142 68h203v293z" />
    <glyph glyph-name="five.oldstyle" horiz-adv-x="533" 
d="M455 493h-297v-243q21 11 50 20t65 9q51 0 93 -16t72 -45t46.5 -70t16.5 -92q0 -46 -15.5 -86.5t-45 -71t-71.5 -48t-94 -17.5q-93 0 -147 41t-82 110l64 29q20 -51 56.5 -82t104.5 -31q35 0 63.5 12t49 33.5t32 50.5t11.5 63t-11 63t-32 50t-51 32.5t-67 11.5
q-44 0 -78.5 -13.5t-60.5 -33.5l-43 18v372h371v-66z" />
    <glyph glyph-name="six.oldstyle" horiz-adv-x="539" 
d="M268 451q49 0 92 -17.5t75 -48.5t50.5 -73.5t18.5 -93.5t-18.5 -93t-50.5 -73t-75 -48t-92 -17q-48 0 -91 17t-74.5 48t-50 73t-18.5 93q0 44 13.5 81.5t37.5 66.5l239 347h88l-182 -265q18 3 38 3zM268 385q-33 0 -62 -12.5t-50.5 -34.5t-34 -52.5t-12.5 -67.5
t12.5 -67.5t34 -52.5t50.5 -34t62 -12t62.5 12t51.5 34t34.5 52.5t12.5 67.5t-12.5 67.5t-34.5 52.5t-51.5 34.5t-62.5 12.5z" />
    <glyph glyph-name="seven.oldstyle" horiz-adv-x="533" 
d="M513 554l-379 -707h-81l349 646h-374v67h485v-6z" />
    <glyph glyph-name="eight.oldstyle" horiz-adv-x="539" 
d="M265 726q42 0 78.5 -14t63.5 -38.5t43 -59t16 -74.5q0 -55 -27 -97t-70 -64q58 -23 95 -71t37 -111q0 -45 -18.5 -83.5t-51 -66.5t-75.5 -44t-91 -16t-91 16t-75 44t-50.5 66.5t-18.5 83.5q0 63 36.5 111t94.5 70q-44 22 -70.5 64t-26.5 98q0 40 16 74.5t43.5 59t64 38.5
t77.5 14zM265 342q-33 0 -62 -11t-51 -30.5t-34.5 -46.5t-12.5 -58t12.5 -57t34.5 -45.5t51 -30.5t62 -11t62.5 11t51.5 30.5t34.5 45.5t12.5 57t-12.5 58t-34.5 46.5t-51.5 30.5t-62.5 11zM265 661q-27 0 -51 -9.5t-41.5 -26t-28 -39t-10.5 -49.5q0 -29 10.5 -53t28 -41
t41.5 -27t51 -10t51 10t42 27t28 41t10 53q0 27 -10 49.5t-28 39t-42 26t-51 9.5z" />
    <glyph glyph-name="nine.oldstyle" horiz-adv-x="539" 
d="M270 570q48 0 91 -17t74.5 -48t50 -73t18.5 -93q0 -43 -13.5 -80t-36.5 -66l-240 -349h-88l183 266q-20 -3 -39 -3q-49 0 -92 17.5t-75 48t-50.5 73t-18.5 93.5t18.5 93t50.5 73t75 48t92 17zM270 505q-33 0 -62.5 -12t-51.5 -34t-34.5 -52.5t-12.5 -67.5t12.5 -67.5
t34.5 -52.5t51.5 -34.5t62.5 -12.5t62 12.5t50.5 34.5t34 52.5t12.5 67.5t-12.5 67.5t-34 52.5t-50.5 34t-62 12z" />
    <glyph glyph-name="a.superior" horiz-adv-x="425" 
d="M187 746q47 0 75 -16.5t44 -35.5l2 45h56v-351h-56l-2 45q-16 -19 -44 -35.5t-75 -16.5q-35 0 -64 13.5t-50 38t-33 58t-12 72.5q0 40 12 73.5t33 58t50 38t64 13.5zM201 692q-50 0 -81 -36t-31 -93t31 -92.5t81 -35.5q37 0 60.5 16.5t40.5 40.5v143q-17 24 -40.5 40.5
t-60.5 16.5z" />
    <glyph glyph-name="b.superior" horiz-adv-x="425" 
d="M123 698q16 18 43 33t72 15q35 0 64 -13.5t50 -38t33 -58t12 -73.5q0 -39 -12 -72.5t-33 -58t-50 -38t-64 -13.5q-47 0 -75 16.5t-44 35.5l-2 -45h-55v532h61v-222zM224 692q-37 0 -60.5 -16.5t-40.5 -40.5v-143q17 -24 40.5 -40.5t60.5 -16.5q50 0 81 35.5t31 92.5
t-31 93t-81 36z" />
    <glyph glyph-name="c.superior" horiz-adv-x="368" 
d="M204 746q48 0 84 -20.5t61 -55.5l-45 -34q-15 22 -39.5 39t-60.5 17q-57 0 -86 -36.5t-29 -92.5q0 -55 29.5 -91.5t86.5 -36.5q37 0 62 16.5t39 39.5l45 -33q-24 -36 -61 -56.5t-85 -20.5q-41 0 -73.5 13.5t-55.5 38t-35.5 58t-12.5 72.5q0 40 12 73.5t35 58t55.5 38
t73.5 13.5z" />
    <glyph glyph-name="d.superior" horiz-adv-x="425" 
d="M364 388h-56l-2 45q-16 -19 -44 -35.5t-75 -16.5q-35 0 -64 13.5t-50 38t-33 58t-12 72.5q0 40 12 73.5t33 58t50 38t64 13.5q45 0 72 -15t43 -33v222h62v-532zM201 692q-50 0 -81 -36t-31 -93t31 -92.5t81 -35.5q37 0 60.5 16.5t40.5 40.5v143q-17 24 -40.5 40.5
t-60.5 16.5z" />
    <glyph glyph-name="e.superior" horiz-adv-x="388" 
d="M198 746q39 0 69.5 -14t50.5 -38.5t30.5 -57t10.5 -69.5v-23h-270q2 -51 31.5 -81t85.5 -30q36 0 62 14.5t41 33.5l42 -36q-26 -31 -62 -47.5t-84 -16.5q-42 0 -74.5 13.5t-55.5 38t-35 58t-12 72.5q0 40 12 73.5t34.5 58t54 38t69.5 13.5zM196 695q-47 0 -75.5 -29.5
t-31.5 -74.5h210q-3 45 -29.5 74.5t-73.5 29.5z" />
    <glyph glyph-name="f.superior" horiz-adv-x="261" 
d="M202 920q47 0 75 -25l-24 -49q-8 9 -19.5 14.5t-28.5 5.5q-28 0 -43 -19.5t-15 -49.5v-58h96v-53h-96v-298h-61v298h-66v53h66v55q0 54 31 90t85 36z" />
    <glyph glyph-name="g.superior" horiz-adv-x="426" 
d="M187 746q47 0 75 -16t44 -35l2 44h56v-343q0 -82 -48.5 -129t-129.5 -47q-54 0 -92.5 20t-65.5 53l40 40q21 -26 50 -42.5t68 -16.5q54 0 85 33t31 88v39q-16 -17 -43 -32t-72 -15q-35 0 -64 13.5t-50 37.5t-33 57t-12 72t12 72t33 56.5t50 37t64 13.5zM201 694
q-50 0 -81 -35t-31 -92t31 -92.5t81 -35.5q37 0 60.5 17t40.5 40v141q-17 23 -40.5 40t-60.5 17z" />
    <glyph glyph-name="h.superior" horiz-adv-x="419" 
d="M123 695q15 18 42.5 34.5t67.5 16.5q64 0 98.5 -41t34.5 -109v-208h-61v205q0 42 -23 68.5t-63 26.5q-33 0 -55 -15.5t-41 -40.5v-244h-61v532h61v-225z" />
    <glyph glyph-name="i.superior" horiz-adv-x="184" 
d="M122 388h-60v351h60v-351zM92 894q17 0 29 -12t12 -30t-12 -29.5t-29 -11.5q-18 0 -29.5 11.5t-11.5 29.5t11.5 30t29.5 12z" />
    <glyph glyph-name="j.superior" horiz-adv-x="191" 
d="M129 343q0 -57 -39.5 -90t-101.5 -33v54q36 0 58.5 18t22.5 47v400h60v-396zM99 894q18 0 29.5 -12t11.5 -30t-11.5 -29.5t-29.5 -11.5t-29.5 11.5t-11.5 29.5t11.5 30t29.5 12z" />
    <glyph glyph-name="k.superior" horiz-adv-x="385" 
d="M123 500l158 239h74l-107 -155l126 -196h-71l-93 144l-99 -144h-49v532h61v-420z" />
    <glyph glyph-name="l.superior" horiz-adv-x="184" 
d="M123 388h-61v532h61v-532z" />
    <glyph glyph-name="m.superior" horiz-adv-x="648" 
d="M232 746q38 0 65.5 -17.5t43.5 -47.5q20 28 51.5 46.5t75.5 18.5q61 0 94.5 -41t33.5 -109v-208h-61v205q0 42 -22 68.5t-60 26.5q-32 0 -54.5 -15.5t-41.5 -41.5q1 -8 1.5 -15t0.5 -15v-213h-61v205q0 42 -21.5 68.5t-59.5 26.5q-32 0 -54.5 -15t-39.5 -40v-245h-61v351
h55l2 -44q16 20 43.5 35.5t69.5 15.5z" />
    <glyph glyph-name="o.superior" horiz-adv-x="413" 
d="M207 746q38 0 70.5 -14t56.5 -38.5t37.5 -58t13.5 -72.5t-13.5 -72.5t-37.5 -58t-56.5 -38t-70.5 -13.5q-39 0 -72 13.5t-57 38t-37 58t-13 72.5t13 72.5t37 58t57 38.5t72 14zM207 692q-26 0 -47.5 -10t-37.5 -27t-24.5 -40.5t-8.5 -51.5q0 -56 33 -92t85 -36
q51 0 84 36t33 92q0 28 -9 51.5t-24.5 40.5t-37 27t-46.5 10z" />
    <glyph glyph-name="p.superior" horiz-adv-x="425" 
d="M238 746q35 0 64 -13.5t50 -38t33 -58t12 -72.5q0 -40 -12 -73.5t-33 -58t-50 -38t-64 -13.5q-45 0 -72 15t-43 33v-202h-61v512h55l2 -45q16 19 44 35.5t75 16.5zM224 692q-37 0 -60.5 -16.5t-40.5 -40.5v-143q17 -24 40.5 -40t60.5 -16q50 0 81 35.5t31 92.5t-31 92.5
t-81 35.5z" />
    <glyph glyph-name="q.superior" horiz-adv-x="425" 
d="M187 746q47 0 75 -16.5t44 -35.5l2 45h56v-512h-62v202q-16 -18 -43 -33t-72 -15q-35 0 -64 13.5t-50 38t-33 58t-12 73.5q0 39 12 72.5t33 58t50 38t64 13.5zM201 692q-50 0 -81 -35.5t-31 -92.5t31 -92.5t81 -35.5q37 0 60.5 16t40.5 40v143q-17 24 -40.5 40.5
t-60.5 16.5z" />
    <glyph glyph-name="r.superior" horiz-adv-x="241" 
d="M225 685h-6q-33 0 -55.5 -15t-40.5 -42v-240h-61v351h55l3 -50q14 21 39.5 39t65.5 18v-61z" />
    <glyph glyph-name="s.superior" horiz-adv-x="330" 
d="M170 746q35 0 65.5 -11t51.5 -27l-28 -48q-17 14 -38.5 23t-50.5 9q-31 0 -49.5 -12t-18.5 -39q0 -22 18.5 -31.5t65.5 -19.5q59 -14 85.5 -37.5t26.5 -63.5q0 -48 -37 -78t-100 -30q-40 0 -74 11.5t-57 31.5l27 47q20 -17 46.5 -26.5t58.5 -9.5q33 0 54 12.5t21 41.5
q0 23 -19 33t-64 21q-59 14 -86 36t-27 62q0 49 35 77t94 28z" />
    <glyph glyph-name="t.superior" horiz-adv-x="282" 
d="M141 739h112v-53h-112v-183q0 -32 17.5 -49.5t46.5 -17.5q33 0 50 12l18 -48q-11 -8 -29.5 -13.5t-43.5 -5.5q-55 0 -87 31t-32 91v183h-70v53h70v119h60v-119z" />
    <glyph glyph-name="u.superior" horiz-adv-x="412" 
d="M351 388h-56l-2 43q-17 -20 -44 -35t-71 -15q-60 0 -92.5 40.5t-32.5 106.5v211h61v-207q0 -42 21 -67.5t58 -25.5q35 0 57 14.5t39 39.5v246h62v-351z" />
    <glyph glyph-name="v.superior" horiz-adv-x="385" 
d="M194 381h-3l-177 358h67l112 -235l111 235h68z" />
    <glyph glyph-name="w.superior" horiz-adv-x="545" 
d="M378 381h-3l-102 232l-104 -232h-2l-153 358h67l91 -228l99 228h3l98 -228l91 228h68z" />
    <glyph glyph-name="x.superior" horiz-adv-x="356" 
d="M219 566l121 -178h-72l-91 133l-90 -133h-72l121 178l-115 173h71l85 -129l87 129h70z" />
    <glyph glyph-name="y.superior" horiz-adv-x="395" 
d="M124 227h-69l110 212l-147 300h68l111 -236l112 236h67z" />
    <glyph glyph-name="z.superior" horiz-adv-x="325" 
d="M302 736l-184 -296h183v-52h-279v3l183 295h-172v53h269v-3z" />
    <glyph glyph-name="glyph495" horiz-adv-x="651" 
d="M326 772q63 0 116.5 -23t93 -64t61.5 -97t22 -121q0 -66 -22 -122t-61.5 -96.5t-93 -63t-116.5 -22.5q-64 0 -118 22.5t-93 63t-60.5 96.5t-21.5 122q0 65 21.5 121t60.5 97t93 64t118 23zM326 724q-53 0 -97.5 -19.5t-76.5 -54t-50 -81.5t-18 -102t18 -102t50 -81
t76.5 -53.5t97.5 -19.5q52 0 96 19.5t76.5 53.5t50.5 81t18 102t-18 102t-50.5 81.5t-76.5 54t-96 19.5z" />
    <glyph glyph-name="zero.zero" horiz-adv-x="586" 
d="M293 748q61 0 108 -27t79.5 -76.5t49 -119.5t16.5 -157t-16.5 -157.5t-49 -120t-79.5 -76.5t-108 -27t-108 27t-79.5 76.5t-49 120t-16.5 157.5t16.5 157t49 119.5t79.5 76.5t108 27zM471 368q0 125 -33 205l-255 -471q43 -51 110 -51q45 0 78 22.5t55.5 63.5t33.5 100
t11 131zM293 683q-45 0 -78 -22t-55.5 -63.5t-33.5 -99.5t-11 -130q0 -124 32 -205l256 468q-43 52 -110 52z" />
    </font>
</defs>
</svg>
