<?xml version="1.0" standalone="no"?>
<!DOCTYPE svg PUBLIC "-//W3C//DTD SVG 20010904//EN"
 "http://www.w3.org/TR/2001/REC-SVG-20010904/DTD/svg10.dtd">
<svg version="1.0" xmlns="http://www.w3.org/2000/svg"
 width="1000.000000pt" height="800.000000pt" viewBox="0 0 1000.000000 800.000000"
 preserveAspectRatio="xMidYMid meet">

<g transform="translate(0.000000,800.000000) scale(0.100000,-0.100000)"
fill="#4b14a5" stroke="none">
<path d="M4775 7814 c-124 -8 -345 -36 -475 -60 -1343 -246 -2468 -1217 -2911
-2514 -145 -421 -203 -779 -203 -1240 0 -295 13 -441 60 -700 246 -1343 1217
-2468 2514 -2911 421 -144 778 -203 1240 -203 295 0 439 12 700 60 1343 246
2468 1217 2911 2514 145 421 203 779 203 1240 0 295 -13 441 -60 700 -213
1166 -979 2182 -2050 2718 -390 195 -822 323 -1274 377 -130 15 -532 27 -655
19z m-245 -1889 c250 -98 595 -233 765 -300 l310 -122 0 -239 0 -239 -680
-267 c-1088 -427 -1205 -472 -1213 -464 -10 10 -15 478 -5 491 9 12 -3 7 518
210 220 86 450 176 510 200 61 24 123 49 139 55 16 6 27 13 24 15 -2 3 -252
102 -554 220 -302 119 -569 224 -594 233 l-45 18 -3 245 c-1 134 0 249 2 256
3 8 63 -12 188 -61 101 -40 388 -153 638 -251z m2080 -1207 l0 -253 -343 -134
c-740 -289 -848 -334 -840 -342 4 -4 222 -92 483 -194 261 -102 525 -205 585
-229 l110 -43 3 -258 c2 -205 0 -256 -10 -252 -51 21 -575 227 -1176 462
l-712 279 2 240 3 240 110 44 c61 23 353 138 650 254 297 116 668 262 825 324
157 62 291 113 298 113 9 1 12 -56 12 -251z m-2832 -1038 c26 -11 214 -84 417
-164 309 -120 1024 -400 1330 -520 l80 -32 0 -239 0 -240 -480 -188 c-264
-103 -687 -269 -939 -368 -253 -99 -466 -177 -473 -175 -11 5 -13 53 -11 252
l3 247 355 139 c782 305 842 330 829 338 -7 5 -275 111 -596 237 l-583 228 0
253 c0 171 3 252 11 252 6 0 31 -9 57 -20z"/>
</g>
</svg>
