<?xml version="1.0" standalone="no"?>
<!DOCTYPE svg PUBLIC "-//W3C//DTD SVG 20010904//EN"
 "http://www.w3.org/TR/2001/REC-SVG-20010904/DTD/svg10.dtd">
<svg version="1.0" xmlns="http://www.w3.org/2000/svg"
 width="1000.000000pt" height="800.000000pt" viewBox="0 0 1000.000000 800.000000"
 preserveAspectRatio="xMidYMid meet">

<g transform="translate(0.000000,800.000000) scale(0.100000,-0.100000)"
fill="#1437a0" stroke="none">
<path d="M4800 7814 c-25 -2 -101 -9 -170 -14 -69 -6 -190 -22 -268 -36 -1102
-185 -2066 -846 -2642 -1811 -287 -479 -456 -993 -522 -1583 -19 -171 -16
-601 6 -785 97 -831 438 -1579 993 -2177 641 -690 1490 -1112 2433 -1209 161
-17 579 -17 740 0 1220 125 2287 803 2909 1846 285 478 451 973 517 1540 24
206 25 623 1 828 -67 571 -233 1063 -518 1542 -518 870 -1356 1495 -2337 1745
-163 42 -393 83 -557 100 -106 11 -509 21 -585 14z m-630 -1747 c107 -42 474
-186 815 -320 l620 -243 3 -237 2 -237 -32 -15 c-18 -8 -118 -48 -223 -89
-104 -41 -513 -200 -907 -355 -394 -155 -721 -281 -726 -281 -5 0 -12 17 -16
38 -8 52 -7 445 2 458 4 6 138 62 297 124 160 62 418 163 575 225 157 61 294
115 305 119 17 6 17 9 5 15 -8 5 -231 93 -495 196 -264 104 -527 207 -585 230
l-105 41 -3 244 c-1 135 0 250 2 257 3 8 46 -5 138 -41 73 -29 221 -87 328
-129z m2440 -1350 l0 -252 -392 -154 c-216 -85 -484 -190 -596 -234 -112 -44
-200 -83 -195 -88 4 -4 89 -39 188 -78 99 -38 362 -141 585 -229 l405 -159 3
-257 c2 -206 0 -257 -10 -253 -18 8 -928 365 -1451 569 l-437 172 2 240 3 241
365 143 c201 79 505 197 675 264 171 67 427 168 570 224 143 57 266 103 273
103 9 1 12 -56 12 -252z m-2253 -1263 c346 -135 707 -276 803 -314 96 -38 236
-93 310 -122 l135 -53 3 -238 2 -238 -37 -16 c-21 -8 -393 -155 -828 -325
-434 -170 -844 -331 -910 -357 -66 -27 -123 -45 -128 -42 -4 4 -6 119 -5 256
l3 248 150 59 c83 32 263 103 400 157 138 54 339 133 449 176 127 50 194 81
185 85 -8 5 -275 110 -594 236 -319 125 -581 228 -583 229 -1 1 -3 115 -5 254
-1 193 1 251 10 251 7 0 295 -111 640 -246z"/>
</g>
</svg>
