<?xml version="1.0" standalone="no"?>
<!DOCTYPE svg PUBLIC "-//W3C//DTD SVG 20010904//EN"
 "http://www.w3.org/TR/2001/REC-SVG-20010904/DTD/svg10.dtd">
<svg version="1.0" xmlns="http://www.w3.org/2000/svg"
 width="1000.000000pt" height="800.000000pt" viewBox="0 0 1000.000000 800.000000"
 preserveAspectRatio="xMidYMid meet">

<g transform="translate(0.000000,800.000000) scale(0.100000,-0.100000)"
fill="#009ba5" stroke="none">
<path d="M4810 7809 c-1550 -72 -2909 -1094 -3418 -2569 -213 -618 -263 -1309
-141 -1950 292 -1538 1501 -2747 3039 -3039 448 -85 972 -85 1420 0 1737 330
3022 1813 3099 3577 62 1427 -656 2744 -1893 3471 -495 291 -1124 482 -1668
506 -68 3 -157 7 -198 9 -41 1 -149 -1 -240 -5z m-429 -1820 c365 -143 791
-310 947 -371 l282 -112 -2 -243 -3 -244 -625 -245 c-344 -135 -733 -287 -865
-339 -132 -52 -269 -105 -304 -119 -79 -32 -97 -32 -105 -3 -3 12 -6 126 -6
252 l0 230 198 77 c768 302 968 380 979 387 7 4 -168 77 -405 170 -229 90
-497 195 -594 234 l-178 69 0 259 c0 146 4 259 9 259 5 0 308 -117 672 -261z
m2227 -1275 l-3 -256 -355 -139 c-749 -294 -820 -323 -813 -330 5 -3 270 -109
591 -235 l582 -228 0 -259 c0 -242 -1 -259 -17 -254 -10 2 -236 90 -503 195
-267 104 -528 207 -580 227 -52 20 -178 70 -280 110 -102 39 -263 102 -357
140 l-173 67 0 240 0 239 43 19 c23 10 373 148 777 306 404 158 807 316 895
350 88 35 168 63 178 63 16 1 17 -16 15 -255z m-2601 -1118 c232 -90 973 -380
1451 -568 l152 -59 0 -244 0 -244 -102 -39 c-57 -22 -206 -81 -333 -131 -785
-309 -1458 -571 -1466 -571 -5 0 -9 109 -9 258 l0 259 183 71 c460 179 1001
392 1004 395 2 2 -95 42 -214 89 -120 47 -388 152 -595 234 l-378 148 0 253
c0 245 1 253 20 253 11 0 140 -47 287 -104z"/>
</g>
</svg>
