<?xml version="1.0" standalone="no"?>
<!DOCTYPE svg PUBLIC "-//W3C//DTD SVG 20010904//EN"
 "http://www.w3.org/TR/2001/REC-SVG-20010904/DTD/svg10.dtd">
<svg version="1.0" xmlns="http://www.w3.org/2000/svg"
 width="1000.000000pt" height="800.000000pt" viewBox="0 0 1000.000000 800.000000"
 preserveAspectRatio="xMidYMid meet">

<g transform="translate(0.000000,800.000000) scale(0.100000,-0.100000)"
fill="#f00050" stroke="none">
<path d="M4800 7814 c-246 -21 -314 -28 -438 -50 -1101 -185 -2069 -849 -2641
-1809 -151 -253 -250 -470 -341 -742 -139 -416 -194 -762 -194 -1213 0 -285
14 -452 59 -696 233 -1259 1093 -2327 2276 -2825 339 -143 730 -241 1109 -280
161 -17 579 -17 740 0 943 97 1795 520 2433 1209 490 529 821 1190 952 1896
45 244 59 411 59 696 0 285 -14 452 -59 696 -233 1259 -1093 2327 -2276 2825
-334 140 -732 242 -1094 279 -114 11 -506 21 -585 14z m-630 -1747 c107 -42
474 -186 815 -320 l620 -243 3 -237 2 -237 -32 -15 c-18 -8 -118 -48 -223 -89
-104 -41 -513 -200 -907 -355 -394 -155 -721 -281 -726 -281 -5 0 -12 17 -16
38 -8 52 -7 445 2 458 4 6 138 62 297 124 160 62 418 163 575 225 157 61 294
115 305 119 17 6 17 9 5 15 -8 5 -231 93 -495 196 -264 104 -527 207 -585 230
l-105 41 -3 244 c-1 135 0 250 2 257 3 8 46 -5 138 -41 73 -29 221 -87 328
-129z m2440 -1350 l0 -252 -392 -154 c-216 -85 -484 -190 -596 -234 -112 -44
-200 -83 -195 -88 4 -4 89 -39 188 -78 99 -38 362 -141 585 -229 l405 -159 3
-257 c2 -206 0 -257 -10 -253 -18 8 -928 365 -1451 569 l-437 172 2 240 3 241
365 143 c201 79 505 197 675 264 171 67 427 168 570 224 143 57 266 103 273
103 9 1 12 -56 12 -252z m-2253 -1263 c346 -135 707 -276 803 -314 96 -38 236
-93 310 -122 l135 -53 3 -238 2 -238 -37 -16 c-21 -8 -393 -155 -828 -325
-434 -170 -844 -331 -910 -357 -66 -27 -123 -45 -128 -42 -4 4 -6 119 -5 256
l3 248 150 59 c83 32 263 103 400 157 138 54 339 133 449 176 127 50 194 81
185 85 -8 5 -275 110 -594 236 -319 125 -581 228 -583 229 -1 1 -3 115 -5 254
-1 193 1 251 10 251 7 0 295 -111 640 -246z"/>
</g>
</svg>
