<?xml version="1.0" standalone="no"?>
<!DOCTYPE svg PUBLIC "-//W3C//DTD SVG 20010904//EN"
 "http://www.w3.org/TR/2001/REC-SVG-20010904/DTD/svg10.dtd">
<svg version="1.0" xmlns="http://www.w3.org/2000/svg"
 width="4010.000000pt" height="800.000000pt" viewBox="0 0 4010.000000 800.000000"
 preserveAspectRatio="xMidYMid meet">

<g transform="translate(0.000000,800.000000) scale(0.100000,-0.100000)"
fill="#1437a0" stroke="none">
<path d="M3760 7814 c-25 -2 -101 -9 -170 -14 -69 -6 -190 -22 -268 -36 -1102
-185 -2066 -846 -2642 -1811 -287 -479 -456 -993 -522 -1583 -19 -171 -16
-601 6 -785 97 -831 438 -1579 993 -2177 641 -690 1490 -1112 2433 -1209 161
-17 579 -17 740 0 1220 125 2287 803 2909 1846 285 478 451 973 517 1540 24
206 25 623 1 828 -67 571 -233 1063 -518 1542 -518 870 -1356 1495 -2337 1745
-163 42 -393 83 -557 100 -106 11 -509 21 -585 14z m-630 -1747 c107 -42 474
-186 815 -320 l620 -243 3 -237 2 -237 -32 -15 c-18 -8 -118 -48 -223 -89
-104 -41 -513 -200 -907 -355 -394 -155 -721 -281 -726 -281 -5 0 -12 17 -16
38 -8 52 -7 445 2 458 4 6 138 62 297 124 160 62 418 163 575 225 157 61 294
115 305 119 17 6 17 9 5 15 -8 5 -231 93 -495 196 -264 104 -527 207 -585 230
l-105 41 -3 244 c-1 135 0 250 2 257 3 8 46 -5 138 -41 73 -29 221 -87 328
-129z m2440 -1350 l0 -252 -392 -154 c-216 -85 -484 -190 -596 -234 -112 -44
-200 -83 -195 -88 4 -4 89 -39 188 -78 99 -38 362 -141 585 -229 l405 -159 3
-257 c2 -206 0 -257 -10 -253 -18 8 -928 365 -1451 569 l-437 172 2 240 3 241
365 143 c201 79 505 197 675 264 171 67 427 168 570 224 143 57 266 103 273
103 9 1 12 -56 12 -252z m-2253 -1263 c346 -135 707 -276 803 -314 96 -38 236
-93 310 -122 l135 -53 3 -238 2 -238 -37 -16 c-21 -8 -393 -155 -828 -325
-434 -170 -844 -331 -910 -357 -66 -27 -123 -45 -128 -42 -4 4 -6 119 -5 256
l3 248 150 59 c83 32 263 103 400 157 138 54 339 133 449 176 127 50 194 81
185 85 -8 5 -275 110 -594 236 -319 125 -581 228 -583 229 -1 1 -3 115 -5 254
-1 193 1 251 10 251 7 0 295 -111 640 -246z"/>
<path d="M20715 5274 c-434 -66 -760 -342 -896 -758 -51 -156 -71 -297 -72
-506 0 -102 5 -223 12 -269 83 -564 407 -917 931 -1016 128 -24 379 -25 510
-1 336 60 597 241 735 507 50 98 88 196 77 203 -13 7 -452 136 -466 136 -7 0
-18 -19 -25 -42 -51 -173 -188 -312 -363 -369 -61 -20 -93 -24 -193 -24 -342
2 -547 167 -642 520 -25 95 -27 112 -27 335 -1 212 1 244 22 325 28 113 107
274 166 341 61 70 166 139 256 170 110 38 283 45 400 15 175 -44 281 -147 350
-338 l22 -61 102 42 c55 24 157 67 226 96 69 29 129 56 134 61 12 11 -28 113
-79 201 -141 240 -404 395 -745 437 -114 15 -325 12 -435 -5z"/>
<path d="M8230 3994 l0 -1255 678 4 c640 4 682 5 772 25 198 43 320 103 425
207 121 120 175 259 175 448 0 174 -46 293 -160 408 -74 74 -165 125 -276 153
-38 10 -76 20 -84 23 -8 3 19 15 60 27 155 45 269 136 334 266 68 136 83 315
41 470 -72 266 -289 426 -638 470 -48 6 -340 10 -704 10 l-623 0 0 -1256z
m1228 829 c152 -51 217 -143 215 -308 -1 -151 -63 -236 -208 -290 -44 -17 -89
-19 -387 -23 l-338 -3 0 326 0 327 328 -4 c299 -4 332 -6 390 -25z m47 -1047
c163 -46 245 -164 233 -335 -7 -89 -40 -162 -95 -211 -95 -83 -197 -99 -630
-100 l-273 0 0 336 0 336 353 -5 c292 -3 362 -7 412 -21z"/>
<path d="M13320 5155 l-255 -71 -5 -219 -5 -220 -172 -3 -173 -2 0 -190 0
-190 175 0 175 0 0 -542 c0 -589 3 -625 55 -729 15 -30 43 -73 61 -96 166
-204 630 -253 939 -98 120 60 113 40 70 217 -20 84 -39 160 -41 170 -4 14 -13
11 -62 -18 -77 -47 -140 -64 -233 -64 -121 0 -195 35 -240 113 l-24 42 -3 503
-3 502 471 0 470 0 0 -542 c0 -589 3 -625 55 -729 15 -30 43 -73 61 -96 166
-204 630 -253 939 -98 120 60 113 40 70 217 -20 84 -39 160 -41 170 -4 14 -13
11 -62 -18 -77 -47 -140 -64 -233 -64 -121 0 -195 35 -240 113 l-24 42 -3 503
-3 502 306 0 305 0 0 190 0 190 -305 0 -305 0 -2 293 -3 293 -255 -71 -255
-71 -5 -219 -5 -220 -467 -3 -468 -2 -2 293 -3 293 -255 -71z"/>
<path d="M11394 4665 c-274 -49 -474 -177 -611 -388 -112 -171 -160 -378 -150
-637 11 -283 84 -478 241 -647 153 -164 354 -256 618 -284 329 -34 651 68 836
265 52 57 141 192 131 200 -11 7 -411 157 -413 154 -2 -1 -17 -24 -34 -50 -37
-54 -101 -111 -156 -140 -89 -46 -257 -60 -375 -33 -164 39 -279 158 -327 338
-26 97 -102 87 655 87 629 0 670 1 675 18 12 44 17 284 6 367 -16 128 -36 196
-91 310 -116 240 -324 391 -608 440 -101 18 -299 18 -397 0z m358 -394 c112
-43 200 -153 233 -292 8 -35 15 -70 15 -76 0 -10 -93 -13 -430 -13 l-430 0 6
28 c48 201 150 320 313 364 87 24 214 19 293 -11z"/>
<path d="M16664 4665 c-274 -49 -474 -177 -611 -388 -112 -171 -160 -378 -150
-637 11 -283 84 -478 241 -647 153 -164 354 -256 618 -284 329 -34 651 68 836
265 52 57 141 192 131 200 -11 7 -411 157 -413 154 -2 -1 -17 -24 -34 -50 -37
-54 -101 -111 -156 -140 -89 -46 -257 -60 -375 -33 -164 39 -279 158 -327 338
-26 97 -102 87 655 87 629 0 670 1 675 18 12 44 17 284 6 367 -16 128 -36 196
-91 310 -116 240 -324 391 -608 440 -101 18 -299 18 -397 0z m358 -394 c112
-43 200 -153 233 -292 8 -35 15 -70 15 -76 0 -10 -93 -13 -430 -13 l-430 0 6
28 c48 201 150 320 313 364 87 24 214 19 293 -11z"/>
<path d="M19114 4660 c-171 -45 -291 -145 -376 -314 l-35 -69 -6 49 c-3 27
-11 109 -18 182 l-12 132 -224 0 -223 0 0 -950 0 -950 260 0 260 0 0 548 c0
585 1 597 51 698 53 106 166 197 282 229 51 14 90 16 188 12 68 -3 136 -8 150
-12 l25 -7 31 214 c17 117 27 217 23 221 -4 4 -31 14 -61 22 -76 21 -228 18
-315 -5z"/>
<path d="M23088 4665 c-373 -63 -636 -303 -735 -670 -24 -92 -26 -116 -27
-295 0 -147 4 -213 17 -266 70 -301 229 -510 482 -630 224 -106 515 -130 770
-63 336 88 574 342 646 692 52 256 26 533 -71 735 -133 278 -355 442 -674 497
-106 18 -300 18 -408 0z m359 -395 c136 -47 230 -162 274 -340 22 -86 19 -406
-4 -489 -29 -106 -74 -186 -138 -246 -72 -66 -144 -95 -254 -102 -189 -13
-334 65 -410 220 -51 105 -66 174 -72 332 -11 280 54 475 191 573 108 78 276
99 413 52z"/>
<path d="M25642 4661 c-173 -44 -320 -148 -409 -289 l-40 -63 -6 77 c-4 42 -7
100 -7 128 0 28 -3 68 -6 89 l-7 37 -228 0 -229 0 0 -950 0 -950 260 0 260 0
0 563 c0 619 2 636 62 748 39 74 121 152 195 187 51 24 70 27 158 27 83 0 109
-4 152 -24 67 -30 124 -92 154 -167 l24 -59 3 -637 3 -638 259 0 259 0 3 588
c3 576 4 588 25 652 65 191 221 299 416 288 172 -10 271 -104 297 -284 5 -40
10 -320 10 -656 l0 -588 260 0 260 0 0 633 c0 347 -5 673 -10 723 -18 168 -73
292 -179 400 -178 181 -517 237 -782 130 -138 -56 -264 -158 -325 -264 l-31
-54 -31 55 c-42 75 -138 174 -206 216 -31 18 -95 47 -143 64 -77 26 -104 31
-218 33 -102 3 -146 0 -203 -15z"/>
<path d="M29242 4661 c-173 -44 -320 -148 -409 -289 l-40 -63 -6 77 c-4 42 -7
100 -7 128 0 28 -3 68 -6 89 l-7 37 -228 0 -229 0 0 -950 0 -950 260 0 260 0
0 563 c0 619 2 636 62 748 39 74 121 152 195 187 51 24 70 27 158 27 83 0 109
-4 152 -24 67 -30 124 -92 154 -167 l24 -59 3 -637 3 -638 259 0 259 0 3 588
c3 576 4 588 25 652 65 191 221 299 416 288 172 -10 271 -104 297 -284 5 -40
10 -320 10 -656 l0 -588 260 0 260 0 0 633 c0 347 -5 673 -10 723 -18 168 -73
292 -179 400 -178 181 -517 237 -782 130 -138 -56 -264 -158 -325 -264 l-31
-54 -31 55 c-42 75 -138 174 -206 216 -31 18 -95 47 -143 64 -77 26 -104 31
-218 33 -102 3 -146 0 -203 -15z"/>
<path d="M32564 4665 c-274 -49 -474 -177 -611 -388 -112 -171 -160 -378 -150
-637 11 -283 84 -478 241 -647 153 -164 354 -256 618 -284 329 -34 651 68 836
265 52 57 141 192 131 200 -11 7 -411 157 -413 154 -2 -1 -17 -24 -34 -50 -37
-54 -101 -111 -156 -140 -89 -46 -257 -60 -375 -33 -164 39 -279 158 -327 338
-26 97 -102 87 655 87 629 0 670 1 675 18 12 44 17 284 6 367 -16 128 -36 196
-91 310 -116 240 -324 391 -608 440 -101 18 -299 18 -397 0z m358 -394 c112
-43 200 -153 233 -292 8 -35 15 -70 15 -76 0 -10 -93 -13 -430 -13 l-430 0 6
28 c48 201 150 320 313 364 87 24 214 19 293 -11z"/>
<path d="M35014 4660 c-171 -45 -291 -145 -376 -314 l-35 -69 -6 49 c-3 27
-11 109 -18 182 l-12 132 -224 0 -223 0 0 -950 0 -950 260 0 260 0 0 548 c0
585 1 597 51 698 53 106 166 197 282 229 51 14 90 16 188 12 68 -3 136 -8 150
-12 l25 -7 31 214 c17 117 27 217 23 221 -4 4 -31 14 -61 22 -76 21 -228 18
-315 -5z"/>
<path d="M36380 4674 c-247 -45 -404 -119 -541 -254 -191 -188 -279 -446 -266
-780 3 -74 13 -171 22 -215 87 -413 394 -673 845 -716 462 -44 839 155 960
507 11 32 19 58 18 60 -10 8 -468 150 -473 146 -3 -3 -5 -15 -5 -26 0 -39 -67
-160 -111 -203 -24 -23 -71 -55 -104 -70 -55 -26 -69 -28 -175 -28 -95 1 -125
5 -173 24 -203 80 -297 284 -284 616 9 219 47 334 144 436 89 94 222 137 366
119 84 -10 145 -38 197 -90 43 -43 105 -159 116 -218 4 -18 11 -31 18 -29 6 2
116 41 244 87 263 94 243 75 192 187 -77 169 -198 287 -376 369 -124 58 -216
75 -414 79 -96 2 -186 2 -200 -1z"/>
<path d="M38484 4665 c-274 -49 -474 -177 -611 -388 -112 -171 -160 -378 -150
-637 11 -283 84 -478 241 -647 153 -164 354 -256 618 -284 329 -34 651 68 836
265 52 57 141 192 131 200 -11 7 -411 157 -413 154 -2 -1 -17 -24 -34 -50 -37
-54 -101 -111 -156 -140 -89 -46 -257 -60 -375 -33 -164 39 -279 158 -327 338
-26 97 -102 87 655 87 629 0 670 1 675 18 12 44 17 284 6 367 -16 128 -36 196
-91 310 -116 240 -324 391 -608 440 -101 18 -299 18 -397 0z m358 -394 c112
-43 200 -153 233 -292 8 -35 15 -70 15 -76 0 -10 -93 -13 -430 -13 l-430 0 6
28 c48 201 150 320 313 364 87 24 214 19 293 -11z"/>
</g>
</svg>
